%TF.GenerationSoftware,KiCad,Pcbnew,9.0.2*%
%TF.CreationDate,2026-07-04T15:21:04-03:00*%
%TF.ProjectId,IR_Termostat,49525f54-6572-46d6-9f73-7461742e6b69,rev?*%
%TF.SameCoordinates,Original*%
%TF.FileFunction,Copper,L1,Top*%
%TF.FilePolarity,Positive*%
%FSLAX46Y46*%
G04 Gerber Fmt 4.6, Leading zero omitted, Abs format (unit mm)*
G04 Created by KiCad (PCBNEW 9.0.2) date 2026-07-04 15:21:04*
%MOMM*%
%LPD*%
G01*
G04 APERTURE LIST*
G04 Aperture macros list*
%AMRoundRect*
0 Rectangle with rounded corners*
0 $1 Rounding radius*
0 $2 $3 $4 $5 $6 $7 $8 $9 X,Y pos of 4 corners*
0 Add a 4 corners polygon primitive as box body*
4,1,4,$2,$3,$4,$5,$6,$7,$8,$9,$2,$3,0*
0 Add four circle primitives for the rounded corners*
1,1,$1+$1,$2,$3*
1,1,$1+$1,$4,$5*
1,1,$1+$1,$6,$7*
1,1,$1+$1,$8,$9*
0 Add four rect primitives between the rounded corners*
20,1,$1+$1,$2,$3,$4,$5,0*
20,1,$1+$1,$4,$5,$6,$7,0*
20,1,$1+$1,$6,$7,$8,$9,0*
20,1,$1+$1,$8,$9,$2,$3,0*%
G04 Aperture macros list end*
%TA.AperFunction,ComponentPad*%
%ADD10C,1.500000*%
%TD*%
%TA.AperFunction,SMDPad,CuDef*%
%ADD11RoundRect,0.150000X0.150000X-0.587500X0.150000X0.587500X-0.150000X0.587500X-0.150000X-0.587500X0*%
%TD*%
%TA.AperFunction,SMDPad,CuDef*%
%ADD12RoundRect,0.250000X0.450000X-0.350000X0.450000X0.350000X-0.450000X0.350000X-0.450000X-0.350000X0*%
%TD*%
%TA.AperFunction,SMDPad,CuDef*%
%ADD13RoundRect,0.250000X-0.350000X-0.450000X0.350000X-0.450000X0.350000X0.450000X-0.350000X0.450000X0*%
%TD*%
%TA.AperFunction,SMDPad,CuDef*%
%ADD14RoundRect,0.250000X-0.300000X0.300000X-0.300000X-0.300000X0.300000X-0.300000X0.300000X0.300000X0*%
%TD*%
%TA.AperFunction,SMDPad,CuDef*%
%ADD15RoundRect,0.250000X0.250000X-0.250000X0.250000X0.250000X-0.250000X0.250000X-0.250000X-0.250000X0*%
%TD*%
%TA.AperFunction,SMDPad,CuDef*%
%ADD16RoundRect,0.250000X0.350000X0.450000X-0.350000X0.450000X-0.350000X-0.450000X0.350000X-0.450000X0*%
%TD*%
%TA.AperFunction,SMDPad,CuDef*%
%ADD17RoundRect,0.250000X0.300000X0.300000X-0.300000X0.300000X-0.300000X-0.300000X0.300000X-0.300000X0*%
%TD*%
%TA.AperFunction,SMDPad,CuDef*%
%ADD18RoundRect,0.250000X0.625000X-0.400000X0.625000X0.400000X-0.625000X0.400000X-0.625000X-0.400000X0*%
%TD*%
%TA.AperFunction,SMDPad,CuDef*%
%ADD19RoundRect,0.250000X-0.337500X-0.475000X0.337500X-0.475000X0.337500X0.475000X-0.337500X0.475000X0*%
%TD*%
%TA.AperFunction,SMDPad,CuDef*%
%ADD20RoundRect,0.250000X-0.475000X0.337500X-0.475000X-0.337500X0.475000X-0.337500X0.475000X0.337500X0*%
%TD*%
%TA.AperFunction,SMDPad,CuDef*%
%ADD21RoundRect,0.250000X-0.450000X0.350000X-0.450000X-0.350000X0.450000X-0.350000X0.450000X0.350000X0*%
%TD*%
%TA.AperFunction,SMDPad,CuDef*%
%ADD22RoundRect,0.150000X-0.825000X-0.150000X0.825000X-0.150000X0.825000X0.150000X-0.825000X0.150000X0*%
%TD*%
%TA.AperFunction,HeatsinkPad*%
%ADD23C,0.600000*%
%TD*%
%TA.AperFunction,HeatsinkPad*%
%ADD24R,2.410000X3.300000*%
%TD*%
%TA.AperFunction,ComponentPad*%
%ADD25C,2.000000*%
%TD*%
%TA.AperFunction,SMDPad,CuDef*%
%ADD26RoundRect,0.150000X0.825000X0.150000X-0.825000X0.150000X-0.825000X-0.150000X0.825000X-0.150000X0*%
%TD*%
%TA.AperFunction,HeatsinkPad*%
%ADD27R,2.290000X3.000000*%
%TD*%
%TA.AperFunction,SMDPad,CuDef*%
%ADD28RoundRect,0.150000X0.150000X-0.512500X0.150000X0.512500X-0.150000X0.512500X-0.150000X-0.512500X0*%
%TD*%
%TA.AperFunction,ComponentPad*%
%ADD29R,1.700000X1.700000*%
%TD*%
%TA.AperFunction,ComponentPad*%
%ADD30C,1.700000*%
%TD*%
%TA.AperFunction,ComponentPad*%
%ADD31R,1.508000X1.508000*%
%TD*%
%TA.AperFunction,ComponentPad*%
%ADD32C,1.508000*%
%TD*%
%TA.AperFunction,ComponentPad*%
%ADD33C,3.000000*%
%TD*%
%TA.AperFunction,SMDPad,CuDef*%
%ADD34RoundRect,0.250000X0.337500X0.475000X-0.337500X0.475000X-0.337500X-0.475000X0.337500X-0.475000X0*%
%TD*%
%TA.AperFunction,SMDPad,CuDef*%
%ADD35RoundRect,0.150000X0.675000X0.150000X-0.675000X0.150000X-0.675000X-0.150000X0.675000X-0.150000X0*%
%TD*%
%TA.AperFunction,SMDPad,CuDef*%
%ADD36RoundRect,0.175000X-0.175000X-0.425000X0.175000X-0.425000X0.175000X0.425000X-0.175000X0.425000X0*%
%TD*%
%TA.AperFunction,SMDPad,CuDef*%
%ADD37RoundRect,0.190000X0.190000X0.410000X-0.190000X0.410000X-0.190000X-0.410000X0.190000X-0.410000X0*%
%TD*%
%TA.AperFunction,SMDPad,CuDef*%
%ADD38RoundRect,0.200000X0.200000X0.400000X-0.200000X0.400000X-0.200000X-0.400000X0.200000X-0.400000X0*%
%TD*%
%TA.AperFunction,SMDPad,CuDef*%
%ADD39RoundRect,0.175000X0.175000X0.425000X-0.175000X0.425000X-0.175000X-0.425000X0.175000X-0.425000X0*%
%TD*%
%TA.AperFunction,SMDPad,CuDef*%
%ADD40RoundRect,0.190000X-0.190000X-0.410000X0.190000X-0.410000X0.190000X0.410000X-0.190000X0.410000X0*%
%TD*%
%TA.AperFunction,SMDPad,CuDef*%
%ADD41RoundRect,0.200000X-0.200000X-0.400000X0.200000X-0.400000X0.200000X0.400000X-0.200000X0.400000X0*%
%TD*%
%TA.AperFunction,HeatsinkPad*%
%ADD42O,1.100000X1.700000*%
%TD*%
%TA.AperFunction,ComponentPad*%
%ADD43RoundRect,0.250000X-0.350000X-0.625000X0.350000X-0.625000X0.350000X0.625000X-0.350000X0.625000X0*%
%TD*%
%TA.AperFunction,ComponentPad*%
%ADD44O,1.200000X1.750000*%
%TD*%
%TA.AperFunction,ComponentPad*%
%ADD45R,1.090000X1.090000*%
%TD*%
%TA.AperFunction,ComponentPad*%
%ADD46C,1.090000*%
%TD*%
%TA.AperFunction,ViaPad*%
%ADD47C,0.600000*%
%TD*%
%TA.AperFunction,Conductor*%
%ADD48C,0.200000*%
%TD*%
%TA.AperFunction,Conductor*%
%ADD49C,0.300000*%
%TD*%
G04 APERTURE END LIST*
D10*
%TO.P,LDR1,2*%
%TO.N,Net-(U5-PA2)*%
X160000000Y-103500000D03*
%TO.P,LDR1,1*%
%TO.N,+3.3V*%
X163400000Y-103500000D03*
%TD*%
D11*
%TO.P,Q1,1,G*%
%TO.N,+5V*%
X157500000Y-117937500D03*
%TO.P,Q1,2,S*%
%TO.N,Vbat+*%
X159400000Y-117937500D03*
%TO.P,Q1,3,D*%
%TO.N,Net-(D1-K)*%
X158450000Y-116062500D03*
%TD*%
D12*
%TO.P,R5,1*%
%TO.N,+5V*%
X149000000Y-116000000D03*
%TO.P,R5,2*%
%TO.N,GND*%
X149000000Y-114000000D03*
%TD*%
D13*
%TO.P,R6,1*%
%TO.N,Vbat+*%
X152000000Y-123000000D03*
%TO.P,R6,2*%
%TO.N,Net-(U3-VDD)*%
X154000000Y-123000000D03*
%TD*%
D14*
%TO.P,D2,1,K*%
%TO.N,Net-(D2-K)*%
X164500000Y-111100000D03*
%TO.P,D2,2,A*%
%TO.N,GND*%
X164500000Y-113900000D03*
%TD*%
D15*
%TO.P,TV1,1,A1*%
%TO.N,GND*%
X146496296Y-124250000D03*
%TO.P,TV1,2,A2*%
%TO.N,+5V*%
X146496296Y-121750000D03*
%TD*%
D16*
%TO.P,R2,1*%
%TO.N,Net-(U1-TEMP)*%
X140886163Y-121560016D03*
%TO.P,R2,2*%
%TO.N,GND*%
X138886163Y-121560016D03*
%TD*%
D17*
%TO.P,D1,1,K*%
%TO.N,Net-(D1-K)*%
X156400000Y-113000000D03*
%TO.P,D1,2,A*%
%TO.N,+5V*%
X153600000Y-113000000D03*
%TD*%
D18*
%TO.P,F1,1*%
%TO.N,Net-(F1-Pad1)*%
X148658445Y-124806651D03*
%TO.P,F1,2*%
%TO.N,+5V*%
X148658445Y-121706651D03*
%TD*%
D19*
%TO.P,C9,1*%
%TO.N,Net-(U5-PD6{slash}PA1)*%
X161962500Y-107000000D03*
%TO.P,C9,2*%
%TO.N,GND*%
X164037500Y-107000000D03*
%TD*%
D20*
%TO.P,C5,1*%
%TO.N,Vbat+*%
X156500000Y-120962500D03*
%TO.P,C5,2*%
%TO.N,Net-(J2-Pin_2)*%
X156500000Y-123037500D03*
%TD*%
D12*
%TO.P,R4,1*%
%TO.N,Net-(J1-CC2)*%
X163000000Y-129000000D03*
%TO.P,R4,2*%
%TO.N,GND*%
X163000000Y-127000000D03*
%TD*%
D21*
%TO.P,R13,1*%
%TO.N,Net-(D2-K)*%
X161000000Y-111000000D03*
%TO.P,R13,2*%
%TO.N,Vbat+*%
X161000000Y-113000000D03*
%TD*%
D16*
%TO.P,R11,1*%
%TO.N,Net-(U5-PD6{slash}PA1)*%
X162000000Y-109000000D03*
%TO.P,R11,2*%
%TO.N,GND*%
X160000000Y-109000000D03*
%TD*%
D19*
%TO.P,C2,1*%
%TO.N,Net-(D1-K)*%
X161462500Y-116500000D03*
%TO.P,C2,2*%
%TO.N,GND*%
X163537500Y-116500000D03*
%TD*%
D22*
%TO.P,U1,1,TEMP*%
%TO.N,Net-(U1-TEMP)*%
X141825000Y-126395000D03*
%TO.P,U1,2,PROG*%
%TO.N,Net-(U1-PROG)*%
X141825000Y-127665000D03*
%TO.P,U1,3,GND*%
%TO.N,GND*%
X141825000Y-128935000D03*
%TO.P,U1,4,V_{CC}*%
%TO.N,+5V*%
X141825000Y-130205000D03*
%TO.P,U1,5,BAT*%
%TO.N,Vbat+*%
X146775000Y-130205000D03*
%TO.P,U1,6,~{STDBY}*%
%TO.N,unconnected-(U1-~{STDBY}-Pad6)*%
X146775000Y-128935000D03*
%TO.P,U1,7,~{CHRG}*%
%TO.N,CHRG*%
X146775000Y-127665000D03*
%TO.P,U1,8,CE*%
%TO.N,+5V*%
X146775000Y-126395000D03*
D23*
%TO.P,U1,9,EPAD*%
%TO.N,GND*%
X143600000Y-127100000D03*
X143600000Y-128300000D03*
X143600000Y-129500000D03*
D24*
X144300000Y-128300000D03*
D23*
X145000000Y-127100000D03*
X145000000Y-128300000D03*
X145000000Y-129500000D03*
%TD*%
D25*
%TO.P,SW1,1,A*%
%TO.N,Net-(SW1-A)*%
X152000000Y-109000000D03*
X152000000Y-102500000D03*
%TO.P,SW1,2,B*%
%TO.N,GND*%
X156500000Y-109000000D03*
X156500000Y-102500000D03*
%TD*%
D20*
%TO.P,C4,1*%
%TO.N,Net-(U3-VDD)*%
X158500000Y-120925000D03*
%TO.P,C4,2*%
%TO.N,Net-(J2-Pin_2)*%
X158500000Y-123000000D03*
%TD*%
D26*
%TO.P,U3,1,VM*%
%TO.N,GND*%
X165825000Y-123905000D03*
%TO.P,U3,2,VM*%
X165825000Y-122635000D03*
%TO.P,U3,3,VM*%
X165825000Y-121365000D03*
%TO.P,U3,4,VM*%
X165825000Y-120095000D03*
%TO.P,U3,5,GND*%
%TO.N,Net-(J2-Pin_2)*%
X160875000Y-120095000D03*
%TO.P,U3,6,VDD*%
%TO.N,Net-(U3-VDD)*%
X160875000Y-121365000D03*
%TO.P,U3,7,GND*%
%TO.N,Net-(J2-Pin_2)*%
X160875000Y-122635000D03*
%TO.P,U3,8,GND*%
X160875000Y-123905000D03*
D23*
%TO.P,U3,9,EPAD*%
X164000000Y-123000000D03*
X164000000Y-122000000D03*
X164000000Y-121000000D03*
D27*
X163350000Y-122000000D03*
D23*
X162700000Y-123000000D03*
X162700000Y-122000000D03*
X162700000Y-121000000D03*
%TD*%
D28*
%TO.P,U2,1,IN*%
%TO.N,Net-(D1-K)*%
X152050000Y-118028530D03*
%TO.P,U2,2,GND*%
%TO.N,GND*%
X153000000Y-118028530D03*
%TO.P,U2,3,EN*%
%TO.N,Net-(D1-K)*%
X153950000Y-118028530D03*
%TO.P,U2,4,NC*%
%TO.N,unconnected-(U2-NC-Pad4)*%
X153950000Y-115753530D03*
%TO.P,U2,5,OUT*%
%TO.N,+3.3V*%
X152050000Y-115753530D03*
%TD*%
D29*
%TO.P,J3,1,Pin_1*%
%TO.N,+5V*%
X146040000Y-109500000D03*
D30*
%TO.P,J3,2,Pin_2*%
%TO.N,SWIO*%
X143500000Y-109500000D03*
%TO.P,J3,3,Pin_3*%
%TO.N,GND*%
X140960000Y-109500000D03*
%TD*%
D12*
%TO.P,R3,1*%
%TO.N,Net-(J1-CC1)*%
X160500000Y-129000000D03*
%TO.P,R3,2*%
%TO.N,GND*%
X160500000Y-127000000D03*
%TD*%
D21*
%TO.P,R16,1*%
%TO.N,SWIO*%
X144927299Y-113753077D03*
%TO.P,R16,2*%
%TO.N,+3.3V*%
X144927299Y-115753077D03*
%TD*%
D31*
%TO.P,DISPLAY_1,1,GND*%
%TO.N,GND*%
X148690000Y-72000000D03*
D32*
%TO.P,DISPLAY_1,2,VCC_IN*%
%TO.N,+3.3V*%
X151230000Y-72000000D03*
%TO.P,DISPLAY_1,3,SCL*%
%TO.N,SCL*%
X153770000Y-72000000D03*
%TO.P,DISPLAY_1,4,SDA*%
%TO.N,SDA*%
X156310000Y-72000000D03*
D33*
%TO.P,DISPLAY_1,S1*%
%TO.N,N/C*%
X141500000Y-72500000D03*
%TO.P,DISPLAY_1,S2*%
X163500000Y-72500000D03*
%TO.P,DISPLAY_1,S3*%
X163500000Y-94500000D03*
%TO.P,DISPLAY_1,S4*%
X141500000Y-94500000D03*
%TD*%
D12*
%TO.P,R9,1*%
%TO.N,SWIO*%
X149000000Y-112000000D03*
%TO.P,R9,2*%
%TO.N,Net-(SW1-A)*%
X149000000Y-110000000D03*
%TD*%
%TO.P,R14,1*%
%TO.N,SDA*%
X142500000Y-100867585D03*
%TO.P,R14,2*%
%TO.N,+3.3V*%
X142500000Y-98867585D03*
%TD*%
%TO.P,R10,1*%
%TO.N,Net-(U5-PA2)*%
X166000000Y-104500000D03*
%TO.P,R10,2*%
%TO.N,GND*%
X166000000Y-102500000D03*
%TD*%
D34*
%TO.P,C1,1*%
%TO.N,+5V*%
X144703994Y-123494993D03*
%TO.P,C1,2*%
%TO.N,GND*%
X142628994Y-123494993D03*
%TD*%
D21*
%TO.P,R1,1*%
%TO.N,Net-(U1-PROG)*%
X139500000Y-126720654D03*
%TO.P,R1,2*%
%TO.N,GND*%
X139500000Y-128720654D03*
%TD*%
D34*
%TO.P,C3,1*%
%TO.N,+3.3V*%
X154037500Y-120500000D03*
%TO.P,C3,2*%
%TO.N,GND*%
X151962500Y-120500000D03*
%TD*%
D12*
%TO.P,R7,1*%
%TO.N,CHRG*%
X139500000Y-116000000D03*
%TO.P,R7,2*%
%TO.N,+3.3V*%
X139500000Y-114000000D03*
%TD*%
D35*
%TO.P,U5,1,PD6/PA1*%
%TO.N,Net-(U5-PD6{slash}PA1)*%
X148125000Y-106405000D03*
%TO.P,U5,2,VSS*%
%TO.N,GND*%
X148125000Y-105135000D03*
%TO.P,U5,3,PA2*%
%TO.N,Net-(U5-PA2)*%
X148125000Y-103865000D03*
%TO.P,U5,4,VDD*%
%TO.N,+3.3V*%
X148125000Y-102595000D03*
%TO.P,U5,5,PC1*%
%TO.N,SDA*%
X142875000Y-102595000D03*
%TO.P,U5,6,PC2*%
%TO.N,SCL*%
X142875000Y-103865000D03*
%TO.P,U5,7,PC4*%
%TO.N,CHRG*%
X142875000Y-105135000D03*
%TO.P,U5,8,PD1/PD4/PD5*%
%TO.N,SWIO*%
X142875000Y-106405000D03*
%TD*%
D12*
%TO.P,R15,1*%
%TO.N,SCL*%
X140500000Y-100851033D03*
%TO.P,R15,2*%
%TO.N,+3.3V*%
X140500000Y-98851033D03*
%TD*%
D13*
%TO.P,TH1,1*%
%TO.N,+5V*%
X138900280Y-123499999D03*
%TO.P,TH1,2*%
%TO.N,Net-(U1-TEMP)*%
X140900280Y-123499999D03*
%TD*%
D16*
%TO.P,R12,1*%
%TO.N,Net-(D2-K)*%
X166000000Y-109000000D03*
%TO.P,R12,2*%
%TO.N,Net-(U5-PD6{slash}PA1)*%
X164000000Y-109000000D03*
%TD*%
D34*
%TO.P,C6,1*%
%TO.N,+3.3V*%
X149537500Y-100500000D03*
%TO.P,C6,2*%
%TO.N,GND*%
X147462500Y-100500000D03*
%TD*%
D36*
%TO.P,J1,A5,CC1*%
%TO.N,Net-(J1-CC1)*%
X153020000Y-127500000D03*
D37*
%TO.P,J1,A9,VBUS*%
%TO.N,Net-(F1-Pad1)*%
X155040000Y-127500000D03*
D38*
%TO.P,J1,A12,GND*%
%TO.N,GND*%
X156270000Y-127500000D03*
D39*
%TO.P,J1,B5,CC2*%
%TO.N,Net-(J1-CC2)*%
X154020000Y-127500000D03*
D40*
%TO.P,J1,B9,VBUS*%
%TO.N,Net-(F1-Pad1)*%
X152000000Y-127500000D03*
D41*
%TO.P,J1,B12,GND*%
%TO.N,GND*%
X150770000Y-127500000D03*
D42*
%TO.P,J1,S1,SHIELD*%
X149200000Y-127580000D03*
X149200000Y-131380000D03*
X157840000Y-127580000D03*
X157840000Y-131380000D03*
%TD*%
D43*
%TO.P,J2,1,Pin_1*%
%TO.N,Vbat+*%
X152000000Y-124950000D03*
D44*
%TO.P,J2,2,Pin_2*%
%TO.N,Net-(J2-Pin_2)*%
X154000000Y-124950000D03*
%TD*%
D45*
%TO.P,U4,1,SCL/VZ*%
%TO.N,SCL*%
X153000000Y-77500000D03*
D46*
%TO.P,U4,2,SDA/PWM*%
%TO.N,SDA*%
X155540000Y-80040000D03*
%TO.P,U4,3,VDD*%
%TO.N,+3.3V*%
X153000000Y-82580000D03*
%TO.P,U4,4,VSS*%
%TO.N,GND*%
X150460000Y-80040000D03*
%TD*%
D47*
%TO.N,GND*%
X146500000Y-105000000D03*
X160500000Y-125738320D03*
X165500000Y-124500000D03*
X146000000Y-100500000D03*
X139520858Y-129479142D03*
X166000000Y-119500000D03*
X165000000Y-107000000D03*
X164500000Y-116500000D03*
X159000000Y-108500000D03*
X164500000Y-115000000D03*
X141799681Y-122532534D03*
X163000000Y-126000000D03*
X166000000Y-101000000D03*
X149000000Y-114900000D03*
X153000000Y-118874000D03*
X139900000Y-122514192D03*
X151000000Y-120500000D03*
X147000000Y-125000000D03*
%TO.N,+5V*%
X157500000Y-115412500D03*
X157500000Y-116712500D03*
X139900000Y-125000000D03*
X141100000Y-125000000D03*
%TO.N,Vbat+*%
X149500000Y-126000000D03*
%TO.N,CHRG*%
X146005002Y-127195000D03*
X141000000Y-114500000D03*
X143702581Y-121702581D03*
X140000000Y-115500000D03*
%TD*%
D48*
%TO.N,Vbat+*%
X161623660Y-117937500D02*
X159400000Y-117937500D01*
X161000000Y-113000000D02*
X162351000Y-114351000D01*
X162351000Y-114351000D02*
X162351000Y-117210160D01*
X162351000Y-117210160D02*
X161623660Y-117937500D01*
D49*
%TO.N,+3.3V*%
X138285792Y-97453687D02*
X138285792Y-109000000D01*
X138989412Y-96750067D02*
X138285792Y-97453687D01*
X143249933Y-96750067D02*
X138989412Y-96750067D01*
X153000000Y-82580000D02*
X153000000Y-87000000D01*
X153000000Y-87000000D02*
X143249933Y-96750067D01*
D48*
X141000000Y-104500000D02*
X138285792Y-107214208D01*
X145095000Y-104500000D02*
X141000000Y-104500000D01*
X147000000Y-102595000D02*
X145095000Y-104500000D01*
X138285792Y-107214208D02*
X138285792Y-109000000D01*
D49*
X138285792Y-109000000D02*
X138285792Y-112785792D01*
X138285792Y-112785792D02*
X139000000Y-113500000D01*
%TO.N,SDA*%
X139449000Y-98245163D02*
X139794130Y-97900033D01*
X145099967Y-97900033D02*
X155540000Y-87460000D01*
X155540000Y-87460000D02*
X155540000Y-80040000D01*
X139449000Y-99456903D02*
X139449000Y-98245163D01*
X141434448Y-99802033D02*
X139794130Y-99802033D01*
X139794130Y-97900033D02*
X145099967Y-97900033D01*
X142500000Y-100867585D02*
X141434448Y-99802033D01*
X139794130Y-99802033D02*
X139449000Y-99456903D01*
D48*
%TO.N,GND*%
X164500000Y-113900000D02*
X164500000Y-114500000D01*
X165825000Y-120095000D02*
X165825000Y-121365000D01*
X166000000Y-102500000D02*
X166000000Y-101000000D01*
D49*
X141825000Y-128935000D02*
X143665000Y-128935000D01*
X143665000Y-128935000D02*
X144300000Y-128300000D01*
D48*
X165825000Y-121365000D02*
X165825000Y-122635000D01*
X142628994Y-123361847D02*
X142628994Y-123494993D01*
X139500000Y-129458284D02*
X139520858Y-129479142D01*
X160000000Y-108500000D02*
X159000000Y-108500000D01*
X165825000Y-124175000D02*
X165825000Y-123905000D01*
X165825000Y-122635000D02*
X165825000Y-123905000D01*
X146496296Y-124250000D02*
X146496296Y-124496296D01*
X151962500Y-120500000D02*
X151000000Y-120500000D01*
X150750000Y-127620000D02*
X149260000Y-127620000D01*
X164500000Y-114500000D02*
X164500000Y-115000000D01*
X166000000Y-119500000D02*
X166000000Y-119920000D01*
X147462500Y-100500000D02*
X146000000Y-100500000D01*
X160500000Y-125738320D02*
X160500000Y-127000000D01*
X139059661Y-121673853D02*
X139000000Y-121673853D01*
X156330000Y-127700000D02*
X156250000Y-127620000D01*
X157820000Y-127700000D02*
X156330000Y-127700000D01*
X163000000Y-127000000D02*
X163000000Y-126000000D01*
X141799681Y-122532534D02*
X142628994Y-123361847D01*
D49*
X164037500Y-107000000D02*
X165000000Y-107000000D01*
D48*
X139500000Y-128720654D02*
X139500000Y-129458284D01*
X166000000Y-119920000D02*
X165825000Y-120095000D01*
X164500000Y-116500000D02*
X163537500Y-116500000D01*
X165500000Y-124500000D02*
X165825000Y-124175000D01*
X139000000Y-121673853D02*
X138886163Y-121560016D01*
D49*
X153000000Y-118028530D02*
X153000000Y-118874000D01*
D48*
X149260000Y-127620000D02*
X149180000Y-127700000D01*
X146496296Y-124496296D02*
X147000000Y-125000000D01*
X149000000Y-114000000D02*
X149000000Y-114900000D01*
X139900000Y-122514192D02*
X139059661Y-121673853D01*
%TO.N,+5V*%
X144746296Y-123500000D02*
X144537500Y-123500000D01*
D49*
X152000000Y-113000000D02*
X149000000Y-116000000D01*
D48*
X148615096Y-121750000D02*
X148658445Y-121706651D01*
X147500000Y-111500000D02*
X147500000Y-114500000D01*
D49*
X153600000Y-113000000D02*
X152000000Y-113000000D01*
D48*
X143037500Y-125000000D02*
X141100000Y-125000000D01*
X144537500Y-123500000D02*
X144537500Y-124157500D01*
D49*
X157000000Y-111500000D02*
X155100000Y-111500000D01*
X158000000Y-112500000D02*
X157000000Y-111500000D01*
X155100000Y-111500000D02*
X153600000Y-113000000D01*
D48*
X138500000Y-123600000D02*
X139900000Y-125000000D01*
D49*
X157500000Y-115000000D02*
X158000000Y-114500000D01*
D48*
X144537500Y-123500000D02*
X143037500Y-125000000D01*
X139398186Y-130205000D02*
X141825000Y-130205000D01*
X138500000Y-124500000D02*
X138500000Y-123900279D01*
X144537500Y-124157500D02*
X146775000Y-126395000D01*
X138500000Y-123900279D02*
X138900280Y-123499999D01*
D49*
X158000000Y-114500000D02*
X158000000Y-112500000D01*
D48*
X138500000Y-123500000D02*
X138500000Y-123600000D01*
X146040000Y-110040000D02*
X147500000Y-111500000D01*
X157500000Y-117937500D02*
X157500000Y-116712500D01*
X157500000Y-117937500D02*
X157500000Y-117000000D01*
X149000000Y-116000000D02*
X149500000Y-116000000D01*
X138500000Y-124500000D02*
X138500000Y-129306814D01*
X146496296Y-121750000D02*
X144746296Y-123500000D01*
X147500000Y-114500000D02*
X149000000Y-116000000D01*
X146040000Y-109500000D02*
X146040000Y-110040000D01*
X146496296Y-121750000D02*
X148615096Y-121750000D01*
X138500000Y-123500000D02*
X138500000Y-124500000D01*
X138500000Y-129306814D02*
X139398186Y-130205000D01*
D49*
X157500000Y-115412500D02*
X157500000Y-115000000D01*
D48*
%TO.N,Net-(D1-K)*%
X161462500Y-116500000D02*
X158887500Y-116500000D01*
D49*
X153598999Y-117015030D02*
X152401001Y-117015030D01*
X153950000Y-117366031D02*
X153598999Y-117015030D01*
X156400000Y-113000000D02*
X156400000Y-115578530D01*
X156400000Y-115578530D02*
X153950000Y-118028530D01*
D48*
X158887500Y-116500000D02*
X158450000Y-116062500D01*
D49*
X153950000Y-118028530D02*
X153950000Y-117366031D01*
X152050000Y-117366031D02*
X152050000Y-118028530D01*
X153950000Y-118028530D02*
X155916030Y-116062500D01*
X155916030Y-116062500D02*
X158450000Y-116062500D01*
X152401001Y-117015030D02*
X152050000Y-117366031D01*
%TO.N,+3.3V*%
X152050000Y-115753530D02*
X149775000Y-118028530D01*
X154037500Y-120500000D02*
X153705346Y-120500000D01*
X141253077Y-115753077D02*
X139500000Y-114000000D01*
X149775000Y-118028530D02*
X147202752Y-118028530D01*
X142500000Y-98500000D02*
X146595000Y-102595000D01*
X147000000Y-102595000D02*
X148125000Y-102595000D01*
X146595000Y-102595000D02*
X147000000Y-102595000D01*
X146125222Y-116951000D02*
X144927299Y-115753077D01*
X147202752Y-118028530D02*
X146125222Y-116951000D01*
X142500000Y-98500000D02*
X140500000Y-98500000D01*
D48*
X148648222Y-119474000D02*
X144927299Y-115753077D01*
X139500000Y-114000000D02*
X139000000Y-113500000D01*
X148125000Y-102595000D02*
X149537500Y-101182500D01*
X160400000Y-100500000D02*
X149537500Y-100500000D01*
D49*
X144927299Y-115753077D02*
X141253077Y-115753077D01*
X152629346Y-119424000D02*
X148598222Y-119424000D01*
D48*
X153011500Y-119474000D02*
X148648222Y-119474000D01*
D49*
X153705346Y-120500000D02*
X152629346Y-119424000D01*
D48*
X147928032Y-102595000D02*
X148125000Y-102595000D01*
X154037500Y-120500000D02*
X153011500Y-119474000D01*
X153950000Y-120412500D02*
X154037500Y-120500000D01*
D49*
X148598222Y-119424000D02*
X146125222Y-116951000D01*
X151500000Y-81080000D02*
X151500000Y-72270000D01*
D48*
X149537500Y-101182500D02*
X149537500Y-100500000D01*
D49*
X153000000Y-82580000D02*
X151500000Y-81080000D01*
D48*
X163400000Y-103500000D02*
X160400000Y-100500000D01*
X151500000Y-72270000D02*
X151230000Y-72000000D01*
%TO.N,Net-(U3-VDD)*%
X155474000Y-122464840D02*
X155789840Y-122149000D01*
X159365000Y-121365000D02*
X160875000Y-121365000D01*
X158925000Y-120925000D02*
X159365000Y-121365000D01*
X155000000Y-123000000D02*
X155474000Y-122526000D01*
X156000000Y-122000000D02*
X157425000Y-122000000D01*
X155789840Y-122149000D02*
X155851000Y-122149000D01*
X158500000Y-120925000D02*
X158925000Y-120925000D01*
X157425000Y-122000000D02*
X157925000Y-121500000D01*
X155474000Y-122526000D02*
X155474000Y-122464840D01*
X155851000Y-122149000D02*
X156000000Y-122000000D01*
X154000000Y-123000000D02*
X155000000Y-123000000D01*
X154000000Y-123500000D02*
X154000000Y-123000000D01*
%TO.N,Net-(F1-Pad1)*%
X154426142Y-126426142D02*
X152573858Y-126426142D01*
X155020000Y-127020000D02*
X154426142Y-126426142D01*
X155020000Y-127620000D02*
X155020000Y-127020000D01*
X149868625Y-124806651D02*
X148658445Y-124806651D01*
X151980000Y-126918026D02*
X149868625Y-124806651D01*
X152573858Y-126426142D02*
X151980000Y-127020000D01*
X151980000Y-127020000D02*
X151980000Y-127620000D01*
X151980000Y-127620000D02*
X151980000Y-126918026D01*
%TO.N,Net-(J1-CC2)*%
X154951358Y-128851000D02*
X154000000Y-127899642D01*
X163000000Y-129000000D02*
X162099000Y-128099000D01*
X162099000Y-128099000D02*
X159401000Y-128099000D01*
X159401000Y-128099000D02*
X158649000Y-128851000D01*
X154000000Y-127899642D02*
X154000000Y-127620000D01*
X158649000Y-128851000D02*
X154951358Y-128851000D01*
%TO.N,Net-(J1-CC1)*%
X160000000Y-129500000D02*
X160500000Y-129000000D01*
X154280000Y-129500000D02*
X160000000Y-129500000D01*
X153000000Y-128220000D02*
X154280000Y-129500000D01*
X153000000Y-127620000D02*
X153000000Y-128220000D01*
%TO.N,Net-(J2-Pin_2)*%
X163350000Y-120650000D02*
X163350000Y-122000000D01*
X162715000Y-122635000D02*
X163350000Y-122000000D01*
X156500000Y-123037500D02*
X158462500Y-123037500D01*
X154000000Y-125500000D02*
X154037500Y-125500000D01*
X158462500Y-123037500D02*
X158500000Y-123000000D01*
X154037500Y-125500000D02*
X156500000Y-123037500D01*
X162780000Y-122000000D02*
X163350000Y-122000000D01*
X160510000Y-123000000D02*
X160875000Y-122635000D01*
X160875000Y-122635000D02*
X162715000Y-122635000D01*
X160875000Y-122635000D02*
X160875000Y-123905000D01*
X158500000Y-123000000D02*
X160510000Y-123000000D01*
X160875000Y-120095000D02*
X162795000Y-120095000D01*
X162795000Y-120095000D02*
X163350000Y-120650000D01*
%TO.N,Net-(D2-K)*%
X164400000Y-111000000D02*
X164500000Y-111100000D01*
X164500000Y-111100000D02*
X164500000Y-111000000D01*
X164500000Y-111000000D02*
X166000000Y-109500000D01*
X161000000Y-111000000D02*
X164400000Y-111000000D01*
X166000000Y-109500000D02*
X166000000Y-108500000D01*
D49*
%TO.N,SDA*%
X142875000Y-102595000D02*
X142500000Y-102220000D01*
X142500000Y-102220000D02*
X142500000Y-100500000D01*
X155540000Y-80040000D02*
X155540000Y-72770000D01*
X155540000Y-72770000D02*
X156310000Y-72000000D01*
D48*
%TO.N,Net-(U1-PROG)*%
X140444346Y-127665000D02*
X141825000Y-127665000D01*
X139500000Y-126720654D02*
X140444346Y-127665000D01*
%TO.N,Net-(U1-TEMP)*%
X140500000Y-123500000D02*
X140500000Y-121500000D01*
X140500000Y-125745000D02*
X141025000Y-126270000D01*
X140500000Y-123500000D02*
X140500000Y-125745000D01*
%TO.N,Vbat+*%
X152000000Y-123000000D02*
X153015809Y-121984191D01*
X148329000Y-126525018D02*
X148854018Y-126000000D01*
X148329000Y-129625999D02*
X148329000Y-126525018D01*
X156037500Y-120962500D02*
X156500000Y-120962500D01*
X152000000Y-123500000D02*
X152000000Y-123000000D01*
X146980000Y-130000000D02*
X146775000Y-130205000D01*
X147749999Y-130205000D02*
X148329000Y-129625999D01*
X152000000Y-125500000D02*
X152000000Y-123000000D01*
X153015809Y-121984191D02*
X155015809Y-121984191D01*
X146775000Y-130205000D02*
X147749999Y-130205000D01*
X148854018Y-126000000D02*
X149500000Y-126000000D01*
X156500000Y-120837500D02*
X159400000Y-117937500D01*
X155015809Y-121984191D02*
X156037500Y-120962500D01*
D49*
%TO.N,SCL*%
X153000000Y-77500000D02*
X154000000Y-76500000D01*
D48*
X154000000Y-72230000D02*
X153770000Y-72000000D01*
X141935000Y-103865000D02*
X142875000Y-103865000D01*
D49*
X154000000Y-76500000D02*
X154000000Y-72230000D01*
D48*
%TO.N,Net-(U5-PA2)*%
X147665000Y-103865000D02*
X148125000Y-103865000D01*
X165500000Y-105000000D02*
X166000000Y-104500000D01*
X160000000Y-103500000D02*
X159635000Y-103865000D01*
X160000000Y-103500000D02*
X161500000Y-105000000D01*
X161500000Y-105000000D02*
X165500000Y-105000000D01*
X159635000Y-103865000D02*
X148125000Y-103865000D01*
D49*
%TO.N,CHRG*%
X142050001Y-105135000D02*
X142875000Y-105135000D01*
X143702581Y-121702581D02*
X139500000Y-117500000D01*
D48*
X141699000Y-107150000D02*
X141699000Y-105486001D01*
X142161000Y-113339000D02*
X142161000Y-107612000D01*
D49*
X146475002Y-127665000D02*
X146005002Y-127195000D01*
D48*
X142365000Y-105135000D02*
X142875000Y-105135000D01*
X142161000Y-107612000D02*
X141699000Y-107150000D01*
X141699000Y-105486001D02*
X142050001Y-105135000D01*
X141000000Y-114500000D02*
X142161000Y-113339000D01*
D49*
X139500000Y-117500000D02*
X139500000Y-116000000D01*
X139500000Y-116000000D02*
X140000000Y-115500000D01*
X146775000Y-127665000D02*
X146475002Y-127665000D01*
D48*
%TO.N,SWIO*%
X148000000Y-111000000D02*
X149000000Y-112000000D01*
X143500000Y-107030000D02*
X143500000Y-109500000D01*
X145000000Y-108000000D02*
X146842000Y-108000000D01*
X146842000Y-108000000D02*
X148000000Y-109158000D01*
X142875000Y-106405000D02*
X143500000Y-107030000D01*
X143500000Y-110000000D02*
X144927299Y-111427299D01*
X143500000Y-109500000D02*
X145000000Y-108000000D01*
X143500000Y-109500000D02*
X143500000Y-110000000D01*
X148000000Y-109158000D02*
X148000000Y-111000000D01*
X144927299Y-111427299D02*
X144927299Y-113753077D01*
D49*
%TO.N,Net-(U5-PD6{slash}PA1)*%
X161962500Y-107000000D02*
X161962500Y-108962500D01*
D48*
X162000000Y-108500000D02*
X164000000Y-108500000D01*
X159905000Y-106405000D02*
X148125000Y-106405000D01*
X162000000Y-108500000D02*
X159905000Y-106405000D01*
D49*
X161962500Y-108962500D02*
X162000000Y-109000000D01*
D48*
%TO.N,Net-(SW1-A)*%
X149000000Y-110000000D02*
X151000000Y-110000000D01*
X151000000Y-110000000D02*
X152000000Y-109000000D01*
D49*
%TO.N,SCL*%
X140500000Y-102314999D02*
X142050001Y-103865000D01*
X140500000Y-100500000D02*
X140500000Y-102314999D01*
X139213068Y-100500000D02*
X140500000Y-100500000D01*
X138948000Y-100234932D02*
X139213068Y-100500000D01*
X139234542Y-97251067D02*
X138985609Y-97500000D01*
X142050001Y-103865000D02*
X142875000Y-103865000D01*
X138985609Y-97500000D02*
X138948000Y-97500000D01*
X144248933Y-97251067D02*
X139234542Y-97251067D01*
X138948000Y-97500000D02*
X138948000Y-100234932D01*
X154000000Y-87500000D02*
X144248933Y-97251067D01*
X154000000Y-86500000D02*
X154000000Y-78500000D01*
X154000000Y-78500000D02*
X153000000Y-77500000D01*
X154000000Y-86500000D02*
X154000000Y-87500000D01*
D48*
%TO.N,GND*%
X148125000Y-105135000D02*
X146635000Y-105135000D01*
X146635000Y-105135000D02*
X146500000Y-105000000D01*
%TO.N,+5V*%
X155000000Y-120437500D02*
X157500000Y-117937500D01*
X155000000Y-121174999D02*
X155000000Y-120437500D01*
X154674999Y-121500000D02*
X155000000Y-121174999D01*
X154636160Y-121500000D02*
X154674999Y-121500000D01*
X154610160Y-121526000D02*
X154636160Y-121500000D01*
X153438840Y-121500000D02*
X153464840Y-121526000D01*
X152535160Y-121526000D02*
X152561160Y-121500000D01*
X151389840Y-121526000D02*
X152535160Y-121526000D01*
X151363840Y-121500000D02*
X151389840Y-121526000D01*
X148865096Y-121500000D02*
X151363840Y-121500000D01*
X152561160Y-121500000D02*
X153438840Y-121500000D01*
X148658445Y-121706651D02*
X148865096Y-121500000D01*
X153464840Y-121526000D02*
X154610160Y-121526000D01*
%TD*%
M02*
