M48
; DRILL file {KiCad 9.0.2} date 2026-07-04T14:36:20-0300
; FORMAT={-:-/ absolute / metric / decimal}
; #@! TF.CreationDate,2026-07-04T14:36:20-03:00
; #@! TF.GenerationSoftware,Kicad,Pcbnew,9.0.2
; #@! TF.FileFunction,Plated,1,2,PTH
FMAT,2
METRIC
; #@! TA.AperFunction,Plated,PTH,ViaDrill
T1C0.300
; #@! TA.AperFunction,Plated,PTH,ComponentDrill
T2C0.300
; #@! TA.AperFunction,Plated,PTH,ComponentDrill
T3C0.600
; #@! TA.AperFunction,Plated,PTH,ComponentDrill
T4C0.690
; #@! TA.AperFunction,Plated,PTH,ComponentDrill
T5C0.750
; #@! TA.AperFunction,Plated,PTH,ComponentDrill
T6C0.800
; #@! TA.AperFunction,Plated,PTH,ComponentDrill
T7C1.000
; #@! TA.AperFunction,Plated,PTH,ComponentDrill
T8C1.100
; #@! TA.AperFunction,Plated,PTH,ComponentDrill
T9C2.000
%
G90
G05
T1
X139.521Y-129.479
X139.9Y-122.514
X139.9Y-125.0
X140.0Y-115.5
X141.0Y-114.5
X141.1Y-125.0
X141.8Y-122.533
X143.703Y-121.703
X146.0Y-100.5
X146.005Y-127.195
X146.5Y-105.0
X147.0Y-125.0
X149.0Y-114.9
X149.5Y-126.0
X151.0Y-120.5
X153.0Y-118.874
X157.5Y-115.412
X157.5Y-116.712
X159.0Y-108.5
X160.5Y-125.738
X163.0Y-126.0
X164.5Y-115.0
X164.5Y-116.5
X165.0Y-107.0
X165.5Y-124.5
X166.0Y-101.0
X166.0Y-119.5
T2
X143.6Y-127.1
X143.6Y-128.3
X143.6Y-129.5
X145.0Y-127.1
X145.0Y-128.3
X145.0Y-129.5
X162.7Y-121.0
X162.7Y-122.0
X162.7Y-123.0
X164.0Y-121.0
X164.0Y-122.0
X164.0Y-123.0
T4
X150.46Y-80.04
X153.0Y-77.5
X153.0Y-82.58
X155.54Y-80.04
T5
X152.0Y-124.95
X154.0Y-124.95
T6
X160.0Y-103.5
X163.4Y-103.5
T7
X140.96Y-109.5
X143.5Y-109.5
X146.04Y-109.5
X148.69Y-72.0
X151.23Y-72.0
X153.77Y-72.0
X156.31Y-72.0
T8
X152.0Y-102.5
X152.0Y-109.0
X156.5Y-102.5
X156.5Y-109.0
T9
X141.5Y-72.5
X141.5Y-94.5
X163.5Y-72.5
X163.5Y-94.5
T3
G00X149.2Y-127.28
M15
G01X149.2Y-127.88
M16
G05
G00X149.2Y-131.08
M15
G01X149.2Y-131.68
M16
G05
G00X157.84Y-127.28
M15
G01X157.84Y-127.88
M16
G05
G00X157.84Y-131.08
M15
G01X157.84Y-131.68
M16
G05
M30
