%TF.GenerationSoftware,KiCad,Pcbnew,9.0.2*%
%TF.CreationDate,2026-07-04T15:21:04-03:00*%
%TF.ProjectId,IR_Termostat,49525f54-6572-46d6-9f73-7461742e6b69,rev?*%
%TF.SameCoordinates,Original*%
%TF.FileFunction,Copper,L2,Bot*%
%TF.FilePolarity,Positive*%
%FSLAX46Y46*%
G04 Gerber Fmt 4.6, Leading zero omitted, Abs format (unit mm)*
G04 Created by KiCad (PCBNEW 9.0.2) date 2026-07-04 15:21:04*
%MOMM*%
%LPD*%
G01*
G04 APERTURE LIST*
G04 Aperture macros list*
%AMRoundRect*
0 Rectangle with rounded corners*
0 $1 Rounding radius*
0 $2 $3 $4 $5 $6 $7 $8 $9 X,Y pos of 4 corners*
0 Add a 4 corners polygon primitive as box body*
4,1,4,$2,$3,$4,$5,$6,$7,$8,$9,$2,$3,0*
0 Add four circle primitives for the rounded corners*
1,1,$1+$1,$2,$3*
1,1,$1+$1,$4,$5*
1,1,$1+$1,$6,$7*
1,1,$1+$1,$8,$9*
0 Add four rect primitives between the rounded corners*
20,1,$1+$1,$2,$3,$4,$5,0*
20,1,$1+$1,$4,$5,$6,$7,0*
20,1,$1+$1,$6,$7,$8,$9,0*
20,1,$1+$1,$8,$9,$2,$3,0*%
G04 Aperture macros list end*
%TA.AperFunction,ComponentPad*%
%ADD10C,1.500000*%
%TD*%
%TA.AperFunction,HeatsinkPad*%
%ADD11C,0.600000*%
%TD*%
%TA.AperFunction,HeatsinkPad*%
%ADD12R,1.900000X2.900000*%
%TD*%
%TA.AperFunction,ComponentPad*%
%ADD13C,2.000000*%
%TD*%
%TA.AperFunction,HeatsinkPad*%
%ADD14R,1.800000X2.500000*%
%TD*%
%TA.AperFunction,ComponentPad*%
%ADD15R,1.700000X1.700000*%
%TD*%
%TA.AperFunction,ComponentPad*%
%ADD16C,1.700000*%
%TD*%
%TA.AperFunction,ComponentPad*%
%ADD17R,1.508000X1.508000*%
%TD*%
%TA.AperFunction,ComponentPad*%
%ADD18C,1.508000*%
%TD*%
%TA.AperFunction,ComponentPad*%
%ADD19C,3.000000*%
%TD*%
%TA.AperFunction,HeatsinkPad*%
%ADD20O,1.100000X1.700000*%
%TD*%
%TA.AperFunction,SMDPad,CuDef*%
%ADD21RoundRect,0.250000X0.337500X0.475000X-0.337500X0.475000X-0.337500X-0.475000X0.337500X-0.475000X0*%
%TD*%
%TA.AperFunction,ComponentPad*%
%ADD22RoundRect,0.250000X-0.350000X-0.625000X0.350000X-0.625000X0.350000X0.625000X-0.350000X0.625000X0*%
%TD*%
%TA.AperFunction,ComponentPad*%
%ADD23O,1.200000X1.750000*%
%TD*%
%TA.AperFunction,ComponentPad*%
%ADD24R,1.090000X1.090000*%
%TD*%
%TA.AperFunction,ComponentPad*%
%ADD25C,1.090000*%
%TD*%
%TA.AperFunction,ViaPad*%
%ADD26C,0.600000*%
%TD*%
%TA.AperFunction,Conductor*%
%ADD27C,0.200000*%
%TD*%
%TA.AperFunction,Conductor*%
%ADD28C,0.300000*%
%TD*%
G04 APERTURE END LIST*
D10*
%TO.P,LDR1,2*%
%TO.N,Net-(U5-PA2)*%
X160000000Y-103500000D03*
%TO.P,LDR1,1*%
%TO.N,+3.3V*%
X163400000Y-103500000D03*
%TD*%
D11*
%TO.P,U1,9,EPAD*%
%TO.N,GND*%
X143600000Y-127100000D03*
X143600000Y-128300000D03*
X143600000Y-129500000D03*
D12*
X144300000Y-128300000D03*
D11*
X145000000Y-127100000D03*
X145000000Y-128300000D03*
X145000000Y-129500000D03*
%TD*%
D13*
%TO.P,SW1,1,A*%
%TO.N,Net-(SW1-A)*%
X152000000Y-109000000D03*
X152000000Y-102500000D03*
%TO.P,SW1,2,B*%
%TO.N,GND*%
X156500000Y-109000000D03*
X156500000Y-102500000D03*
%TD*%
D11*
%TO.P,U3,9,EPAD*%
%TO.N,Net-(J2-Pin_2)*%
X164000000Y-123000000D03*
X164000000Y-122000000D03*
X164000000Y-121000000D03*
D14*
X163350000Y-122000000D03*
D11*
X162700000Y-123000000D03*
X162700000Y-122000000D03*
X162700000Y-121000000D03*
%TD*%
D15*
%TO.P,J3,1,Pin_1*%
%TO.N,+5V*%
X146040000Y-109500000D03*
D16*
%TO.P,J3,2,Pin_2*%
%TO.N,SWIO*%
X143500000Y-109500000D03*
%TO.P,J3,3,Pin_3*%
%TO.N,GND*%
X140960000Y-109500000D03*
%TD*%
D17*
%TO.P,DISPLAY_1,1,GND*%
%TO.N,GND*%
X148690000Y-72000000D03*
D18*
%TO.P,DISPLAY_1,2,VCC_IN*%
%TO.N,+3.3V*%
X151230000Y-72000000D03*
%TO.P,DISPLAY_1,3,SCL*%
%TO.N,SCL*%
X153770000Y-72000000D03*
%TO.P,DISPLAY_1,4,SDA*%
%TO.N,SDA*%
X156310000Y-72000000D03*
D19*
%TO.P,DISPLAY_1,S1*%
%TO.N,N/C*%
X141500000Y-72500000D03*
%TO.P,DISPLAY_1,S2*%
X163500000Y-72500000D03*
%TO.P,DISPLAY_1,S3*%
X163500000Y-94500000D03*
%TO.P,DISPLAY_1,S4*%
X141500000Y-94500000D03*
%TD*%
D20*
%TO.P,J1,S1,SHIELD*%
%TO.N,GND*%
X149200000Y-127580000D03*
X149200000Y-131380000D03*
X157840000Y-127580000D03*
X157840000Y-131380000D03*
%TD*%
D21*
%TO.P,C7,1*%
%TO.N,+3.3V*%
X152537500Y-86000000D03*
%TO.P,C7,2*%
%TO.N,GND*%
X150462500Y-86000000D03*
%TD*%
D22*
%TO.P,J2,1,Pin_1*%
%TO.N,Vbat+*%
X152000000Y-124950000D03*
D23*
%TO.P,J2,2,Pin_2*%
%TO.N,Net-(J2-Pin_2)*%
X154000000Y-124950000D03*
%TD*%
D21*
%TO.P,C8,1*%
%TO.N,+3.3V*%
X151075000Y-74000000D03*
%TO.P,C8,2*%
%TO.N,GND*%
X149000000Y-74000000D03*
%TD*%
D24*
%TO.P,U4,1,SCL/VZ*%
%TO.N,SCL*%
X153000000Y-77500000D03*
D25*
%TO.P,U4,2,SDA/PWM*%
%TO.N,SDA*%
X155540000Y-80040000D03*
%TO.P,U4,3,VDD*%
%TO.N,+3.3V*%
X153000000Y-82580000D03*
%TO.P,U4,4,VSS*%
%TO.N,GND*%
X150460000Y-80040000D03*
%TD*%
D26*
%TO.N,GND*%
X146500000Y-105000000D03*
X160500000Y-125738320D03*
X165500000Y-124500000D03*
X146000000Y-100500000D03*
X139520858Y-129479142D03*
X166000000Y-119500000D03*
X165000000Y-107000000D03*
X164500000Y-116500000D03*
X159000000Y-108500000D03*
X164500000Y-115000000D03*
X141799681Y-122532534D03*
X163000000Y-126000000D03*
X166000000Y-101000000D03*
X149000000Y-114900000D03*
X153000000Y-118874000D03*
X139900000Y-122514192D03*
X151000000Y-120500000D03*
X147000000Y-125000000D03*
%TO.N,+5V*%
X157500000Y-115412500D03*
X157500000Y-116712500D03*
X139900000Y-125000000D03*
X141100000Y-125000000D03*
%TO.N,Vbat+*%
X149500000Y-126000000D03*
%TO.N,CHRG*%
X146005002Y-127195000D03*
X141000000Y-114500000D03*
X143702581Y-121702581D03*
X140000000Y-115500000D03*
%TD*%
D27*
%TO.N,GND*%
X158000000Y-101000000D02*
X156500000Y-102500000D01*
X151000000Y-120500000D02*
X149000000Y-118500000D01*
X147000000Y-125520000D02*
X149180000Y-127700000D01*
D28*
X165000000Y-107000000D02*
X160500000Y-107000000D01*
D27*
X164500000Y-115000000D02*
X164500000Y-116500000D01*
X141781339Y-122514192D02*
X139900000Y-122514192D01*
X158538320Y-127700000D02*
X157820000Y-127700000D01*
X149000000Y-72310000D02*
X148690000Y-72000000D01*
X157500000Y-108000000D02*
X156500000Y-109000000D01*
X164500000Y-125500000D02*
X163500000Y-125500000D01*
D28*
X160500000Y-107000000D02*
X159000000Y-108500000D01*
D27*
X149000000Y-74000000D02*
X149000000Y-75500000D01*
X149000000Y-118500000D02*
X149000000Y-114900000D01*
X139520858Y-129479142D02*
X140700000Y-128300000D01*
X160500000Y-125738320D02*
X160738320Y-125500000D01*
X150460000Y-76960000D02*
X149000000Y-75500000D01*
D28*
X144300000Y-128300000D02*
X147500000Y-131500000D01*
D27*
X160500000Y-125738320D02*
X158538320Y-127700000D01*
X166000000Y-101000000D02*
X158000000Y-101000000D01*
X150460000Y-80040000D02*
X150460000Y-76960000D01*
X162500000Y-125500000D02*
X163000000Y-126000000D01*
X164500000Y-116500000D02*
X166000000Y-118000000D01*
X139000000Y-128958284D02*
X139520858Y-129479142D01*
X139900000Y-122514192D02*
X139000000Y-123414192D01*
X150462500Y-80042500D02*
X150460000Y-80040000D01*
X150462500Y-86000000D02*
X150462500Y-80042500D01*
X158500000Y-108000000D02*
X157500000Y-108000000D01*
X149000000Y-74000000D02*
X149000000Y-72310000D01*
D28*
X147500000Y-131500000D02*
X149180000Y-131500000D01*
D27*
X163500000Y-125500000D02*
X163000000Y-126000000D01*
X156500000Y-109000000D02*
X156500000Y-102500000D01*
X140700000Y-128300000D02*
X144300000Y-128300000D01*
X160738320Y-125500000D02*
X162500000Y-125500000D01*
X147000000Y-125000000D02*
X147000000Y-125520000D01*
X166000000Y-118000000D02*
X166000000Y-119500000D01*
X141799681Y-122532534D02*
X141781339Y-122514192D01*
X139000000Y-123414192D02*
X139000000Y-128958284D01*
D28*
X152626000Y-118874000D02*
X151000000Y-120500000D01*
D27*
X165500000Y-124500000D02*
X164500000Y-125500000D01*
D28*
X153000000Y-118874000D02*
X152626000Y-118874000D01*
D27*
X159000000Y-108500000D02*
X158500000Y-108000000D01*
%TO.N,+5V*%
X157500000Y-116712500D02*
X157500000Y-115412500D01*
X141100000Y-125000000D02*
X139900000Y-125000000D01*
%TO.N,+3.3V*%
X151230000Y-72000000D02*
X151230000Y-73845000D01*
X153000000Y-85537500D02*
X153000000Y-82580000D01*
X151230000Y-73845000D02*
X151075000Y-74000000D01*
X152537500Y-86000000D02*
X153000000Y-85537500D01*
%TO.N,Vbat+*%
X150500000Y-125500000D02*
X152000000Y-125500000D01*
X150000000Y-126000000D02*
X150500000Y-125500000D01*
X149500000Y-126000000D02*
X150000000Y-126000000D01*
D28*
%TO.N,CHRG*%
X140000000Y-115500000D02*
X141000000Y-114500000D01*
X146005002Y-127005002D02*
X146005002Y-127195000D01*
X143702581Y-121702581D02*
X143702581Y-124702581D01*
X143702581Y-124702581D02*
X146005002Y-127005002D01*
D27*
%TO.N,Net-(SW1-A)*%
X152000000Y-102500000D02*
X152000000Y-109000000D01*
%TO.N,GND*%
X146000000Y-100500000D02*
X146000000Y-104500000D01*
X146000000Y-104500000D02*
X146500000Y-105000000D01*
%TD*%
%TA.AperFunction,Conductor*%
%TO.N,GND*%
G36*
X167442539Y-70020185D02*
G01*
X167488294Y-70072989D01*
X167499500Y-70124500D01*
X167499500Y-133375500D01*
X167479815Y-133442539D01*
X167427011Y-133488294D01*
X167375500Y-133499500D01*
X138124500Y-133499500D01*
X138057461Y-133479815D01*
X138011706Y-133427011D01*
X138000500Y-133375500D01*
X138000500Y-130976579D01*
X148150000Y-130976579D01*
X148150000Y-131130000D01*
X148900000Y-131130000D01*
X148900000Y-131630000D01*
X148150000Y-131630000D01*
X148150000Y-131783420D01*
X148190348Y-131986266D01*
X148190350Y-131986274D01*
X148269500Y-132177358D01*
X148269505Y-132177368D01*
X148384410Y-132349335D01*
X148384413Y-132349339D01*
X148530660Y-132495586D01*
X148530664Y-132495589D01*
X148702631Y-132610494D01*
X148702641Y-132610499D01*
X148893723Y-132689648D01*
X148893725Y-132689649D01*
X148950000Y-132700842D01*
X148950000Y-131846988D01*
X148959940Y-131864205D01*
X149015795Y-131920060D01*
X149084204Y-131959556D01*
X149160504Y-131980000D01*
X149239496Y-131980000D01*
X149315796Y-131959556D01*
X149384205Y-131920060D01*
X149440060Y-131864205D01*
X149450000Y-131846988D01*
X149450000Y-132700842D01*
X149506274Y-132689649D01*
X149506276Y-132689648D01*
X149697358Y-132610499D01*
X149697368Y-132610494D01*
X149869335Y-132495589D01*
X149869339Y-132495586D01*
X150015586Y-132349339D01*
X150015589Y-132349335D01*
X150130494Y-132177368D01*
X150130499Y-132177358D01*
X150209649Y-131986274D01*
X150209651Y-131986266D01*
X150249999Y-131783420D01*
X150250000Y-131783417D01*
X150250000Y-131630000D01*
X149500000Y-131630000D01*
X149500000Y-131130000D01*
X150250000Y-131130000D01*
X150250000Y-130976583D01*
X150249999Y-130976579D01*
X156790000Y-130976579D01*
X156790000Y-131130000D01*
X157540000Y-131130000D01*
X157540000Y-131630000D01*
X156790000Y-131630000D01*
X156790000Y-131783420D01*
X156830348Y-131986266D01*
X156830350Y-131986274D01*
X156909500Y-132177358D01*
X156909505Y-132177368D01*
X157024410Y-132349335D01*
X157024413Y-132349339D01*
X157170660Y-132495586D01*
X157170664Y-132495589D01*
X157342631Y-132610494D01*
X157342641Y-132610499D01*
X157533723Y-132689648D01*
X157533725Y-132689649D01*
X157590000Y-132700842D01*
X157590000Y-131846988D01*
X157599940Y-131864205D01*
X157655795Y-131920060D01*
X157724204Y-131959556D01*
X157800504Y-131980000D01*
X157879496Y-131980000D01*
X157955796Y-131959556D01*
X158024205Y-131920060D01*
X158080060Y-131864205D01*
X158090000Y-131846988D01*
X158090000Y-132700842D01*
X158146274Y-132689649D01*
X158146276Y-132689648D01*
X158337358Y-132610499D01*
X158337368Y-132610494D01*
X158509335Y-132495589D01*
X158509339Y-132495586D01*
X158655586Y-132349339D01*
X158655589Y-132349335D01*
X158770494Y-132177368D01*
X158770499Y-132177358D01*
X158849649Y-131986274D01*
X158849651Y-131986266D01*
X158889999Y-131783420D01*
X158890000Y-131783417D01*
X158890000Y-131630000D01*
X158140000Y-131630000D01*
X158140000Y-131130000D01*
X158890000Y-131130000D01*
X158890000Y-130976583D01*
X158889999Y-130976579D01*
X158849651Y-130773733D01*
X158849649Y-130773725D01*
X158770499Y-130582641D01*
X158770494Y-130582631D01*
X158655589Y-130410664D01*
X158655586Y-130410660D01*
X158509339Y-130264413D01*
X158509335Y-130264410D01*
X158337368Y-130149505D01*
X158337358Y-130149500D01*
X158146272Y-130070349D01*
X158146267Y-130070347D01*
X158090000Y-130059155D01*
X158090000Y-130913011D01*
X158080060Y-130895795D01*
X158024205Y-130839940D01*
X157955796Y-130800444D01*
X157879496Y-130780000D01*
X157800504Y-130780000D01*
X157724204Y-130800444D01*
X157655795Y-130839940D01*
X157599940Y-130895795D01*
X157590000Y-130913011D01*
X157590000Y-130059156D01*
X157589999Y-130059155D01*
X157533732Y-130070347D01*
X157533727Y-130070349D01*
X157342641Y-130149500D01*
X157342631Y-130149505D01*
X157170664Y-130264410D01*
X157170660Y-130264413D01*
X157024413Y-130410660D01*
X157024410Y-130410664D01*
X156909505Y-130582631D01*
X156909500Y-130582641D01*
X156830350Y-130773725D01*
X156830348Y-130773733D01*
X156790000Y-130976579D01*
X150249999Y-130976579D01*
X150209651Y-130773733D01*
X150209649Y-130773725D01*
X150130499Y-130582641D01*
X150130494Y-130582631D01*
X150015589Y-130410664D01*
X150015586Y-130410660D01*
X149869339Y-130264413D01*
X149869335Y-130264410D01*
X149697368Y-130149505D01*
X149697358Y-130149500D01*
X149506272Y-130070349D01*
X149506267Y-130070347D01*
X149450000Y-130059155D01*
X149450000Y-130913011D01*
X149440060Y-130895795D01*
X149384205Y-130839940D01*
X149315796Y-130800444D01*
X149239496Y-130780000D01*
X149160504Y-130780000D01*
X149084204Y-130800444D01*
X149015795Y-130839940D01*
X148959940Y-130895795D01*
X148950000Y-130913011D01*
X148950000Y-130059156D01*
X148949999Y-130059155D01*
X148893732Y-130070347D01*
X148893727Y-130070349D01*
X148702641Y-130149500D01*
X148702631Y-130149505D01*
X148530664Y-130264410D01*
X148530660Y-130264413D01*
X148384413Y-130410660D01*
X148384410Y-130410664D01*
X148269505Y-130582631D01*
X148269500Y-130582641D01*
X148190350Y-130773725D01*
X148190348Y-130773733D01*
X148150000Y-130976579D01*
X138000500Y-130976579D01*
X138000500Y-130215845D01*
X143237706Y-130215845D01*
X143366652Y-130269257D01*
X143366656Y-130269258D01*
X143521202Y-130299999D01*
X143521206Y-130300000D01*
X143678794Y-130300000D01*
X143678797Y-130299999D01*
X143833343Y-130269258D01*
X143833347Y-130269257D01*
X143962293Y-130215845D01*
X144637706Y-130215845D01*
X144766652Y-130269257D01*
X144766656Y-130269258D01*
X144921202Y-130299999D01*
X144921206Y-130300000D01*
X145078794Y-130300000D01*
X145078797Y-130299999D01*
X145233343Y-130269258D01*
X145233347Y-130269257D01*
X145362293Y-130215845D01*
X145000001Y-129853553D01*
X145000000Y-129853553D01*
X144637706Y-130215845D01*
X143962293Y-130215845D01*
X143600001Y-129853553D01*
X143600000Y-129853553D01*
X143237706Y-130215845D01*
X138000500Y-130215845D01*
X138000500Y-129421202D01*
X142800000Y-129421202D01*
X142800000Y-129578797D01*
X142830741Y-129733343D01*
X142830743Y-129733351D01*
X142884153Y-129862293D01*
X143246446Y-129500000D01*
X143246446Y-129499999D01*
X143216610Y-129470163D01*
X143450000Y-129470163D01*
X143450000Y-129529837D01*
X143472836Y-129584968D01*
X143515032Y-129627164D01*
X143570163Y-129650000D01*
X143629837Y-129650000D01*
X143684968Y-129627164D01*
X143727164Y-129584968D01*
X143750000Y-129529837D01*
X143750000Y-129500000D01*
X143953553Y-129500000D01*
X144300000Y-129846446D01*
X144300001Y-129846446D01*
X144646446Y-129500001D01*
X144646446Y-129499999D01*
X144616610Y-129470163D01*
X144850000Y-129470163D01*
X144850000Y-129529837D01*
X144872836Y-129584968D01*
X144915032Y-129627164D01*
X144970163Y-129650000D01*
X145029837Y-129650000D01*
X145084968Y-129627164D01*
X145127164Y-129584968D01*
X145150000Y-129529837D01*
X145150000Y-129499999D01*
X145353553Y-129499999D01*
X145353553Y-129500001D01*
X145715845Y-129862293D01*
X145769257Y-129733347D01*
X145769258Y-129733343D01*
X145799999Y-129578797D01*
X145800000Y-129578794D01*
X145800000Y-129421206D01*
X145799999Y-129421202D01*
X145769258Y-129266656D01*
X145769257Y-129266652D01*
X145715845Y-129137706D01*
X145353553Y-129499999D01*
X145150000Y-129499999D01*
X145150000Y-129470163D01*
X145127164Y-129415032D01*
X145084968Y-129372836D01*
X145029837Y-129350000D01*
X144970163Y-129350000D01*
X144915032Y-129372836D01*
X144872836Y-129415032D01*
X144850000Y-129470163D01*
X144616610Y-129470163D01*
X144300001Y-129153553D01*
X144300000Y-129153553D01*
X143953553Y-129500000D01*
X143750000Y-129500000D01*
X143750000Y-129470163D01*
X143727164Y-129415032D01*
X143684968Y-129372836D01*
X143629837Y-129350000D01*
X143570163Y-129350000D01*
X143515032Y-129372836D01*
X143472836Y-129415032D01*
X143450000Y-129470163D01*
X143216610Y-129470163D01*
X142884153Y-129137705D01*
X142830743Y-129266648D01*
X142830741Y-129266656D01*
X142800000Y-129421202D01*
X138000500Y-129421202D01*
X138000500Y-128899999D01*
X143353553Y-128899999D01*
X143600000Y-129146446D01*
X143846446Y-128900001D01*
X143846446Y-128900000D01*
X143846445Y-128899999D01*
X144753553Y-128899999D01*
X145000000Y-129146446D01*
X145246446Y-128900001D01*
X145246446Y-128900000D01*
X145000000Y-128653553D01*
X144753553Y-128899999D01*
X143846445Y-128899999D01*
X143600000Y-128653553D01*
X143353553Y-128899999D01*
X138000500Y-128899999D01*
X138000500Y-128221202D01*
X142800000Y-128221202D01*
X142800000Y-128378797D01*
X142830741Y-128533343D01*
X142830743Y-128533351D01*
X142884153Y-128662293D01*
X143246446Y-128300000D01*
X143246446Y-128299999D01*
X143216610Y-128270163D01*
X143450000Y-128270163D01*
X143450000Y-128329837D01*
X143472836Y-128384968D01*
X143515032Y-128427164D01*
X143570163Y-128450000D01*
X143629837Y-128450000D01*
X143684968Y-128427164D01*
X143727164Y-128384968D01*
X143750000Y-128329837D01*
X143750000Y-128300000D01*
X143953553Y-128300000D01*
X144300000Y-128646446D01*
X144300001Y-128646446D01*
X144646446Y-128300001D01*
X144646446Y-128299999D01*
X144616610Y-128270163D01*
X144850000Y-128270163D01*
X144850000Y-128329837D01*
X144872836Y-128384968D01*
X144915032Y-128427164D01*
X144970163Y-128450000D01*
X145029837Y-128450000D01*
X145084968Y-128427164D01*
X145127164Y-128384968D01*
X145150000Y-128329837D01*
X145150000Y-128270163D01*
X145127164Y-128215032D01*
X145084968Y-128172836D01*
X145029837Y-128150000D01*
X144970163Y-128150000D01*
X144915032Y-128172836D01*
X144872836Y-128215032D01*
X144850000Y-128270163D01*
X144616610Y-128270163D01*
X144300001Y-127953553D01*
X144300000Y-127953553D01*
X143953553Y-128300000D01*
X143750000Y-128300000D01*
X143750000Y-128270163D01*
X143727164Y-128215032D01*
X143684968Y-128172836D01*
X143629837Y-128150000D01*
X143570163Y-128150000D01*
X143515032Y-128172836D01*
X143472836Y-128215032D01*
X143450000Y-128270163D01*
X143216610Y-128270163D01*
X142884153Y-127937705D01*
X142830743Y-128066648D01*
X142830741Y-128066656D01*
X142800000Y-128221202D01*
X138000500Y-128221202D01*
X138000500Y-127699999D01*
X143353553Y-127699999D01*
X143600000Y-127946446D01*
X143846446Y-127700001D01*
X143846446Y-127700000D01*
X143600000Y-127453553D01*
X143353553Y-127699999D01*
X138000500Y-127699999D01*
X138000500Y-127021202D01*
X142800000Y-127021202D01*
X142800000Y-127178797D01*
X142830741Y-127333343D01*
X142830743Y-127333351D01*
X142884153Y-127462293D01*
X143246446Y-127100000D01*
X143246446Y-127099999D01*
X143216610Y-127070163D01*
X143450000Y-127070163D01*
X143450000Y-127129837D01*
X143472836Y-127184968D01*
X143515032Y-127227164D01*
X143570163Y-127250000D01*
X143629837Y-127250000D01*
X143684968Y-127227164D01*
X143727164Y-127184968D01*
X143750000Y-127129837D01*
X143750000Y-127100000D01*
X143953553Y-127100000D01*
X144300000Y-127446446D01*
X144300001Y-127446446D01*
X144646446Y-127100001D01*
X144646446Y-127099999D01*
X144300001Y-126753553D01*
X144300000Y-126753553D01*
X143953553Y-127100000D01*
X143750000Y-127100000D01*
X143750000Y-127070163D01*
X143727164Y-127015032D01*
X143684968Y-126972836D01*
X143629837Y-126950000D01*
X143570163Y-126950000D01*
X143515032Y-126972836D01*
X143472836Y-127015032D01*
X143450000Y-127070163D01*
X143216610Y-127070163D01*
X142884153Y-126737705D01*
X142830743Y-126866648D01*
X142830741Y-126866656D01*
X142800000Y-127021202D01*
X138000500Y-127021202D01*
X138000500Y-126384153D01*
X143237705Y-126384153D01*
X143600000Y-126746446D01*
X143600001Y-126746446D01*
X143962293Y-126384153D01*
X143833351Y-126330743D01*
X143833343Y-126330741D01*
X143678797Y-126300000D01*
X143521202Y-126300000D01*
X143366656Y-126330741D01*
X143366648Y-126330743D01*
X143237705Y-126384153D01*
X138000500Y-126384153D01*
X138000500Y-124921153D01*
X139099500Y-124921153D01*
X139099500Y-125078846D01*
X139130261Y-125233489D01*
X139130264Y-125233501D01*
X139190602Y-125379172D01*
X139190609Y-125379185D01*
X139278210Y-125510288D01*
X139278213Y-125510292D01*
X139389707Y-125621786D01*
X139389711Y-125621789D01*
X139520814Y-125709390D01*
X139520827Y-125709397D01*
X139658683Y-125766498D01*
X139666503Y-125769737D01*
X139821153Y-125800499D01*
X139821156Y-125800500D01*
X139821158Y-125800500D01*
X139978844Y-125800500D01*
X139978845Y-125800499D01*
X140133497Y-125769737D01*
X140279179Y-125709394D01*
X140279185Y-125709390D01*
X140410875Y-125621398D01*
X140428921Y-125615747D01*
X140444831Y-125605523D01*
X140475792Y-125601071D01*
X140477553Y-125600520D01*
X140479766Y-125600500D01*
X140520234Y-125600500D01*
X140587273Y-125620185D01*
X140589125Y-125621398D01*
X140720814Y-125709390D01*
X140720827Y-125709397D01*
X140858683Y-125766498D01*
X140866503Y-125769737D01*
X141021153Y-125800499D01*
X141021156Y-125800500D01*
X141021158Y-125800500D01*
X141178844Y-125800500D01*
X141178845Y-125800499D01*
X141333497Y-125769737D01*
X141479179Y-125709394D01*
X141610289Y-125621789D01*
X141721789Y-125510289D01*
X141809394Y-125379179D01*
X141869737Y-125233497D01*
X141900500Y-125078842D01*
X141900500Y-124921158D01*
X141900500Y-124921155D01*
X141900499Y-124921153D01*
X141894765Y-124892325D01*
X141869737Y-124766503D01*
X141869735Y-124766498D01*
X141809397Y-124620827D01*
X141809390Y-124620814D01*
X141721789Y-124489711D01*
X141721786Y-124489707D01*
X141610292Y-124378213D01*
X141610288Y-124378210D01*
X141479185Y-124290609D01*
X141479172Y-124290602D01*
X141333501Y-124230264D01*
X141333489Y-124230261D01*
X141178845Y-124199500D01*
X141178842Y-124199500D01*
X141021158Y-124199500D01*
X141021155Y-124199500D01*
X140866510Y-124230261D01*
X140866498Y-124230264D01*
X140720827Y-124290602D01*
X140720814Y-124290609D01*
X140589125Y-124378602D01*
X140571078Y-124384252D01*
X140555169Y-124394477D01*
X140524207Y-124398928D01*
X140522447Y-124399480D01*
X140520234Y-124399500D01*
X140479766Y-124399500D01*
X140412727Y-124379815D01*
X140410875Y-124378602D01*
X140279185Y-124290609D01*
X140279172Y-124290602D01*
X140133501Y-124230264D01*
X140133489Y-124230261D01*
X139978845Y-124199500D01*
X139978842Y-124199500D01*
X139821158Y-124199500D01*
X139821155Y-124199500D01*
X139666510Y-124230261D01*
X139666498Y-124230264D01*
X139520827Y-124290602D01*
X139520814Y-124290609D01*
X139389711Y-124378210D01*
X139389707Y-124378213D01*
X139278213Y-124489707D01*
X139278210Y-124489711D01*
X139190609Y-124620814D01*
X139190602Y-124620827D01*
X139130264Y-124766498D01*
X139130261Y-124766510D01*
X139099500Y-124921153D01*
X138000500Y-124921153D01*
X138000500Y-121623734D01*
X142902081Y-121623734D01*
X142902081Y-121781427D01*
X142932842Y-121936070D01*
X142932845Y-121936082D01*
X142993183Y-122081753D01*
X142993187Y-122081760D01*
X143031183Y-122138625D01*
X143052061Y-122205302D01*
X143052081Y-122207516D01*
X143052081Y-124766652D01*
X143067177Y-124842539D01*
X143071400Y-124863771D01*
X143077080Y-124892325D01*
X143126116Y-125010708D01*
X143171644Y-125078846D01*
X143197307Y-125117254D01*
X143197308Y-125117255D01*
X145030207Y-126950153D01*
X145029837Y-126950000D01*
X144970163Y-126950000D01*
X144915032Y-126972836D01*
X144872836Y-127015032D01*
X144850000Y-127070163D01*
X144850000Y-127129837D01*
X144872836Y-127184968D01*
X144915032Y-127227164D01*
X144970163Y-127250000D01*
X145029837Y-127250000D01*
X145084968Y-127227164D01*
X145127164Y-127184968D01*
X145150000Y-127129837D01*
X145150000Y-127070163D01*
X145149846Y-127069792D01*
X145168183Y-127088129D01*
X145201668Y-127149452D01*
X145204502Y-127175810D01*
X145204502Y-127273842D01*
X145204503Y-127273846D01*
X145220155Y-127352538D01*
X145213926Y-127422129D01*
X145171063Y-127477306D01*
X145105173Y-127500550D01*
X145037176Y-127484482D01*
X145010855Y-127464408D01*
X145000000Y-127453553D01*
X144753553Y-127699999D01*
X145000000Y-127946446D01*
X145224504Y-127721943D01*
X145285827Y-127688458D01*
X145355519Y-127693442D01*
X145399866Y-127721943D01*
X145494709Y-127816786D01*
X145494713Y-127816789D01*
X145574127Y-127869852D01*
X145618932Y-127923464D01*
X145627639Y-127992789D01*
X145597485Y-128055816D01*
X145592917Y-128060635D01*
X145353553Y-128299999D01*
X145353553Y-128300000D01*
X145715845Y-128662293D01*
X145769257Y-128533347D01*
X145769258Y-128533343D01*
X145799999Y-128378797D01*
X145800000Y-128378794D01*
X145800000Y-128221206D01*
X145799999Y-128221205D01*
X145784262Y-128142087D01*
X145790489Y-128072495D01*
X145833352Y-128017318D01*
X145899241Y-127994073D01*
X145920030Y-127995562D01*
X145920095Y-127994903D01*
X145926158Y-127995500D01*
X145926160Y-127995500D01*
X146083846Y-127995500D01*
X146083847Y-127995499D01*
X146238499Y-127964737D01*
X146384181Y-127904394D01*
X146515291Y-127816789D01*
X146626791Y-127705289D01*
X146714396Y-127574179D01*
X146774739Y-127428497D01*
X146805502Y-127273842D01*
X146805502Y-127176579D01*
X148150000Y-127176579D01*
X148150000Y-127330000D01*
X148900000Y-127330000D01*
X148900000Y-127830000D01*
X148150000Y-127830000D01*
X148150000Y-127983420D01*
X148190348Y-128186266D01*
X148190350Y-128186274D01*
X148269500Y-128377358D01*
X148269505Y-128377368D01*
X148384410Y-128549335D01*
X148384413Y-128549339D01*
X148530660Y-128695586D01*
X148530664Y-128695589D01*
X148702631Y-128810494D01*
X148702641Y-128810499D01*
X148893723Y-128889648D01*
X148893725Y-128889649D01*
X148950000Y-128900842D01*
X148950000Y-128046988D01*
X148959940Y-128064205D01*
X149015795Y-128120060D01*
X149084204Y-128159556D01*
X149160504Y-128180000D01*
X149239496Y-128180000D01*
X149315796Y-128159556D01*
X149384205Y-128120060D01*
X149440060Y-128064205D01*
X149450000Y-128046988D01*
X149450000Y-128900842D01*
X149506274Y-128889649D01*
X149506276Y-128889648D01*
X149697358Y-128810499D01*
X149697368Y-128810494D01*
X149869335Y-128695589D01*
X149869339Y-128695586D01*
X150015586Y-128549339D01*
X150015589Y-128549335D01*
X150130494Y-128377368D01*
X150130499Y-128377358D01*
X150209649Y-128186274D01*
X150209651Y-128186266D01*
X150249999Y-127983420D01*
X150250000Y-127983417D01*
X150250000Y-127830000D01*
X149500000Y-127830000D01*
X149500000Y-127330000D01*
X150250000Y-127330000D01*
X150250000Y-127176583D01*
X150249999Y-127176579D01*
X156790000Y-127176579D01*
X156790000Y-127330000D01*
X157540000Y-127330000D01*
X157540000Y-127830000D01*
X156790000Y-127830000D01*
X156790000Y-127983420D01*
X156830348Y-128186266D01*
X156830350Y-128186274D01*
X156909500Y-128377358D01*
X156909505Y-128377368D01*
X157024410Y-128549335D01*
X157024413Y-128549339D01*
X157170660Y-128695586D01*
X157170664Y-128695589D01*
X157342631Y-128810494D01*
X157342641Y-128810499D01*
X157533723Y-128889648D01*
X157533725Y-128889649D01*
X157590000Y-128900842D01*
X157590000Y-128046988D01*
X157599940Y-128064205D01*
X157655795Y-128120060D01*
X157724204Y-128159556D01*
X157800504Y-128180000D01*
X157879496Y-128180000D01*
X157955796Y-128159556D01*
X158024205Y-128120060D01*
X158080060Y-128064205D01*
X158090000Y-128046988D01*
X158090000Y-128900842D01*
X158146274Y-128889649D01*
X158146276Y-128889648D01*
X158337358Y-128810499D01*
X158337368Y-128810494D01*
X158509335Y-128695589D01*
X158509339Y-128695586D01*
X158655586Y-128549339D01*
X158655589Y-128549335D01*
X158770494Y-128377368D01*
X158770499Y-128377358D01*
X158849649Y-128186274D01*
X158849651Y-128186266D01*
X158889999Y-127983420D01*
X158890000Y-127983417D01*
X158890000Y-127830000D01*
X158140000Y-127830000D01*
X158140000Y-127330000D01*
X158890000Y-127330000D01*
X158890000Y-127176583D01*
X158889999Y-127176579D01*
X158849651Y-126973733D01*
X158849649Y-126973725D01*
X158770499Y-126782641D01*
X158770494Y-126782631D01*
X158655589Y-126610664D01*
X158655586Y-126610660D01*
X158509339Y-126464413D01*
X158509335Y-126464410D01*
X158337368Y-126349505D01*
X158337358Y-126349500D01*
X158146272Y-126270349D01*
X158146267Y-126270347D01*
X158090000Y-126259155D01*
X158090000Y-127113011D01*
X158080060Y-127095795D01*
X158024205Y-127039940D01*
X157955796Y-127000444D01*
X157879496Y-126980000D01*
X157800504Y-126980000D01*
X157724204Y-127000444D01*
X157655795Y-127039940D01*
X157599940Y-127095795D01*
X157590000Y-127113011D01*
X157590000Y-126259156D01*
X157589999Y-126259155D01*
X157533732Y-126270347D01*
X157533727Y-126270349D01*
X157342641Y-126349500D01*
X157342631Y-126349505D01*
X157170664Y-126464410D01*
X157170660Y-126464413D01*
X157024413Y-126610660D01*
X157024410Y-126610664D01*
X156909505Y-126782631D01*
X156909500Y-126782641D01*
X156830350Y-126973725D01*
X156830348Y-126973733D01*
X156790000Y-127176579D01*
X150249999Y-127176579D01*
X150209651Y-126973733D01*
X150209649Y-126973725D01*
X150130498Y-126782638D01*
X150115603Y-126760346D01*
X150094725Y-126693668D01*
X150113210Y-126626288D01*
X150165189Y-126579598D01*
X150170034Y-126577406D01*
X150178110Y-126573959D01*
X150231785Y-126559577D01*
X150281904Y-126530639D01*
X150368716Y-126480520D01*
X150480520Y-126368716D01*
X150480521Y-126368714D01*
X150712418Y-126136816D01*
X150773740Y-126103334D01*
X150800098Y-126100500D01*
X151062770Y-126100500D01*
X151129809Y-126120185D01*
X151150450Y-126136818D01*
X151181344Y-126167712D01*
X151330666Y-126259814D01*
X151497203Y-126314999D01*
X151599991Y-126325500D01*
X152400008Y-126325499D01*
X152400016Y-126325498D01*
X152400019Y-126325498D01*
X152456302Y-126319748D01*
X152502797Y-126314999D01*
X152669334Y-126259814D01*
X152818656Y-126167712D01*
X152942712Y-126043656D01*
X152982310Y-125979456D01*
X153034258Y-125932732D01*
X153103220Y-125921509D01*
X153167303Y-125949352D01*
X153175530Y-125956872D01*
X153283072Y-126064414D01*
X153423212Y-126166232D01*
X153577555Y-126244873D01*
X153742299Y-126298402D01*
X153913389Y-126325500D01*
X153913390Y-126325500D01*
X154086610Y-126325500D01*
X154086611Y-126325500D01*
X154257701Y-126298402D01*
X154422445Y-126244873D01*
X154576788Y-126166232D01*
X154716928Y-126064414D01*
X154839414Y-125941928D01*
X154941232Y-125801788D01*
X155019873Y-125647445D01*
X155073402Y-125482701D01*
X155100500Y-125311611D01*
X155100500Y-124588389D01*
X155073402Y-124417299D01*
X155019873Y-124252555D01*
X154941232Y-124098212D01*
X154839414Y-123958072D01*
X154716928Y-123835586D01*
X154576788Y-123733768D01*
X154422445Y-123655127D01*
X154257701Y-123601598D01*
X154257699Y-123601597D01*
X154257698Y-123601597D01*
X154126271Y-123580781D01*
X154086611Y-123574500D01*
X153913389Y-123574500D01*
X153873728Y-123580781D01*
X153742302Y-123601597D01*
X153577552Y-123655128D01*
X153423211Y-123733768D01*
X153283073Y-123835585D01*
X153175530Y-123943128D01*
X153114207Y-123976612D01*
X153044515Y-123971628D01*
X152988582Y-123929756D01*
X152982310Y-123920543D01*
X152942712Y-123856344D01*
X152818656Y-123732288D01*
X152693559Y-123655128D01*
X152669336Y-123640187D01*
X152669331Y-123640185D01*
X152667862Y-123639698D01*
X152502797Y-123585001D01*
X152502795Y-123585000D01*
X152400010Y-123574500D01*
X151599998Y-123574500D01*
X151599980Y-123574501D01*
X151497203Y-123585000D01*
X151497200Y-123585001D01*
X151330668Y-123640185D01*
X151330663Y-123640187D01*
X151181342Y-123732289D01*
X151057289Y-123856342D01*
X150965187Y-124005663D01*
X150965186Y-124005666D01*
X150910001Y-124172203D01*
X150910001Y-124172204D01*
X150910000Y-124172204D01*
X150899500Y-124274983D01*
X150899500Y-124775500D01*
X150896949Y-124784185D01*
X150898238Y-124793147D01*
X150887259Y-124817187D01*
X150879815Y-124842539D01*
X150872974Y-124848466D01*
X150869213Y-124856703D01*
X150846978Y-124870992D01*
X150827011Y-124888294D01*
X150816496Y-124890581D01*
X150810435Y-124894477D01*
X150775500Y-124899500D01*
X150586670Y-124899500D01*
X150586654Y-124899499D01*
X150579058Y-124899499D01*
X150420943Y-124899499D01*
X150344579Y-124919961D01*
X150268214Y-124940423D01*
X150268209Y-124940426D01*
X150131290Y-125019475D01*
X150131282Y-125019481D01*
X149924315Y-125226448D01*
X149862992Y-125259933D01*
X149793300Y-125254949D01*
X149789182Y-125253328D01*
X149733501Y-125230264D01*
X149733489Y-125230261D01*
X149578845Y-125199500D01*
X149578842Y-125199500D01*
X149421158Y-125199500D01*
X149421155Y-125199500D01*
X149266510Y-125230261D01*
X149266498Y-125230264D01*
X149120827Y-125290602D01*
X149120814Y-125290609D01*
X148989711Y-125378210D01*
X148989707Y-125378213D01*
X148878213Y-125489707D01*
X148878210Y-125489711D01*
X148790609Y-125620814D01*
X148790602Y-125620827D01*
X148730264Y-125766498D01*
X148730261Y-125766510D01*
X148699500Y-125921153D01*
X148699500Y-126078846D01*
X148731225Y-126238337D01*
X148724998Y-126307928D01*
X148682135Y-126363106D01*
X148678499Y-126365630D01*
X148530664Y-126464410D01*
X148530660Y-126464413D01*
X148384413Y-126610660D01*
X148384410Y-126610664D01*
X148269505Y-126782631D01*
X148269500Y-126782641D01*
X148190350Y-126973725D01*
X148190348Y-126973733D01*
X148150000Y-127176579D01*
X146805502Y-127176579D01*
X146805502Y-127116158D01*
X146805502Y-127116155D01*
X146805501Y-127116153D01*
X146802288Y-127099999D01*
X146774739Y-126961503D01*
X146769974Y-126950000D01*
X146714399Y-126815827D01*
X146714392Y-126815814D01*
X146626791Y-126684711D01*
X146626788Y-126684707D01*
X146515294Y-126573213D01*
X146515290Y-126573210D01*
X146458738Y-126535423D01*
X146439948Y-126520002D01*
X144389400Y-124469454D01*
X144355915Y-124408131D01*
X144353081Y-124381773D01*
X144353081Y-122207516D01*
X144372766Y-122140477D01*
X144373947Y-122138671D01*
X144411975Y-122081760D01*
X144472318Y-121936078D01*
X144503081Y-121781423D01*
X144503081Y-121623739D01*
X144503081Y-121623736D01*
X144503080Y-121623734D01*
X144472319Y-121469091D01*
X144472318Y-121469084D01*
X144472316Y-121469079D01*
X144411978Y-121323408D01*
X144411971Y-121323395D01*
X144324370Y-121192292D01*
X144324367Y-121192288D01*
X144212873Y-121080794D01*
X144212869Y-121080791D01*
X144119148Y-121018168D01*
X144119146Y-121018166D01*
X144081771Y-120993193D01*
X144081753Y-120993183D01*
X143936082Y-120932845D01*
X143936070Y-120932842D01*
X143877331Y-120921158D01*
X161899500Y-120921158D01*
X161899500Y-120929024D01*
X161899500Y-121078846D01*
X161930260Y-121233488D01*
X161930262Y-121233494D01*
X161930263Y-121233497D01*
X161940061Y-121257153D01*
X161949500Y-121304603D01*
X161949500Y-121695393D01*
X161940062Y-121742844D01*
X161930263Y-121766501D01*
X161930261Y-121766505D01*
X161899500Y-121921153D01*
X161899500Y-122078846D01*
X161930261Y-122233494D01*
X161930264Y-122233502D01*
X161940061Y-122257154D01*
X161949500Y-122304606D01*
X161949500Y-122695394D01*
X161940062Y-122742845D01*
X161930263Y-122766502D01*
X161930262Y-122766505D01*
X161899500Y-122921155D01*
X161899500Y-123078846D01*
X161930261Y-123233494D01*
X161930263Y-123233497D01*
X161940273Y-123257665D01*
X161948663Y-123294625D01*
X161949147Y-123294574D01*
X161949500Y-123297867D01*
X161949501Y-123297872D01*
X161951474Y-123316228D01*
X161955908Y-123357483D01*
X162006202Y-123492328D01*
X162006206Y-123492335D01*
X162092452Y-123607544D01*
X162092455Y-123607547D01*
X162207664Y-123693793D01*
X162207671Y-123693797D01*
X162342516Y-123744091D01*
X162405432Y-123750856D01*
X162405379Y-123751345D01*
X162442344Y-123759729D01*
X162466503Y-123769737D01*
X162621153Y-123800499D01*
X162621156Y-123800500D01*
X162621158Y-123800500D01*
X162778844Y-123800500D01*
X162778845Y-123800499D01*
X162933497Y-123769737D01*
X162957152Y-123759938D01*
X163004605Y-123750499D01*
X163695394Y-123750499D01*
X163742844Y-123759937D01*
X163766503Y-123769737D01*
X163921153Y-123800499D01*
X163921156Y-123800500D01*
X163921158Y-123800500D01*
X164078844Y-123800500D01*
X164078845Y-123800499D01*
X164233497Y-123769737D01*
X164257661Y-123759727D01*
X164294623Y-123751343D01*
X164294571Y-123750854D01*
X164357483Y-123744091D01*
X164389126Y-123732289D01*
X164492331Y-123693796D01*
X164607546Y-123607546D01*
X164693796Y-123492331D01*
X164744091Y-123357483D01*
X164750856Y-123294568D01*
X164751345Y-123294620D01*
X164759730Y-123257653D01*
X164769737Y-123233497D01*
X164800500Y-123078842D01*
X164800500Y-122921158D01*
X164800500Y-122921155D01*
X164800499Y-122921153D01*
X164769738Y-122766510D01*
X164769737Y-122766505D01*
X164769737Y-122766503D01*
X164769735Y-122766498D01*
X164759938Y-122742845D01*
X164750499Y-122695393D01*
X164750499Y-122304605D01*
X164759938Y-122257152D01*
X164769737Y-122233497D01*
X164800500Y-122078842D01*
X164800500Y-121921158D01*
X164800500Y-121921155D01*
X164800499Y-121921153D01*
X164769737Y-121766503D01*
X164759938Y-121742845D01*
X164750499Y-121695393D01*
X164750499Y-121304606D01*
X164759938Y-121257153D01*
X164759939Y-121257150D01*
X164769737Y-121233497D01*
X164800500Y-121078842D01*
X164800500Y-120921158D01*
X164800500Y-120921155D01*
X164800499Y-120921153D01*
X164769738Y-120766510D01*
X164769737Y-120766503D01*
X164759728Y-120742338D01*
X164751342Y-120705376D01*
X164750854Y-120705429D01*
X164744091Y-120642516D01*
X164693797Y-120507671D01*
X164693793Y-120507664D01*
X164607547Y-120392455D01*
X164607544Y-120392452D01*
X164492335Y-120306206D01*
X164492328Y-120306202D01*
X164357482Y-120255908D01*
X164357483Y-120255908D01*
X164294572Y-120249145D01*
X164294623Y-120248661D01*
X164257658Y-120240271D01*
X164233497Y-120230263D01*
X164233489Y-120230261D01*
X164078845Y-120199500D01*
X164078842Y-120199500D01*
X163921158Y-120199500D01*
X163921155Y-120199500D01*
X163766505Y-120230261D01*
X163766497Y-120230264D01*
X163742846Y-120240061D01*
X163695394Y-120249500D01*
X163004606Y-120249500D01*
X162957154Y-120240061D01*
X162933502Y-120230264D01*
X162933494Y-120230261D01*
X162778845Y-120199500D01*
X162778842Y-120199500D01*
X162621158Y-120199500D01*
X162621156Y-120199500D01*
X162466505Y-120230262D01*
X162466499Y-120230264D01*
X162442331Y-120240274D01*
X162405374Y-120248664D01*
X162405426Y-120249147D01*
X162402132Y-120249500D01*
X162402128Y-120249501D01*
X162385197Y-120251321D01*
X162342516Y-120255908D01*
X162207671Y-120306202D01*
X162207664Y-120306206D01*
X162092455Y-120392452D01*
X162092452Y-120392455D01*
X162006206Y-120507664D01*
X162006202Y-120507671D01*
X161955908Y-120642517D01*
X161949145Y-120705428D01*
X161948661Y-120705376D01*
X161947628Y-120709930D01*
X161946606Y-120722458D01*
X161944277Y-120732668D01*
X161930263Y-120766503D01*
X161899500Y-120921158D01*
X143877331Y-120921158D01*
X143781426Y-120902081D01*
X143781423Y-120902081D01*
X143623739Y-120902081D01*
X143623736Y-120902081D01*
X143469091Y-120932842D01*
X143469079Y-120932845D01*
X143323408Y-120993183D01*
X143323395Y-120993190D01*
X143192292Y-121080791D01*
X143192288Y-121080794D01*
X143080794Y-121192288D01*
X143080791Y-121192292D01*
X142993190Y-121323395D01*
X142993183Y-121323408D01*
X142932845Y-121469079D01*
X142932842Y-121469091D01*
X142902081Y-121623734D01*
X138000500Y-121623734D01*
X138000500Y-115421153D01*
X139199500Y-115421153D01*
X139199500Y-115578846D01*
X139230261Y-115733489D01*
X139230264Y-115733501D01*
X139290602Y-115879172D01*
X139290609Y-115879185D01*
X139378210Y-116010288D01*
X139378213Y-116010292D01*
X139489707Y-116121786D01*
X139489711Y-116121789D01*
X139620814Y-116209390D01*
X139620827Y-116209397D01*
X139766498Y-116269735D01*
X139766503Y-116269737D01*
X139921153Y-116300499D01*
X139921156Y-116300500D01*
X139921158Y-116300500D01*
X140078844Y-116300500D01*
X140078845Y-116300499D01*
X140233497Y-116269737D01*
X140379179Y-116209394D01*
X140510289Y-116121789D01*
X140621789Y-116010289D01*
X140709394Y-115879179D01*
X140769737Y-115733497D01*
X140783079Y-115666416D01*
X140815463Y-115604509D01*
X140816959Y-115602985D01*
X141086291Y-115333653D01*
X156699500Y-115333653D01*
X156699500Y-115491346D01*
X156730261Y-115645989D01*
X156730264Y-115646001D01*
X156790602Y-115791672D01*
X156790609Y-115791685D01*
X156878602Y-115923374D01*
X156884252Y-115941420D01*
X156894477Y-115957330D01*
X156898928Y-115988289D01*
X156899480Y-115990051D01*
X156899500Y-115992265D01*
X156899500Y-116132734D01*
X156879815Y-116199773D01*
X156878602Y-116201625D01*
X156790609Y-116333314D01*
X156790602Y-116333327D01*
X156730264Y-116478998D01*
X156730261Y-116479010D01*
X156699500Y-116633653D01*
X156699500Y-116791346D01*
X156730261Y-116945989D01*
X156730264Y-116946001D01*
X156790602Y-117091672D01*
X156790609Y-117091685D01*
X156878210Y-117222788D01*
X156878213Y-117222792D01*
X156989707Y-117334286D01*
X156989711Y-117334289D01*
X157120814Y-117421890D01*
X157120827Y-117421897D01*
X157266498Y-117482235D01*
X157266503Y-117482237D01*
X157421153Y-117512999D01*
X157421156Y-117513000D01*
X157421158Y-117513000D01*
X157578844Y-117513000D01*
X157578845Y-117512999D01*
X157733497Y-117482237D01*
X157879179Y-117421894D01*
X158010289Y-117334289D01*
X158121789Y-117222789D01*
X158209394Y-117091679D01*
X158269737Y-116945997D01*
X158300500Y-116791342D01*
X158300500Y-116633658D01*
X158300500Y-116633655D01*
X158300499Y-116633653D01*
X158269738Y-116479010D01*
X158269737Y-116479003D01*
X158269735Y-116478998D01*
X158209397Y-116333327D01*
X158209390Y-116333314D01*
X158121398Y-116201625D01*
X158115747Y-116183578D01*
X158105523Y-116167669D01*
X158101071Y-116136707D01*
X158100520Y-116134947D01*
X158100500Y-116132734D01*
X158100500Y-115992265D01*
X158120185Y-115925226D01*
X158121398Y-115923374D01*
X158209390Y-115791685D01*
X158209390Y-115791684D01*
X158209394Y-115791679D01*
X158269737Y-115645997D01*
X158300500Y-115491342D01*
X158300500Y-115333658D01*
X158300500Y-115333655D01*
X158300499Y-115333653D01*
X158287141Y-115266498D01*
X158269737Y-115179003D01*
X158269735Y-115178998D01*
X158209397Y-115033327D01*
X158209390Y-115033314D01*
X158121789Y-114902211D01*
X158121786Y-114902207D01*
X158010292Y-114790713D01*
X158010288Y-114790710D01*
X157879185Y-114703109D01*
X157879172Y-114703102D01*
X157733501Y-114642764D01*
X157733489Y-114642761D01*
X157578845Y-114612000D01*
X157578842Y-114612000D01*
X157421158Y-114612000D01*
X157421155Y-114612000D01*
X157266510Y-114642761D01*
X157266498Y-114642764D01*
X157120827Y-114703102D01*
X157120814Y-114703109D01*
X156989711Y-114790710D01*
X156989707Y-114790713D01*
X156878213Y-114902207D01*
X156878210Y-114902211D01*
X156790609Y-115033314D01*
X156790602Y-115033327D01*
X156730264Y-115178998D01*
X156730261Y-115179010D01*
X156699500Y-115333653D01*
X141086291Y-115333653D01*
X141102931Y-115317013D01*
X141113644Y-115310352D01*
X141119297Y-115303254D01*
X141137807Y-115295328D01*
X141150765Y-115287272D01*
X141158449Y-115284664D01*
X141233497Y-115269737D01*
X141379179Y-115209394D01*
X141510289Y-115121789D01*
X141621789Y-115010289D01*
X141709394Y-114879179D01*
X141769737Y-114733497D01*
X141800500Y-114578842D01*
X141800500Y-114421158D01*
X141800500Y-114421155D01*
X141800499Y-114421153D01*
X141769738Y-114266510D01*
X141769738Y-114266508D01*
X141769737Y-114266503D01*
X141769735Y-114266498D01*
X141709397Y-114120827D01*
X141709390Y-114120814D01*
X141621789Y-113989711D01*
X141621786Y-113989707D01*
X141510292Y-113878213D01*
X141510288Y-113878210D01*
X141379185Y-113790609D01*
X141379172Y-113790602D01*
X141233501Y-113730264D01*
X141233489Y-113730261D01*
X141078845Y-113699500D01*
X141078842Y-113699500D01*
X140921158Y-113699500D01*
X140921155Y-113699500D01*
X140766510Y-113730261D01*
X140766498Y-113730264D01*
X140620827Y-113790602D01*
X140620814Y-113790609D01*
X140489711Y-113878210D01*
X140489707Y-113878213D01*
X140378213Y-113989707D01*
X140378210Y-113989711D01*
X140290609Y-114120814D01*
X140290602Y-114120827D01*
X140230264Y-114266498D01*
X140230261Y-114266508D01*
X140216920Y-114333579D01*
X140184535Y-114395490D01*
X140182984Y-114397068D01*
X139897068Y-114682984D01*
X139835745Y-114716469D01*
X139833579Y-114716920D01*
X139766508Y-114730261D01*
X139766498Y-114730264D01*
X139620827Y-114790602D01*
X139620814Y-114790609D01*
X139489711Y-114878210D01*
X139489707Y-114878213D01*
X139378213Y-114989707D01*
X139378210Y-114989711D01*
X139290609Y-115120814D01*
X139290602Y-115120827D01*
X139230264Y-115266498D01*
X139230261Y-115266510D01*
X139199500Y-115421153D01*
X138000500Y-115421153D01*
X138000500Y-109393753D01*
X139610000Y-109393753D01*
X139610000Y-109606246D01*
X139643242Y-109816127D01*
X139643242Y-109816130D01*
X139708904Y-110018217D01*
X139805375Y-110207550D01*
X139844728Y-110261716D01*
X140477037Y-109629408D01*
X140494075Y-109692993D01*
X140559901Y-109807007D01*
X140652993Y-109900099D01*
X140767007Y-109965925D01*
X140830590Y-109982962D01*
X140198282Y-110615269D01*
X140198282Y-110615270D01*
X140252449Y-110654624D01*
X140441782Y-110751095D01*
X140643870Y-110816757D01*
X140853754Y-110850000D01*
X141066246Y-110850000D01*
X141276127Y-110816757D01*
X141276130Y-110816757D01*
X141478217Y-110751095D01*
X141667554Y-110654622D01*
X141721716Y-110615270D01*
X141721717Y-110615270D01*
X141089408Y-109982962D01*
X141152993Y-109965925D01*
X141267007Y-109900099D01*
X141360099Y-109807007D01*
X141425925Y-109692993D01*
X141442962Y-109629408D01*
X142075270Y-110261717D01*
X142075270Y-110261716D01*
X142114622Y-110207555D01*
X142119232Y-110198507D01*
X142167205Y-110147709D01*
X142235025Y-110130912D01*
X142301161Y-110153447D01*
X142340204Y-110198504D01*
X142344949Y-110207817D01*
X142469890Y-110379786D01*
X142620213Y-110530109D01*
X142792179Y-110655048D01*
X142792181Y-110655049D01*
X142792184Y-110655051D01*
X142981588Y-110751557D01*
X143183757Y-110817246D01*
X143393713Y-110850500D01*
X143393714Y-110850500D01*
X143606286Y-110850500D01*
X143606287Y-110850500D01*
X143816243Y-110817246D01*
X144018412Y-110751557D01*
X144207816Y-110655051D01*
X144379792Y-110530104D01*
X144493329Y-110416566D01*
X144554648Y-110383084D01*
X144624340Y-110388068D01*
X144680274Y-110429939D01*
X144697189Y-110460917D01*
X144746202Y-110592328D01*
X144746206Y-110592335D01*
X144832452Y-110707544D01*
X144832455Y-110707547D01*
X144947664Y-110793793D01*
X144947671Y-110793797D01*
X145082517Y-110844091D01*
X145082516Y-110844091D01*
X145089444Y-110844835D01*
X145142127Y-110850500D01*
X146937872Y-110850499D01*
X146997483Y-110844091D01*
X147132331Y-110793796D01*
X147247546Y-110707546D01*
X147333796Y-110592331D01*
X147384091Y-110457483D01*
X147390500Y-110397873D01*
X147390499Y-108602128D01*
X147384091Y-108542517D01*
X147382810Y-108539083D01*
X147333797Y-108407671D01*
X147333793Y-108407664D01*
X147247547Y-108292455D01*
X147247544Y-108292452D01*
X147132335Y-108206206D01*
X147132328Y-108206202D01*
X146997482Y-108155908D01*
X146997483Y-108155908D01*
X146937883Y-108149501D01*
X146937881Y-108149500D01*
X146937873Y-108149500D01*
X146937864Y-108149500D01*
X145142129Y-108149500D01*
X145142123Y-108149501D01*
X145082516Y-108155908D01*
X144947671Y-108206202D01*
X144947664Y-108206206D01*
X144832455Y-108292452D01*
X144832452Y-108292455D01*
X144746206Y-108407664D01*
X144746203Y-108407669D01*
X144697189Y-108539083D01*
X144655317Y-108595016D01*
X144589853Y-108619433D01*
X144521580Y-108604581D01*
X144493326Y-108583430D01*
X144379786Y-108469890D01*
X144207820Y-108344951D01*
X144018414Y-108248444D01*
X144018413Y-108248443D01*
X144018412Y-108248443D01*
X143816243Y-108182754D01*
X143816241Y-108182753D01*
X143816240Y-108182753D01*
X143654957Y-108157208D01*
X143606287Y-108149500D01*
X143393713Y-108149500D01*
X143345042Y-108157208D01*
X143183760Y-108182753D01*
X142981585Y-108248444D01*
X142792179Y-108344951D01*
X142620213Y-108469890D01*
X142469890Y-108620213D01*
X142344949Y-108792182D01*
X142340202Y-108801499D01*
X142292227Y-108852293D01*
X142224405Y-108869087D01*
X142158271Y-108846548D01*
X142119234Y-108801495D01*
X142114626Y-108792452D01*
X142075270Y-108738282D01*
X142075269Y-108738282D01*
X141442962Y-109370590D01*
X141425925Y-109307007D01*
X141360099Y-109192993D01*
X141267007Y-109099901D01*
X141152993Y-109034075D01*
X141089409Y-109017037D01*
X141721716Y-108384728D01*
X141667550Y-108345375D01*
X141478217Y-108248904D01*
X141276129Y-108183242D01*
X141066246Y-108150000D01*
X140853754Y-108150000D01*
X140643872Y-108183242D01*
X140643869Y-108183242D01*
X140441782Y-108248904D01*
X140252439Y-108345380D01*
X140198282Y-108384727D01*
X140198282Y-108384728D01*
X140830591Y-109017037D01*
X140767007Y-109034075D01*
X140652993Y-109099901D01*
X140559901Y-109192993D01*
X140494075Y-109307007D01*
X140477037Y-109370591D01*
X139844728Y-108738282D01*
X139844727Y-108738282D01*
X139805380Y-108792439D01*
X139708904Y-108981782D01*
X139643242Y-109183869D01*
X139643242Y-109183872D01*
X139610000Y-109393753D01*
X138000500Y-109393753D01*
X138000500Y-102381902D01*
X150499500Y-102381902D01*
X150499500Y-102618097D01*
X150536446Y-102851368D01*
X150609433Y-103075996D01*
X150716519Y-103286163D01*
X150716657Y-103286433D01*
X150855483Y-103477510D01*
X151022490Y-103644517D01*
X151130042Y-103722658D01*
X151213568Y-103783344D01*
X151288177Y-103821358D01*
X151331794Y-103843582D01*
X151382590Y-103891556D01*
X151399500Y-103954067D01*
X151399500Y-107545931D01*
X151379815Y-107612970D01*
X151331796Y-107656415D01*
X151213568Y-107716655D01*
X151130044Y-107777340D01*
X151022490Y-107855483D01*
X151022488Y-107855485D01*
X151022487Y-107855485D01*
X150855485Y-108022487D01*
X150855485Y-108022488D01*
X150855483Y-108022490D01*
X150795862Y-108104550D01*
X150716657Y-108213566D01*
X150609433Y-108424003D01*
X150536446Y-108648631D01*
X150499500Y-108881902D01*
X150499500Y-109118097D01*
X150536446Y-109351368D01*
X150609433Y-109575996D01*
X150669047Y-109692993D01*
X150716657Y-109786433D01*
X150855483Y-109977510D01*
X151022490Y-110144517D01*
X151213567Y-110283343D01*
X151312991Y-110334002D01*
X151424003Y-110390566D01*
X151424005Y-110390566D01*
X151424008Y-110390568D01*
X151504031Y-110416569D01*
X151648631Y-110463553D01*
X151881903Y-110500500D01*
X151881908Y-110500500D01*
X152118097Y-110500500D01*
X152351368Y-110463553D01*
X152370049Y-110457483D01*
X152575992Y-110390568D01*
X152786433Y-110283343D01*
X152977510Y-110144517D01*
X153144517Y-109977510D01*
X153283343Y-109786433D01*
X153390568Y-109575992D01*
X153463553Y-109351368D01*
X153470579Y-109307007D01*
X153500500Y-109118097D01*
X153500500Y-108881947D01*
X155000000Y-108881947D01*
X155000000Y-109118052D01*
X155036934Y-109351247D01*
X155109897Y-109575802D01*
X155217087Y-109786174D01*
X155277338Y-109869104D01*
X155277340Y-109869105D01*
X155976212Y-109170233D01*
X155987482Y-109212292D01*
X156059890Y-109337708D01*
X156162292Y-109440110D01*
X156287708Y-109512518D01*
X156329765Y-109523787D01*
X155630893Y-110222658D01*
X155713828Y-110282914D01*
X155924197Y-110390102D01*
X156148752Y-110463065D01*
X156148751Y-110463065D01*
X156381948Y-110500000D01*
X156618052Y-110500000D01*
X156851247Y-110463065D01*
X157075802Y-110390102D01*
X157286163Y-110282918D01*
X157286169Y-110282914D01*
X157369104Y-110222658D01*
X157369105Y-110222658D01*
X156670233Y-109523787D01*
X156712292Y-109512518D01*
X156837708Y-109440110D01*
X156940110Y-109337708D01*
X157012518Y-109212292D01*
X157023787Y-109170234D01*
X157722658Y-109869105D01*
X157722658Y-109869104D01*
X157782914Y-109786169D01*
X157782918Y-109786163D01*
X157890102Y-109575802D01*
X157963065Y-109351247D01*
X158000000Y-109118052D01*
X158000000Y-108881947D01*
X157963065Y-108648752D01*
X157890102Y-108424197D01*
X157782914Y-108213828D01*
X157722658Y-108130894D01*
X157722658Y-108130893D01*
X157023787Y-108829765D01*
X157012518Y-108787708D01*
X156940110Y-108662292D01*
X156837708Y-108559890D01*
X156712292Y-108487482D01*
X156670234Y-108476212D01*
X157369105Y-107777340D01*
X157369104Y-107777338D01*
X157286174Y-107717087D01*
X157075802Y-107609897D01*
X156851247Y-107536934D01*
X156851248Y-107536934D01*
X156618052Y-107500000D01*
X156381948Y-107500000D01*
X156148752Y-107536934D01*
X155924197Y-107609897D01*
X155713830Y-107717084D01*
X155630894Y-107777340D01*
X156329766Y-108476212D01*
X156287708Y-108487482D01*
X156162292Y-108559890D01*
X156059890Y-108662292D01*
X155987482Y-108787708D01*
X155976212Y-108829766D01*
X155277340Y-108130894D01*
X155217084Y-108213830D01*
X155109897Y-108424197D01*
X155036934Y-108648752D01*
X155000000Y-108881947D01*
X153500500Y-108881947D01*
X153500500Y-108881902D01*
X153463553Y-108648631D01*
X153390566Y-108424003D01*
X153301348Y-108248904D01*
X153283343Y-108213567D01*
X153144517Y-108022490D01*
X152977510Y-107855483D01*
X152869953Y-107777338D01*
X152786431Y-107716655D01*
X152668204Y-107656415D01*
X152617409Y-107608441D01*
X152600500Y-107545931D01*
X152600500Y-103954067D01*
X152620185Y-103887028D01*
X152668205Y-103843582D01*
X152786433Y-103783343D01*
X152977510Y-103644517D01*
X153144517Y-103477510D01*
X153283343Y-103286433D01*
X153390568Y-103075992D01*
X153463553Y-102851368D01*
X153465717Y-102837708D01*
X153500500Y-102618097D01*
X153500500Y-102381947D01*
X155000000Y-102381947D01*
X155000000Y-102618052D01*
X155036934Y-102851247D01*
X155109897Y-103075802D01*
X155217087Y-103286174D01*
X155277338Y-103369104D01*
X155277340Y-103369105D01*
X155976212Y-102670233D01*
X155987482Y-102712292D01*
X156059890Y-102837708D01*
X156162292Y-102940110D01*
X156287708Y-103012518D01*
X156329765Y-103023787D01*
X155630893Y-103722658D01*
X155713828Y-103782914D01*
X155924197Y-103890102D01*
X156148752Y-103963065D01*
X156148751Y-103963065D01*
X156381948Y-104000000D01*
X156618052Y-104000000D01*
X156851247Y-103963065D01*
X157075802Y-103890102D01*
X157286163Y-103782918D01*
X157286169Y-103782914D01*
X157369104Y-103722658D01*
X157369105Y-103722658D01*
X157048024Y-103401577D01*
X158749500Y-103401577D01*
X158749500Y-103598422D01*
X158780290Y-103792826D01*
X158841117Y-103980029D01*
X158930476Y-104155405D01*
X159046172Y-104314646D01*
X159185354Y-104453828D01*
X159344595Y-104569524D01*
X159427455Y-104611743D01*
X159519970Y-104658882D01*
X159519972Y-104658882D01*
X159519975Y-104658884D01*
X159620317Y-104691487D01*
X159707173Y-104719709D01*
X159901578Y-104750500D01*
X159901583Y-104750500D01*
X160098422Y-104750500D01*
X160292826Y-104719709D01*
X160480025Y-104658884D01*
X160655405Y-104569524D01*
X160814646Y-104453828D01*
X160953828Y-104314646D01*
X161069524Y-104155405D01*
X161158884Y-103980025D01*
X161219709Y-103792826D01*
X161221279Y-103782914D01*
X161250500Y-103598422D01*
X161250500Y-103401577D01*
X162149500Y-103401577D01*
X162149500Y-103598422D01*
X162180290Y-103792826D01*
X162241117Y-103980029D01*
X162330476Y-104155405D01*
X162446172Y-104314646D01*
X162585354Y-104453828D01*
X162744595Y-104569524D01*
X162827455Y-104611743D01*
X162919970Y-104658882D01*
X162919972Y-104658882D01*
X162919975Y-104658884D01*
X163020317Y-104691487D01*
X163107173Y-104719709D01*
X163301578Y-104750500D01*
X163301583Y-104750500D01*
X163498422Y-104750500D01*
X163692826Y-104719709D01*
X163880025Y-104658884D01*
X164055405Y-104569524D01*
X164214646Y-104453828D01*
X164353828Y-104314646D01*
X164469524Y-104155405D01*
X164558884Y-103980025D01*
X164619709Y-103792826D01*
X164621279Y-103782914D01*
X164650500Y-103598422D01*
X164650500Y-103401577D01*
X164619709Y-103207173D01*
X164558882Y-103019970D01*
X164511743Y-102927455D01*
X164469524Y-102844595D01*
X164353828Y-102685354D01*
X164214646Y-102546172D01*
X164055405Y-102430476D01*
X164049743Y-102427591D01*
X163880029Y-102341117D01*
X163692826Y-102280290D01*
X163498422Y-102249500D01*
X163498417Y-102249500D01*
X163301583Y-102249500D01*
X163301578Y-102249500D01*
X163107173Y-102280290D01*
X162919970Y-102341117D01*
X162744594Y-102430476D01*
X162653741Y-102496485D01*
X162585354Y-102546172D01*
X162585352Y-102546174D01*
X162585351Y-102546174D01*
X162446174Y-102685351D01*
X162446174Y-102685352D01*
X162446172Y-102685354D01*
X162396485Y-102753741D01*
X162330476Y-102844594D01*
X162241117Y-103019970D01*
X162180290Y-103207173D01*
X162149500Y-103401577D01*
X161250500Y-103401577D01*
X161219709Y-103207173D01*
X161158882Y-103019970D01*
X161111743Y-102927455D01*
X161069524Y-102844595D01*
X160953828Y-102685354D01*
X160814646Y-102546172D01*
X160655405Y-102430476D01*
X160649743Y-102427591D01*
X160480029Y-102341117D01*
X160292826Y-102280290D01*
X160098422Y-102249500D01*
X160098417Y-102249500D01*
X159901583Y-102249500D01*
X159901578Y-102249500D01*
X159707173Y-102280290D01*
X159519970Y-102341117D01*
X159344594Y-102430476D01*
X159253741Y-102496485D01*
X159185354Y-102546172D01*
X159185352Y-102546174D01*
X159185351Y-102546174D01*
X159046174Y-102685351D01*
X159046174Y-102685352D01*
X159046172Y-102685354D01*
X158996485Y-102753741D01*
X158930476Y-102844594D01*
X158841117Y-103019970D01*
X158780290Y-103207173D01*
X158749500Y-103401577D01*
X157048024Y-103401577D01*
X156670233Y-103023787D01*
X156712292Y-103012518D01*
X156837708Y-102940110D01*
X156940110Y-102837708D01*
X157012518Y-102712292D01*
X157023787Y-102670234D01*
X157722658Y-103369105D01*
X157722658Y-103369104D01*
X157755557Y-103323825D01*
X157755558Y-103323823D01*
X157782910Y-103286176D01*
X157782918Y-103286163D01*
X157890102Y-103075802D01*
X157963065Y-102851247D01*
X158000000Y-102618052D01*
X158000000Y-102381947D01*
X157963065Y-102148752D01*
X157890102Y-101924197D01*
X157782914Y-101713828D01*
X157722658Y-101630894D01*
X157722658Y-101630893D01*
X157023787Y-102329765D01*
X157012518Y-102287708D01*
X156940110Y-102162292D01*
X156837708Y-102059890D01*
X156712292Y-101987482D01*
X156670234Y-101976212D01*
X157369105Y-101277340D01*
X157369104Y-101277338D01*
X157286174Y-101217087D01*
X157075802Y-101109897D01*
X156851247Y-101036934D01*
X156851248Y-101036934D01*
X156618052Y-101000000D01*
X156381948Y-101000000D01*
X156148752Y-101036934D01*
X155924197Y-101109897D01*
X155713830Y-101217084D01*
X155630894Y-101277340D01*
X156329766Y-101976212D01*
X156287708Y-101987482D01*
X156162292Y-102059890D01*
X156059890Y-102162292D01*
X155987482Y-102287708D01*
X155976212Y-102329766D01*
X155277340Y-101630894D01*
X155217084Y-101713830D01*
X155109897Y-101924197D01*
X155036934Y-102148752D01*
X155000000Y-102381947D01*
X153500500Y-102381947D01*
X153500500Y-102381902D01*
X153463553Y-102148631D01*
X153390566Y-101924003D01*
X153283477Y-101713830D01*
X153283343Y-101713567D01*
X153144517Y-101522490D01*
X152977510Y-101355483D01*
X152786433Y-101216657D01*
X152575996Y-101109433D01*
X152351368Y-101036446D01*
X152118097Y-100999500D01*
X152118092Y-100999500D01*
X151881908Y-100999500D01*
X151881903Y-100999500D01*
X151648631Y-101036446D01*
X151424003Y-101109433D01*
X151213566Y-101216657D01*
X151130047Y-101277338D01*
X151022490Y-101355483D01*
X151022488Y-101355485D01*
X151022487Y-101355485D01*
X150855485Y-101522487D01*
X150855485Y-101522488D01*
X150855483Y-101522490D01*
X150795862Y-101604550D01*
X150716657Y-101713566D01*
X150609433Y-101924003D01*
X150536446Y-102148631D01*
X150499500Y-102381902D01*
X138000500Y-102381902D01*
X138000500Y-94368872D01*
X139499500Y-94368872D01*
X139499500Y-94631127D01*
X139526123Y-94833339D01*
X139533730Y-94891116D01*
X139601602Y-95144418D01*
X139601605Y-95144428D01*
X139701953Y-95386690D01*
X139701958Y-95386700D01*
X139833075Y-95613803D01*
X139992718Y-95821851D01*
X139992726Y-95821860D01*
X140178140Y-96007274D01*
X140178148Y-96007281D01*
X140386196Y-96166924D01*
X140613299Y-96298041D01*
X140613309Y-96298046D01*
X140855571Y-96398394D01*
X140855581Y-96398398D01*
X141108884Y-96466270D01*
X141368880Y-96500500D01*
X141368887Y-96500500D01*
X141631113Y-96500500D01*
X141631120Y-96500500D01*
X141891116Y-96466270D01*
X142144419Y-96398398D01*
X142386697Y-96298043D01*
X142613803Y-96166924D01*
X142821851Y-96007282D01*
X142821855Y-96007277D01*
X142821860Y-96007274D01*
X143007274Y-95821860D01*
X143007277Y-95821855D01*
X143007282Y-95821851D01*
X143166924Y-95613803D01*
X143298043Y-95386697D01*
X143398398Y-95144419D01*
X143466270Y-94891116D01*
X143500500Y-94631120D01*
X143500500Y-94368880D01*
X143500499Y-94368872D01*
X161499500Y-94368872D01*
X161499500Y-94631127D01*
X161526123Y-94833339D01*
X161533730Y-94891116D01*
X161601602Y-95144418D01*
X161601605Y-95144428D01*
X161701953Y-95386690D01*
X161701958Y-95386700D01*
X161833075Y-95613803D01*
X161992718Y-95821851D01*
X161992726Y-95821860D01*
X162178140Y-96007274D01*
X162178148Y-96007281D01*
X162386196Y-96166924D01*
X162613299Y-96298041D01*
X162613309Y-96298046D01*
X162855571Y-96398394D01*
X162855581Y-96398398D01*
X163108884Y-96466270D01*
X163368880Y-96500500D01*
X163368887Y-96500500D01*
X163631113Y-96500500D01*
X163631120Y-96500500D01*
X163891116Y-96466270D01*
X164144419Y-96398398D01*
X164386697Y-96298043D01*
X164613803Y-96166924D01*
X164821851Y-96007282D01*
X164821855Y-96007277D01*
X164821860Y-96007274D01*
X165007274Y-95821860D01*
X165007277Y-95821855D01*
X165007282Y-95821851D01*
X165166924Y-95613803D01*
X165298043Y-95386697D01*
X165398398Y-95144419D01*
X165466270Y-94891116D01*
X165500500Y-94631120D01*
X165500500Y-94368880D01*
X165466270Y-94108884D01*
X165398398Y-93855581D01*
X165398394Y-93855571D01*
X165298046Y-93613309D01*
X165298041Y-93613299D01*
X165166924Y-93386196D01*
X165007281Y-93178148D01*
X165007274Y-93178140D01*
X164821860Y-92992726D01*
X164821851Y-92992718D01*
X164613803Y-92833075D01*
X164386700Y-92701958D01*
X164386690Y-92701953D01*
X164144428Y-92601605D01*
X164144421Y-92601603D01*
X164144419Y-92601602D01*
X163891116Y-92533730D01*
X163833339Y-92526123D01*
X163631127Y-92499500D01*
X163631120Y-92499500D01*
X163368880Y-92499500D01*
X163368872Y-92499500D01*
X163137772Y-92529926D01*
X163108884Y-92533730D01*
X162855581Y-92601602D01*
X162855571Y-92601605D01*
X162613309Y-92701953D01*
X162613299Y-92701958D01*
X162386196Y-92833075D01*
X162178148Y-92992718D01*
X161992718Y-93178148D01*
X161833075Y-93386196D01*
X161701958Y-93613299D01*
X161701953Y-93613309D01*
X161601605Y-93855571D01*
X161601602Y-93855581D01*
X161533730Y-94108885D01*
X161499500Y-94368872D01*
X143500499Y-94368872D01*
X143466270Y-94108884D01*
X143398398Y-93855581D01*
X143398394Y-93855571D01*
X143298046Y-93613309D01*
X143298041Y-93613299D01*
X143166924Y-93386196D01*
X143007281Y-93178148D01*
X143007274Y-93178140D01*
X142821860Y-92992726D01*
X142821851Y-92992718D01*
X142613803Y-92833075D01*
X142386700Y-92701958D01*
X142386690Y-92701953D01*
X142144428Y-92601605D01*
X142144421Y-92601603D01*
X142144419Y-92601602D01*
X141891116Y-92533730D01*
X141833339Y-92526123D01*
X141631127Y-92499500D01*
X141631120Y-92499500D01*
X141368880Y-92499500D01*
X141368872Y-92499500D01*
X141137772Y-92529926D01*
X141108884Y-92533730D01*
X140855581Y-92601602D01*
X140855571Y-92601605D01*
X140613309Y-92701953D01*
X140613299Y-92701958D01*
X140386196Y-92833075D01*
X140178148Y-92992718D01*
X139992718Y-93178148D01*
X139833075Y-93386196D01*
X139701958Y-93613299D01*
X139701953Y-93613309D01*
X139601605Y-93855571D01*
X139601602Y-93855581D01*
X139533730Y-94108885D01*
X139499500Y-94368872D01*
X138000500Y-94368872D01*
X138000500Y-86524986D01*
X149375001Y-86524986D01*
X149385494Y-86627697D01*
X149440641Y-86794119D01*
X149440643Y-86794124D01*
X149532684Y-86943345D01*
X149656654Y-87067315D01*
X149805875Y-87159356D01*
X149805880Y-87159358D01*
X149972302Y-87214505D01*
X149972309Y-87214506D01*
X150075019Y-87224999D01*
X150212499Y-87224999D01*
X150212500Y-87224998D01*
X150212500Y-86250000D01*
X149375001Y-86250000D01*
X149375001Y-86524986D01*
X138000500Y-86524986D01*
X138000500Y-85475013D01*
X149375000Y-85475013D01*
X149375000Y-85750000D01*
X150212500Y-85750000D01*
X150212500Y-84775000D01*
X150712500Y-84775000D01*
X150712500Y-87224999D01*
X150849972Y-87224999D01*
X150849986Y-87224998D01*
X150952697Y-87214505D01*
X151119119Y-87159358D01*
X151119124Y-87159356D01*
X151268345Y-87067315D01*
X151392318Y-86943342D01*
X151394165Y-86940348D01*
X151395969Y-86938724D01*
X151396798Y-86937677D01*
X151396976Y-86937818D01*
X151446110Y-86893621D01*
X151515073Y-86882396D01*
X151579156Y-86910236D01*
X151605243Y-86940341D01*
X151607288Y-86943656D01*
X151731344Y-87067712D01*
X151880666Y-87159814D01*
X152047203Y-87214999D01*
X152149991Y-87225500D01*
X152925008Y-87225499D01*
X152925016Y-87225498D01*
X152925019Y-87225498D01*
X152981302Y-87219748D01*
X153027797Y-87214999D01*
X153194334Y-87159814D01*
X153343656Y-87067712D01*
X153467712Y-86943656D01*
X153559814Y-86794334D01*
X153614999Y-86627797D01*
X153625500Y-86525009D01*
X153625499Y-85474992D01*
X153614999Y-85372203D01*
X153606794Y-85347441D01*
X153600500Y-85308437D01*
X153600500Y-83502450D01*
X153620185Y-83435411D01*
X153655610Y-83399348D01*
X153666468Y-83392093D01*
X153812093Y-83246468D01*
X153926510Y-83075230D01*
X154005322Y-82884961D01*
X154045500Y-82682973D01*
X154045500Y-82477027D01*
X154045500Y-82477024D01*
X154045499Y-82477022D01*
X154005323Y-82275046D01*
X154005322Y-82275039D01*
X153926510Y-82084770D01*
X153926509Y-82084767D01*
X153812096Y-81913536D01*
X153812090Y-81913528D01*
X153666471Y-81767909D01*
X153666463Y-81767903D01*
X153495232Y-81653490D01*
X153304961Y-81574678D01*
X153304953Y-81574676D01*
X153102976Y-81534500D01*
X153102973Y-81534500D01*
X152897027Y-81534500D01*
X152897024Y-81534500D01*
X152695046Y-81574676D01*
X152695038Y-81574678D01*
X152504767Y-81653490D01*
X152333536Y-81767903D01*
X152333528Y-81767909D01*
X152187909Y-81913528D01*
X152187903Y-81913536D01*
X152073490Y-82084767D01*
X151994678Y-82275038D01*
X151994676Y-82275046D01*
X151954500Y-82477022D01*
X151954500Y-82682977D01*
X151994676Y-82884953D01*
X151994678Y-82884961D01*
X152073490Y-83075232D01*
X152187903Y-83246463D01*
X152187909Y-83246471D01*
X152333526Y-83392088D01*
X152333531Y-83392092D01*
X152333532Y-83392093D01*
X152344389Y-83399347D01*
X152389195Y-83452958D01*
X152399500Y-83502450D01*
X152399500Y-84650500D01*
X152379815Y-84717539D01*
X152327011Y-84763294D01*
X152275501Y-84774500D01*
X152149999Y-84774500D01*
X152149980Y-84774501D01*
X152047203Y-84785000D01*
X152047200Y-84785001D01*
X151880668Y-84840185D01*
X151880663Y-84840187D01*
X151731342Y-84932289D01*
X151607288Y-85056343D01*
X151607283Y-85056349D01*
X151605241Y-85059661D01*
X151603247Y-85061453D01*
X151602807Y-85062011D01*
X151602711Y-85061935D01*
X151553291Y-85106383D01*
X151484328Y-85117602D01*
X151420247Y-85089755D01*
X151394168Y-85059656D01*
X151392319Y-85056659D01*
X151392316Y-85056655D01*
X151268345Y-84932684D01*
X151119124Y-84840643D01*
X151119119Y-84840641D01*
X150952697Y-84785494D01*
X150952690Y-84785493D01*
X150849986Y-84775000D01*
X150712500Y-84775000D01*
X150212500Y-84775000D01*
X150075027Y-84775000D01*
X150075012Y-84775001D01*
X149972302Y-84785494D01*
X149805880Y-84840641D01*
X149805875Y-84840643D01*
X149656654Y-84932684D01*
X149532684Y-85056654D01*
X149440643Y-85205875D01*
X149440641Y-85205880D01*
X149385494Y-85372302D01*
X149385493Y-85372309D01*
X149375000Y-85475013D01*
X138000500Y-85475013D01*
X138000500Y-80935016D01*
X149918535Y-80935016D01*
X149965000Y-80966063D01*
X149965013Y-80966070D01*
X150155180Y-81044839D01*
X150155192Y-81044842D01*
X150357072Y-81084999D01*
X150357075Y-81085000D01*
X150562925Y-81085000D01*
X150562927Y-81084999D01*
X150764807Y-81044842D01*
X150764819Y-81044839D01*
X150954986Y-80966070D01*
X151001462Y-80935015D01*
X150460001Y-80393553D01*
X150460000Y-80393553D01*
X149918535Y-80935016D01*
X138000500Y-80935016D01*
X138000500Y-79937072D01*
X149415000Y-79937072D01*
X149415000Y-80142927D01*
X149455157Y-80344807D01*
X149455160Y-80344819D01*
X149533930Y-80534989D01*
X149564983Y-80581462D01*
X150106446Y-80040000D01*
X150106446Y-80039999D01*
X150061027Y-79994580D01*
X150115000Y-79994580D01*
X150115000Y-80085420D01*
X150138511Y-80173165D01*
X150183931Y-80251835D01*
X150248165Y-80316069D01*
X150326835Y-80361489D01*
X150414580Y-80385000D01*
X150505420Y-80385000D01*
X150593165Y-80361489D01*
X150671835Y-80316069D01*
X150736069Y-80251835D01*
X150781489Y-80173165D01*
X150805000Y-80085420D01*
X150805000Y-80039999D01*
X150813553Y-80039999D01*
X150813553Y-80040000D01*
X151355015Y-80581462D01*
X151386070Y-80534986D01*
X151464839Y-80344819D01*
X151464842Y-80344807D01*
X151504999Y-80142927D01*
X151505000Y-80142925D01*
X151505000Y-79937073D01*
X151504990Y-79937022D01*
X154494500Y-79937022D01*
X154494500Y-80142977D01*
X154534676Y-80344953D01*
X154534678Y-80344961D01*
X154613490Y-80535232D01*
X154727903Y-80706463D01*
X154727909Y-80706471D01*
X154873528Y-80852090D01*
X154873536Y-80852096D01*
X155044767Y-80966509D01*
X155100496Y-80989592D01*
X155235039Y-81045322D01*
X155434508Y-81084999D01*
X155437022Y-81085499D01*
X155437025Y-81085500D01*
X155437027Y-81085500D01*
X155642975Y-81085500D01*
X155642976Y-81085499D01*
X155844961Y-81045322D01*
X156035230Y-80966510D01*
X156035230Y-80966509D01*
X156035232Y-80966509D01*
X156120275Y-80909684D01*
X156206468Y-80852093D01*
X156352093Y-80706468D01*
X156466510Y-80535230D01*
X156545322Y-80344961D01*
X156585500Y-80142973D01*
X156585500Y-79937027D01*
X156585500Y-79937024D01*
X156585499Y-79937022D01*
X156545352Y-79735192D01*
X156545322Y-79735039D01*
X156466611Y-79545013D01*
X156466509Y-79544767D01*
X156352096Y-79373536D01*
X156352090Y-79373528D01*
X156206471Y-79227909D01*
X156206463Y-79227903D01*
X156035232Y-79113490D01*
X155844961Y-79034678D01*
X155844953Y-79034676D01*
X155642976Y-78994500D01*
X155642973Y-78994500D01*
X155437027Y-78994500D01*
X155437024Y-78994500D01*
X155235046Y-79034676D01*
X155235038Y-79034678D01*
X155044767Y-79113490D01*
X154873536Y-79227903D01*
X154873528Y-79227909D01*
X154727909Y-79373528D01*
X154727903Y-79373536D01*
X154613490Y-79544767D01*
X154534678Y-79735038D01*
X154534676Y-79735046D01*
X154494500Y-79937022D01*
X151504990Y-79937022D01*
X151464842Y-79735192D01*
X151464839Y-79735180D01*
X151386070Y-79545013D01*
X151386063Y-79545000D01*
X151355016Y-79498535D01*
X150813553Y-80039999D01*
X150805000Y-80039999D01*
X150805000Y-79994580D01*
X150781489Y-79906835D01*
X150736069Y-79828165D01*
X150671835Y-79763931D01*
X150593165Y-79718511D01*
X150505420Y-79695000D01*
X150414580Y-79695000D01*
X150326835Y-79718511D01*
X150248165Y-79763931D01*
X150183931Y-79828165D01*
X150138511Y-79906835D01*
X150115000Y-79994580D01*
X150061027Y-79994580D01*
X149564983Y-79498535D01*
X149533931Y-79545010D01*
X149455159Y-79735184D01*
X149455157Y-79735192D01*
X149415000Y-79937072D01*
X138000500Y-79937072D01*
X138000500Y-79144983D01*
X149918535Y-79144983D01*
X150460000Y-79686446D01*
X150460001Y-79686446D01*
X151001462Y-79144983D01*
X151001462Y-79144982D01*
X150954989Y-79113930D01*
X150764819Y-79035160D01*
X150764807Y-79035157D01*
X150562926Y-78995000D01*
X150357074Y-78995000D01*
X150155192Y-79035157D01*
X150155184Y-79035159D01*
X149965010Y-79113931D01*
X149918535Y-79144983D01*
X138000500Y-79144983D01*
X138000500Y-76907135D01*
X151954500Y-76907135D01*
X151954500Y-78092870D01*
X151954501Y-78092876D01*
X151960908Y-78152483D01*
X152011202Y-78287328D01*
X152011206Y-78287335D01*
X152097452Y-78402544D01*
X152097455Y-78402547D01*
X152212664Y-78488793D01*
X152212671Y-78488797D01*
X152347517Y-78539091D01*
X152347516Y-78539091D01*
X152354444Y-78539835D01*
X152407127Y-78545500D01*
X153592872Y-78545499D01*
X153652483Y-78539091D01*
X153787331Y-78488796D01*
X153902546Y-78402546D01*
X153988796Y-78287331D01*
X154039091Y-78152483D01*
X154045500Y-78092873D01*
X154045499Y-76907128D01*
X154039091Y-76847517D01*
X153988796Y-76712669D01*
X153988795Y-76712668D01*
X153988793Y-76712664D01*
X153902547Y-76597455D01*
X153902544Y-76597452D01*
X153787335Y-76511206D01*
X153787328Y-76511202D01*
X153652482Y-76460908D01*
X153652483Y-76460908D01*
X153592883Y-76454501D01*
X153592881Y-76454500D01*
X153592873Y-76454500D01*
X153592864Y-76454500D01*
X152407129Y-76454500D01*
X152407123Y-76454501D01*
X152347516Y-76460908D01*
X152212671Y-76511202D01*
X152212664Y-76511206D01*
X152097455Y-76597452D01*
X152097452Y-76597455D01*
X152011206Y-76712664D01*
X152011202Y-76712671D01*
X151960908Y-76847517D01*
X151954501Y-76907116D01*
X151954501Y-76907123D01*
X151954500Y-76907135D01*
X138000500Y-76907135D01*
X138000500Y-74524986D01*
X147912501Y-74524986D01*
X147922994Y-74627697D01*
X147978141Y-74794119D01*
X147978143Y-74794124D01*
X148070184Y-74943345D01*
X148194154Y-75067315D01*
X148343375Y-75159356D01*
X148343380Y-75159358D01*
X148509802Y-75214505D01*
X148509809Y-75214506D01*
X148612519Y-75224999D01*
X148749999Y-75224999D01*
X148750000Y-75224998D01*
X148750000Y-74250000D01*
X147912501Y-74250000D01*
X147912501Y-74524986D01*
X138000500Y-74524986D01*
X138000500Y-72368872D01*
X139499500Y-72368872D01*
X139499500Y-72631127D01*
X139521977Y-72801844D01*
X139533730Y-72891116D01*
X139601602Y-73144418D01*
X139601605Y-73144428D01*
X139701953Y-73386690D01*
X139701958Y-73386700D01*
X139833075Y-73613803D01*
X139992718Y-73821851D01*
X139992726Y-73821860D01*
X140178140Y-74007274D01*
X140178148Y-74007281D01*
X140386196Y-74166924D01*
X140613299Y-74298041D01*
X140613309Y-74298046D01*
X140855571Y-74398394D01*
X140855581Y-74398398D01*
X141108884Y-74466270D01*
X141368880Y-74500500D01*
X141368887Y-74500500D01*
X141631113Y-74500500D01*
X141631120Y-74500500D01*
X141891116Y-74466270D01*
X142144419Y-74398398D01*
X142386697Y-74298043D01*
X142613803Y-74166924D01*
X142821851Y-74007282D01*
X142821855Y-74007277D01*
X142821860Y-74007274D01*
X143007274Y-73821860D01*
X143007277Y-73821855D01*
X143007282Y-73821851D01*
X143166924Y-73613803D01*
X143298043Y-73386697D01*
X143398398Y-73144419D01*
X143466270Y-72891116D01*
X143500500Y-72631120D01*
X143500500Y-72368880D01*
X143484849Y-72250000D01*
X143480218Y-72214823D01*
X143468523Y-72126000D01*
X143466270Y-72108884D01*
X143398398Y-71855581D01*
X143336538Y-71706237D01*
X143298046Y-71613309D01*
X143298041Y-71613299D01*
X143166927Y-71386201D01*
X143087122Y-71282198D01*
X143022633Y-71198155D01*
X147436000Y-71198155D01*
X147436000Y-71750000D01*
X148256988Y-71750000D01*
X148224075Y-71807007D01*
X148190000Y-71934174D01*
X148190000Y-72065826D01*
X148224075Y-72192993D01*
X148256988Y-72250000D01*
X147436000Y-72250000D01*
X147436000Y-72801844D01*
X147442401Y-72861372D01*
X147442403Y-72861379D01*
X147492645Y-72996086D01*
X147492649Y-72996093D01*
X147578809Y-73111187D01*
X147578812Y-73111190D01*
X147693906Y-73197350D01*
X147693913Y-73197354D01*
X147835892Y-73250309D01*
X147835316Y-73251850D01*
X147888015Y-73281852D01*
X147920406Y-73343760D01*
X147922149Y-73380565D01*
X147912500Y-73475011D01*
X147912500Y-73750000D01*
X148876000Y-73750000D01*
X148943039Y-73769685D01*
X148988794Y-73822489D01*
X149000000Y-73874000D01*
X149000000Y-74000000D01*
X149126000Y-74000000D01*
X149193039Y-74019685D01*
X149238794Y-74072489D01*
X149250000Y-74124000D01*
X149250000Y-75224999D01*
X149387472Y-75224999D01*
X149387486Y-75224998D01*
X149490197Y-75214505D01*
X149656619Y-75159358D01*
X149656624Y-75159356D01*
X149805845Y-75067315D01*
X149929818Y-74943342D01*
X149931665Y-74940348D01*
X149933469Y-74938724D01*
X149934298Y-74937677D01*
X149934476Y-74937818D01*
X149983610Y-74893621D01*
X150052573Y-74882396D01*
X150116656Y-74910236D01*
X150142743Y-74940341D01*
X150144788Y-74943656D01*
X150268844Y-75067712D01*
X150418166Y-75159814D01*
X150584703Y-75214999D01*
X150687491Y-75225500D01*
X151462508Y-75225499D01*
X151462516Y-75225498D01*
X151462519Y-75225498D01*
X151518802Y-75219748D01*
X151565297Y-75214999D01*
X151731834Y-75159814D01*
X151881156Y-75067712D01*
X152005212Y-74943656D01*
X152097314Y-74794334D01*
X152152499Y-74627797D01*
X152163000Y-74525009D01*
X152162999Y-73474992D01*
X152152499Y-73372203D01*
X152097314Y-73205666D01*
X152034774Y-73104272D01*
X152016335Y-73036882D01*
X152037258Y-72970219D01*
X152052623Y-72951507D01*
X152186879Y-72817252D01*
X152198074Y-72801844D01*
X152302941Y-72657505D01*
X152302942Y-72657504D01*
X152302944Y-72657501D01*
X152389517Y-72487593D01*
X152437490Y-72436800D01*
X152505311Y-72420005D01*
X152571446Y-72442542D01*
X152610482Y-72487593D01*
X152683614Y-72631120D01*
X152697058Y-72657505D01*
X152813115Y-72817246D01*
X152952753Y-72956884D01*
X153089651Y-73056344D01*
X153112499Y-73072944D01*
X153288439Y-73162591D01*
X153395417Y-73197350D01*
X153476236Y-73223610D01*
X153671264Y-73254500D01*
X153671269Y-73254500D01*
X153868736Y-73254500D01*
X154063763Y-73223610D01*
X154251561Y-73162591D01*
X154427501Y-73072944D01*
X154533288Y-72996086D01*
X154587246Y-72956884D01*
X154587248Y-72956881D01*
X154587252Y-72956879D01*
X154726879Y-72817252D01*
X154726881Y-72817248D01*
X154726884Y-72817246D01*
X154842941Y-72657505D01*
X154842942Y-72657504D01*
X154842944Y-72657501D01*
X154929517Y-72487593D01*
X154977490Y-72436800D01*
X155045311Y-72420005D01*
X155111446Y-72442542D01*
X155150482Y-72487593D01*
X155223614Y-72631120D01*
X155237058Y-72657505D01*
X155353115Y-72817246D01*
X155492753Y-72956884D01*
X155629651Y-73056344D01*
X155652499Y-73072944D01*
X155828439Y-73162591D01*
X155935417Y-73197350D01*
X156016236Y-73223610D01*
X156211264Y-73254500D01*
X156211269Y-73254500D01*
X156408736Y-73254500D01*
X156603763Y-73223610D01*
X156791561Y-73162591D01*
X156967501Y-73072944D01*
X157073288Y-72996086D01*
X157127246Y-72956884D01*
X157127248Y-72956881D01*
X157127252Y-72956879D01*
X157266879Y-72817252D01*
X157266881Y-72817248D01*
X157266884Y-72817246D01*
X157317779Y-72747192D01*
X157382944Y-72657501D01*
X157472591Y-72481561D01*
X157509206Y-72368872D01*
X161499500Y-72368872D01*
X161499500Y-72631127D01*
X161521977Y-72801844D01*
X161533730Y-72891116D01*
X161601602Y-73144418D01*
X161601605Y-73144428D01*
X161701953Y-73386690D01*
X161701958Y-73386700D01*
X161833075Y-73613803D01*
X161992718Y-73821851D01*
X161992726Y-73821860D01*
X162178140Y-74007274D01*
X162178148Y-74007281D01*
X162386196Y-74166924D01*
X162613299Y-74298041D01*
X162613309Y-74298046D01*
X162855571Y-74398394D01*
X162855581Y-74398398D01*
X163108884Y-74466270D01*
X163368880Y-74500500D01*
X163368887Y-74500500D01*
X163631113Y-74500500D01*
X163631120Y-74500500D01*
X163891116Y-74466270D01*
X164144419Y-74398398D01*
X164386697Y-74298043D01*
X164613803Y-74166924D01*
X164821851Y-74007282D01*
X164821855Y-74007277D01*
X164821860Y-74007274D01*
X165007274Y-73821860D01*
X165007277Y-73821855D01*
X165007282Y-73821851D01*
X165166924Y-73613803D01*
X165298043Y-73386697D01*
X165398398Y-73144419D01*
X165466270Y-72891116D01*
X165500500Y-72631120D01*
X165500500Y-72368880D01*
X165466270Y-72108884D01*
X165398398Y-71855581D01*
X165336538Y-71706237D01*
X165298046Y-71613309D01*
X165298041Y-71613299D01*
X165166924Y-71386196D01*
X165007281Y-71178148D01*
X165007274Y-71178140D01*
X164821860Y-70992726D01*
X164821851Y-70992718D01*
X164613803Y-70833075D01*
X164386700Y-70701958D01*
X164386690Y-70701953D01*
X164144428Y-70601605D01*
X164144421Y-70601603D01*
X164144419Y-70601602D01*
X163891116Y-70533730D01*
X163833339Y-70526123D01*
X163631127Y-70499500D01*
X163631120Y-70499500D01*
X163368880Y-70499500D01*
X163368872Y-70499500D01*
X163137772Y-70529926D01*
X163108884Y-70533730D01*
X162855581Y-70601602D01*
X162855571Y-70601605D01*
X162613309Y-70701953D01*
X162613299Y-70701958D01*
X162386196Y-70833075D01*
X162178148Y-70992718D01*
X161992718Y-71178148D01*
X161833075Y-71386196D01*
X161701958Y-71613299D01*
X161701953Y-71613309D01*
X161601605Y-71855571D01*
X161601602Y-71855581D01*
X161536451Y-72098731D01*
X161533730Y-72108885D01*
X161499500Y-72368872D01*
X157509206Y-72368872D01*
X157533610Y-72293763D01*
X157549563Y-72193039D01*
X157564500Y-72098736D01*
X157564500Y-71901263D01*
X157533610Y-71706236D01*
X157477671Y-71534075D01*
X157472591Y-71518439D01*
X157382944Y-71342499D01*
X157371681Y-71326997D01*
X157266884Y-71182753D01*
X157127246Y-71043115D01*
X156967504Y-70927058D01*
X156967503Y-70927057D01*
X156967501Y-70927056D01*
X156791561Y-70837409D01*
X156791558Y-70837408D01*
X156603763Y-70776389D01*
X156408736Y-70745500D01*
X156408731Y-70745500D01*
X156211269Y-70745500D01*
X156211264Y-70745500D01*
X156016236Y-70776389D01*
X155828441Y-70837408D01*
X155652495Y-70927058D01*
X155492753Y-71043115D01*
X155353115Y-71182753D01*
X155237058Y-71342495D01*
X155237056Y-71342499D01*
X155156805Y-71500000D01*
X155150485Y-71512403D01*
X155102510Y-71563199D01*
X155034689Y-71579994D01*
X154968554Y-71557456D01*
X154929515Y-71512403D01*
X154842944Y-71342499D01*
X154831681Y-71326997D01*
X154726884Y-71182753D01*
X154587246Y-71043115D01*
X154427504Y-70927058D01*
X154427503Y-70927057D01*
X154427501Y-70927056D01*
X154251561Y-70837409D01*
X154251558Y-70837408D01*
X154063763Y-70776389D01*
X153868736Y-70745500D01*
X153868731Y-70745500D01*
X153671269Y-70745500D01*
X153671264Y-70745500D01*
X153476236Y-70776389D01*
X153288441Y-70837408D01*
X153112495Y-70927058D01*
X152952753Y-71043115D01*
X152813115Y-71182753D01*
X152697058Y-71342495D01*
X152697056Y-71342499D01*
X152616805Y-71500000D01*
X152610485Y-71512403D01*
X152562510Y-71563199D01*
X152494689Y-71579994D01*
X152428554Y-71557456D01*
X152389515Y-71512403D01*
X152302944Y-71342499D01*
X152291681Y-71326997D01*
X152186884Y-71182753D01*
X152047246Y-71043115D01*
X151887504Y-70927058D01*
X151887503Y-70927057D01*
X151887501Y-70927056D01*
X151711561Y-70837409D01*
X151711558Y-70837408D01*
X151523763Y-70776389D01*
X151328736Y-70745500D01*
X151328731Y-70745500D01*
X151131269Y-70745500D01*
X151131264Y-70745500D01*
X150936236Y-70776389D01*
X150748441Y-70837408D01*
X150572495Y-70927058D01*
X150412753Y-71043115D01*
X150273115Y-71182753D01*
X150168318Y-71326997D01*
X150112989Y-71369663D01*
X150043375Y-71375642D01*
X149981580Y-71343037D01*
X149947223Y-71282198D01*
X149944000Y-71254112D01*
X149944000Y-71198172D01*
X149943999Y-71198155D01*
X149937598Y-71138627D01*
X149937596Y-71138620D01*
X149887354Y-71003913D01*
X149887350Y-71003906D01*
X149801190Y-70888812D01*
X149801187Y-70888809D01*
X149686093Y-70802649D01*
X149686086Y-70802645D01*
X149551379Y-70752403D01*
X149551372Y-70752401D01*
X149491844Y-70746000D01*
X148940000Y-70746000D01*
X148940000Y-71566988D01*
X148882993Y-71534075D01*
X148755826Y-71500000D01*
X148624174Y-71500000D01*
X148497007Y-71534075D01*
X148440000Y-71566988D01*
X148440000Y-70746000D01*
X147888155Y-70746000D01*
X147828627Y-70752401D01*
X147828620Y-70752403D01*
X147693913Y-70802645D01*
X147693906Y-70802649D01*
X147578812Y-70888809D01*
X147578809Y-70888812D01*
X147492649Y-71003906D01*
X147492645Y-71003913D01*
X147442403Y-71138620D01*
X147442401Y-71138627D01*
X147436000Y-71198155D01*
X143022633Y-71198155D01*
X143007282Y-71178149D01*
X143007281Y-71178148D01*
X143007274Y-71178140D01*
X142821860Y-70992726D01*
X142821851Y-70992718D01*
X142613803Y-70833075D01*
X142386700Y-70701958D01*
X142386690Y-70701953D01*
X142144428Y-70601605D01*
X142144421Y-70601603D01*
X142144419Y-70601602D01*
X141891116Y-70533730D01*
X141833339Y-70526123D01*
X141631127Y-70499500D01*
X141631120Y-70499500D01*
X141368880Y-70499500D01*
X141368872Y-70499500D01*
X141137772Y-70529926D01*
X141108884Y-70533730D01*
X140855581Y-70601602D01*
X140855571Y-70601605D01*
X140613309Y-70701953D01*
X140613299Y-70701958D01*
X140386196Y-70833075D01*
X140178148Y-70992718D01*
X139992718Y-71178148D01*
X139833075Y-71386196D01*
X139701958Y-71613299D01*
X139701953Y-71613309D01*
X139601605Y-71855571D01*
X139601602Y-71855581D01*
X139536451Y-72098731D01*
X139533730Y-72108885D01*
X139499500Y-72368872D01*
X138000500Y-72368872D01*
X138000500Y-70124500D01*
X138020185Y-70057461D01*
X138072989Y-70011706D01*
X138124500Y-70000500D01*
X167375500Y-70000500D01*
X167442539Y-70020185D01*
G37*
%TD.AperFunction*%
%TD*%
M02*
