%TF.GenerationSoftware,KiCad,Pcbnew,9.0.2*%
%TF.CreationDate,2026-07-05T22:09:36-03:00*%
%TF.ProjectId,IR_Termostat,49525f54-6572-46d6-9f73-7461742e6b69,rev?*%
%TF.SameCoordinates,Original*%
%TF.FileFunction,Copper,L2,Bot*%
%TF.FilePolarity,Positive*%
%FSLAX46Y46*%
G04 Gerber Fmt 4.6, Leading zero omitted, Abs format (unit mm)*
G04 Created by KiCad (PCBNEW 9.0.2) date 2026-07-05 22:09:36*
%MOMM*%
%LPD*%
G01*
G04 APERTURE LIST*
G04 Aperture macros list*
%AMRoundRect*
0 Rectangle with rounded corners*
0 $1 Rounding radius*
0 $2 $3 $4 $5 $6 $7 $8 $9 X,Y pos of 4 corners*
0 Add a 4 corners polygon primitive as box body*
4,1,4,$2,$3,$4,$5,$6,$7,$8,$9,$2,$3,0*
0 Add four circle primitives for the rounded corners*
1,1,$1+$1,$2,$3*
1,1,$1+$1,$4,$5*
1,1,$1+$1,$6,$7*
1,1,$1+$1,$8,$9*
0 Add four rect primitives between the rounded corners*
20,1,$1+$1,$2,$3,$4,$5,0*
20,1,$1+$1,$4,$5,$6,$7,0*
20,1,$1+$1,$6,$7,$8,$9,0*
20,1,$1+$1,$8,$9,$2,$3,0*%
G04 Aperture macros list end*
%TA.AperFunction,HeatsinkPad*%
%ADD10C,0.600000*%
%TD*%
%TA.AperFunction,HeatsinkPad*%
%ADD11R,1.900000X2.900000*%
%TD*%
%TA.AperFunction,ComponentPad*%
%ADD12C,2.000000*%
%TD*%
%TA.AperFunction,HeatsinkPad*%
%ADD13R,1.800000X2.500000*%
%TD*%
%TA.AperFunction,ComponentPad*%
%ADD14C,0.600000*%
%TD*%
%TA.AperFunction,ComponentPad*%
%ADD15R,1.700000X1.700000*%
%TD*%
%TA.AperFunction,ComponentPad*%
%ADD16C,1.700000*%
%TD*%
%TA.AperFunction,ComponentPad*%
%ADD17C,1.500000*%
%TD*%
%TA.AperFunction,ComponentPad*%
%ADD18R,1.508000X1.508000*%
%TD*%
%TA.AperFunction,ComponentPad*%
%ADD19C,1.508000*%
%TD*%
%TA.AperFunction,ComponentPad*%
%ADD20C,3.000000*%
%TD*%
%TA.AperFunction,HeatsinkPad*%
%ADD21O,1.100000X1.700000*%
%TD*%
%TA.AperFunction,SMDPad,CuDef*%
%ADD22RoundRect,0.250000X0.337500X0.475000X-0.337500X0.475000X-0.337500X-0.475000X0.337500X-0.475000X0*%
%TD*%
%TA.AperFunction,ComponentPad*%
%ADD23RoundRect,0.250000X-0.350000X-0.625000X0.350000X-0.625000X0.350000X0.625000X-0.350000X0.625000X0*%
%TD*%
%TA.AperFunction,ComponentPad*%
%ADD24O,1.200000X1.750000*%
%TD*%
%TA.AperFunction,ComponentPad*%
%ADD25R,1.090000X1.090000*%
%TD*%
%TA.AperFunction,ComponentPad*%
%ADD26C,1.090000*%
%TD*%
%TA.AperFunction,ViaPad*%
%ADD27C,0.600000*%
%TD*%
%TA.AperFunction,Conductor*%
%ADD28C,0.200000*%
%TD*%
%TA.AperFunction,Conductor*%
%ADD29C,0.300000*%
%TD*%
%TA.AperFunction,Conductor*%
%ADD30C,0.500000*%
%TD*%
G04 APERTURE END LIST*
D10*
%TO.P,U1,9,EPAD*%
%TO.N,GND*%
X143870815Y-129242801D03*
X143877851Y-128356286D03*
X143891922Y-127483844D03*
D11*
X144300000Y-128300000D03*
D10*
X144799543Y-128335179D03*
X144820651Y-129235765D03*
X144827687Y-127441629D03*
%TD*%
D12*
%TO.P,SW1,1,A*%
%TO.N,Net-(SW1-A)*%
X152000000Y-109000000D03*
X152000000Y-102500000D03*
%TO.P,SW1,2,B*%
%TO.N,GND*%
X156500000Y-109000000D03*
X156500000Y-102500000D03*
%TD*%
D13*
%TO.P,U3,9,EPAD*%
%TO.N,Net-(J2-Pin_2)*%
X163350000Y-122000000D03*
D14*
X163350000Y-121403741D03*
X163305917Y-122682175D03*
%TD*%
D15*
%TO.P,J3,1,Pin_1*%
%TO.N,+5V*%
X146040000Y-109500000D03*
D16*
%TO.P,J3,2,Pin_2*%
%TO.N,SWIO*%
X143500000Y-109500000D03*
%TO.P,J3,3,Pin_3*%
%TO.N,GND*%
X140960000Y-109500000D03*
%TD*%
D17*
%TO.P,LDR1,1*%
%TO.N,+3.3V*%
X163400000Y-103500000D03*
%TO.P,LDR1,2*%
%TO.N,Net-(U5-PA2)*%
X160000000Y-103500000D03*
%TD*%
D18*
%TO.P,DISPLAY_1,1,GND*%
%TO.N,GND*%
X148690000Y-72000000D03*
D19*
%TO.P,DISPLAY_1,2,VCC_IN*%
%TO.N,+3.3V*%
X151230000Y-72000000D03*
%TO.P,DISPLAY_1,3,SCL*%
%TO.N,SCL*%
X153770000Y-72000000D03*
%TO.P,DISPLAY_1,4,SDA*%
%TO.N,SDA*%
X156310000Y-72000000D03*
D20*
%TO.P,DISPLAY_1,S1*%
%TO.N,N/C*%
X141500000Y-72500000D03*
%TO.P,DISPLAY_1,S2*%
X163500000Y-72500000D03*
%TO.P,DISPLAY_1,S3*%
X163500000Y-94500000D03*
%TO.P,DISPLAY_1,S4*%
X141500000Y-94500000D03*
%TD*%
D21*
%TO.P,J1,S1,SHIELD*%
%TO.N,GND*%
X149200000Y-127580000D03*
X149200000Y-131380000D03*
X157840000Y-127580000D03*
X157840000Y-131380000D03*
%TD*%
D22*
%TO.P,C7,1*%
%TO.N,+3.3V*%
X152537500Y-86000000D03*
%TO.P,C7,2*%
%TO.N,GND*%
X150462500Y-86000000D03*
%TD*%
D23*
%TO.P,J2,1,Pin_1*%
%TO.N,Vbat+*%
X152000000Y-124950000D03*
D24*
%TO.P,J2,2,Pin_2*%
%TO.N,Net-(J2-Pin_2)*%
X154000000Y-124950000D03*
%TD*%
D22*
%TO.P,C8,1*%
%TO.N,+3.3V*%
X150500000Y-74500000D03*
%TO.P,C8,2*%
%TO.N,GND*%
X148425000Y-74500000D03*
%TD*%
D25*
%TO.P,U4,1,SCL/VZ*%
%TO.N,SCL*%
X153000000Y-77500000D03*
D26*
%TO.P,U4,2,SDA/PWM*%
%TO.N,SDA*%
X155540000Y-80040000D03*
%TO.P,U4,3,VDD*%
%TO.N,+3.3V*%
X153000000Y-82580000D03*
%TO.P,U4,4,VSS*%
%TO.N,GND*%
X150460000Y-80040000D03*
%TD*%
D27*
%TO.N,GND*%
X160500000Y-125500000D03*
X164890252Y-125109748D03*
X155786026Y-117382784D03*
X146000000Y-100500000D03*
X139504028Y-130214039D03*
X165825000Y-118500000D03*
X165500000Y-107000000D03*
X165000000Y-116500000D03*
X158438841Y-109141487D03*
X164500000Y-115211648D03*
X146500000Y-105000000D03*
X142500000Y-122000000D03*
X163000000Y-125500000D03*
X166000000Y-101000000D03*
X149000000Y-114900000D03*
X138300000Y-120000000D03*
X150500000Y-120500000D03*
X146914985Y-125434985D03*
%TO.N,+5V*%
X146000000Y-118500000D03*
X147500000Y-117000000D03*
X157500000Y-115412500D03*
X157500000Y-116712500D03*
X141151658Y-125000187D03*
X142600000Y-125000000D03*
%TO.N,Vbat+*%
X152000000Y-129000000D03*
%TO.N,CHRG*%
X148205476Y-128374395D03*
X142161000Y-113000000D03*
X143702581Y-122000000D03*
X141000000Y-116000000D03*
%TD*%
D28*
%TO.N,GND*%
X158000000Y-101000000D02*
X156500000Y-102500000D01*
D29*
X158438841Y-109141487D02*
X158438841Y-109061159D01*
D28*
X138800000Y-120000000D02*
X139300000Y-120500000D01*
X142295531Y-122000000D02*
X142500000Y-122000000D01*
X158300000Y-127700000D02*
X157820000Y-127700000D01*
X146000000Y-104500000D02*
X146500000Y-105000000D01*
X149000000Y-72310000D02*
X148690000Y-72000000D01*
X149000000Y-118500000D02*
X149000000Y-114900000D01*
X150462500Y-83462500D02*
X150462500Y-86000000D01*
X149500000Y-82500000D02*
X150462500Y-83462500D01*
X150000000Y-120000000D02*
X150000000Y-119500000D01*
D29*
X160500000Y-107000000D02*
X165500000Y-107000000D01*
D28*
X150500000Y-120500000D02*
X150000000Y-120000000D01*
X145439759Y-128975395D02*
X148854605Y-128975395D01*
X164500000Y-125500000D02*
X163000000Y-125500000D01*
X158438841Y-109141487D02*
X156641487Y-109141487D01*
X140000000Y-122414192D02*
X139000000Y-123414192D01*
X148425000Y-72265000D02*
X148690000Y-72000000D01*
X164890252Y-125109748D02*
X164500000Y-125500000D01*
X165000000Y-117000000D02*
X166000000Y-118000000D01*
X150460000Y-80040000D02*
X150386609Y-80040000D01*
X139500000Y-120500000D02*
X140000000Y-121000000D01*
X139300000Y-120500000D02*
X139500000Y-120500000D01*
X144800000Y-128300000D02*
X147880000Y-131380000D01*
D29*
X155786026Y-117382784D02*
X155786026Y-118213974D01*
D28*
X150000000Y-119500000D02*
X149000000Y-118500000D01*
D29*
X153477672Y-120500000D02*
X150500000Y-120500000D01*
D28*
X139504028Y-129462312D02*
X139504028Y-130214039D01*
X139504028Y-130214039D02*
X139504028Y-129495972D01*
X166000000Y-101000000D02*
X158000000Y-101000000D01*
X148854605Y-128975395D02*
X149200000Y-128630000D01*
X165000000Y-116500000D02*
X165000000Y-117000000D01*
X150386609Y-80040000D02*
X149673456Y-79326847D01*
X160500000Y-125500000D02*
X163000000Y-125500000D01*
X150460000Y-80040000D02*
X149500000Y-81000000D01*
D29*
X155687259Y-118290413D02*
X153477672Y-120500000D01*
D28*
X139300000Y-120500000D02*
X140795531Y-120500000D01*
X144799543Y-128335179D02*
X145439759Y-128975395D01*
D30*
X148425000Y-74500000D02*
X148425000Y-72265000D01*
D28*
X149673456Y-78173456D02*
X148425000Y-76925000D01*
X148425000Y-76925000D02*
X148425000Y-74575000D01*
X146000000Y-100500000D02*
X146000000Y-104500000D01*
X139000000Y-123414192D02*
X139000000Y-128958284D01*
X147880000Y-131380000D02*
X149200000Y-131380000D01*
D29*
X155709587Y-118290413D02*
X155687259Y-118290413D01*
D28*
X156641487Y-109141487D02*
X156500000Y-109000000D01*
X166000000Y-118000000D02*
X166000000Y-118325000D01*
X140700000Y-128300000D02*
X144300000Y-128300000D01*
D29*
X155786026Y-118213974D02*
X155709587Y-118290413D01*
D28*
X146914985Y-125434985D02*
X149180000Y-127700000D01*
X160500000Y-125500000D02*
X158300000Y-127700000D01*
X149200000Y-128630000D02*
X149200000Y-127580000D01*
X149673456Y-79326847D02*
X149673456Y-78173456D01*
X166000000Y-118325000D02*
X165825000Y-118500000D01*
X149500000Y-81000000D02*
X149500000Y-82500000D01*
D29*
X158438841Y-109061159D02*
X160500000Y-107000000D01*
D28*
X164500000Y-115211648D02*
X164500000Y-116000000D01*
X139000000Y-128958284D02*
X139504028Y-129462312D01*
X140000000Y-121000000D02*
X140000000Y-122414192D01*
X156500000Y-109000000D02*
X156500000Y-102500000D01*
X138300000Y-120000000D02*
X138800000Y-120000000D01*
X144300000Y-128300000D02*
X144800000Y-128300000D01*
X140795531Y-120500000D02*
X142295531Y-122000000D01*
X164500000Y-116000000D02*
X165000000Y-116500000D01*
X139504028Y-129495972D02*
X140700000Y-128300000D01*
%TO.N,+5V*%
X157500000Y-116712500D02*
X157500000Y-115412500D01*
X142600000Y-125000000D02*
X141151845Y-125000000D01*
X146000000Y-118500000D02*
X147500000Y-117000000D01*
X141151845Y-125000000D02*
X141151658Y-125000187D01*
%TO.N,+3.3V*%
X150575000Y-74500000D02*
X150500000Y-74500000D01*
X153000000Y-85537500D02*
X153000000Y-82580000D01*
D30*
X151500000Y-72270000D02*
X150500000Y-73270000D01*
X150500000Y-74425000D02*
X150575000Y-74500000D01*
D28*
X151230000Y-72000000D02*
X151500000Y-72270000D01*
X152537500Y-86000000D02*
X153000000Y-85537500D01*
D30*
X150500000Y-73270000D02*
X150500000Y-74425000D01*
D29*
%TO.N,Net-(J2-Pin_2)*%
X154450000Y-124500000D02*
X154000000Y-124950000D01*
D28*
%TO.N,Vbat+*%
X152000000Y-129000000D02*
X152000000Y-125500000D01*
%TO.N,CHRG*%
X143702581Y-122000000D02*
X143702581Y-123702581D01*
D29*
X148205476Y-128374395D02*
X148273677Y-128306194D01*
D28*
X143702581Y-123702581D02*
X148273677Y-128273677D01*
X141000000Y-116000000D02*
X142161000Y-114839000D01*
D29*
X148273677Y-128306194D02*
X148273677Y-128273677D01*
D28*
X142161000Y-114839000D02*
X142161000Y-113000000D01*
%TO.N,Net-(SW1-A)*%
X152000000Y-102500000D02*
X152000000Y-109000000D01*
%TD*%
%TA.AperFunction,Conductor*%
%TO.N,GND*%
G36*
X167442539Y-70020185D02*
G01*
X167488294Y-70072989D01*
X167499500Y-70124500D01*
X167499500Y-133375500D01*
X167479815Y-133442539D01*
X167427011Y-133488294D01*
X167375500Y-133499500D01*
X138124500Y-133499500D01*
X138057461Y-133479815D01*
X138011706Y-133427011D01*
X138000500Y-133375500D01*
X138000500Y-130976579D01*
X148150000Y-130976579D01*
X148150000Y-131130000D01*
X148850000Y-131130000D01*
X148850000Y-131630000D01*
X148150000Y-131630000D01*
X148150000Y-131783420D01*
X148190348Y-131986266D01*
X148190350Y-131986274D01*
X148269500Y-132177358D01*
X148269505Y-132177368D01*
X148384410Y-132349335D01*
X148384413Y-132349339D01*
X148530660Y-132495586D01*
X148530664Y-132495589D01*
X148702631Y-132610494D01*
X148702641Y-132610499D01*
X148893723Y-132689648D01*
X148893725Y-132689649D01*
X148950000Y-132700842D01*
X148950000Y-131874975D01*
X148985095Y-131910070D01*
X149064905Y-131956148D01*
X149153922Y-131980000D01*
X149246078Y-131980000D01*
X149335095Y-131956148D01*
X149414905Y-131910070D01*
X149450000Y-131874975D01*
X149450000Y-132700842D01*
X149506274Y-132689649D01*
X149506276Y-132689648D01*
X149697358Y-132610499D01*
X149697368Y-132610494D01*
X149869335Y-132495589D01*
X149869339Y-132495586D01*
X150015586Y-132349339D01*
X150015589Y-132349335D01*
X150130494Y-132177368D01*
X150130499Y-132177358D01*
X150209649Y-131986274D01*
X150209651Y-131986266D01*
X150249999Y-131783420D01*
X150250000Y-131783417D01*
X150250000Y-131630000D01*
X149550000Y-131630000D01*
X149550000Y-131130000D01*
X150250000Y-131130000D01*
X150250000Y-130976583D01*
X150249999Y-130976579D01*
X156790000Y-130976579D01*
X156790000Y-131130000D01*
X157490000Y-131130000D01*
X157490000Y-131630000D01*
X156790000Y-131630000D01*
X156790000Y-131783420D01*
X156830348Y-131986266D01*
X156830350Y-131986274D01*
X156909500Y-132177358D01*
X156909505Y-132177368D01*
X157024410Y-132349335D01*
X157024413Y-132349339D01*
X157170660Y-132495586D01*
X157170664Y-132495589D01*
X157342631Y-132610494D01*
X157342641Y-132610499D01*
X157533723Y-132689648D01*
X157533725Y-132689649D01*
X157590000Y-132700842D01*
X157590000Y-131874975D01*
X157625095Y-131910070D01*
X157704905Y-131956148D01*
X157793922Y-131980000D01*
X157886078Y-131980000D01*
X157975095Y-131956148D01*
X158054905Y-131910070D01*
X158090000Y-131874975D01*
X158090000Y-132700842D01*
X158146274Y-132689649D01*
X158146276Y-132689648D01*
X158337358Y-132610499D01*
X158337368Y-132610494D01*
X158509335Y-132495589D01*
X158509339Y-132495586D01*
X158655586Y-132349339D01*
X158655589Y-132349335D01*
X158770494Y-132177368D01*
X158770499Y-132177358D01*
X158849649Y-131986274D01*
X158849651Y-131986266D01*
X158889999Y-131783420D01*
X158890000Y-131783417D01*
X158890000Y-131630000D01*
X158190000Y-131630000D01*
X158190000Y-131130000D01*
X158890000Y-131130000D01*
X158890000Y-130976583D01*
X158889999Y-130976579D01*
X158849651Y-130773733D01*
X158849649Y-130773725D01*
X158770499Y-130582641D01*
X158770494Y-130582631D01*
X158655589Y-130410664D01*
X158655586Y-130410660D01*
X158509339Y-130264413D01*
X158509335Y-130264410D01*
X158337368Y-130149505D01*
X158337358Y-130149500D01*
X158146272Y-130070349D01*
X158146267Y-130070347D01*
X158090000Y-130059155D01*
X158090000Y-130885025D01*
X158054905Y-130849930D01*
X157975095Y-130803852D01*
X157886078Y-130780000D01*
X157793922Y-130780000D01*
X157704905Y-130803852D01*
X157625095Y-130849930D01*
X157590000Y-130885025D01*
X157590000Y-130059156D01*
X157589999Y-130059155D01*
X157533732Y-130070347D01*
X157533727Y-130070349D01*
X157342641Y-130149500D01*
X157342631Y-130149505D01*
X157170664Y-130264410D01*
X157170660Y-130264413D01*
X157024413Y-130410660D01*
X157024410Y-130410664D01*
X156909505Y-130582631D01*
X156909500Y-130582641D01*
X156830350Y-130773725D01*
X156830348Y-130773733D01*
X156790000Y-130976579D01*
X150249999Y-130976579D01*
X150209651Y-130773733D01*
X150209649Y-130773725D01*
X150130499Y-130582641D01*
X150130494Y-130582631D01*
X150015589Y-130410664D01*
X150015586Y-130410660D01*
X149869339Y-130264413D01*
X149869335Y-130264410D01*
X149697368Y-130149505D01*
X149697358Y-130149500D01*
X149506272Y-130070349D01*
X149506267Y-130070347D01*
X149450000Y-130059155D01*
X149450000Y-130885025D01*
X149414905Y-130849930D01*
X149335095Y-130803852D01*
X149246078Y-130780000D01*
X149153922Y-130780000D01*
X149064905Y-130803852D01*
X148985095Y-130849930D01*
X148950000Y-130885025D01*
X148950000Y-130059156D01*
X148949999Y-130059155D01*
X148893732Y-130070347D01*
X148893727Y-130070349D01*
X148702641Y-130149500D01*
X148702631Y-130149505D01*
X148530664Y-130264410D01*
X148530660Y-130264413D01*
X148384413Y-130410660D01*
X148384410Y-130410664D01*
X148269505Y-130582631D01*
X148269500Y-130582641D01*
X148190350Y-130773725D01*
X148190348Y-130773733D01*
X148150000Y-130976579D01*
X138000500Y-130976579D01*
X138000500Y-129958646D01*
X143508521Y-129958646D01*
X143637467Y-130012058D01*
X143637471Y-130012059D01*
X143792017Y-130042800D01*
X143792021Y-130042801D01*
X143949609Y-130042801D01*
X143949612Y-130042800D01*
X144104158Y-130012059D01*
X144104166Y-130012057D01*
X144249753Y-129951753D01*
X144282105Y-129930136D01*
X144348782Y-129909257D01*
X144416163Y-129927740D01*
X144419891Y-129930137D01*
X144441708Y-129944715D01*
X144441710Y-129944716D01*
X144587299Y-130005021D01*
X144587307Y-130005023D01*
X144741853Y-130035764D01*
X144741857Y-130035765D01*
X144899445Y-130035765D01*
X144899448Y-130035764D01*
X145053994Y-130005023D01*
X145053998Y-130005022D01*
X145182944Y-129951610D01*
X144643874Y-129412542D01*
X144437261Y-129205928D01*
X144670651Y-129205928D01*
X144670651Y-129265602D01*
X144693487Y-129320733D01*
X144735683Y-129362929D01*
X144790814Y-129385765D01*
X144850488Y-129385765D01*
X144905619Y-129362929D01*
X144947815Y-129320733D01*
X144970651Y-129265602D01*
X144970651Y-129205928D01*
X144947815Y-129150797D01*
X144905619Y-129108601D01*
X144850488Y-129085765D01*
X144790814Y-129085765D01*
X144735683Y-129108601D01*
X144693487Y-129150797D01*
X144670651Y-129205928D01*
X144437261Y-129205928D01*
X144390344Y-129159011D01*
X144338988Y-129159011D01*
X144338979Y-129159012D01*
X144308157Y-129159012D01*
X144047593Y-129419578D01*
X144047592Y-129419578D01*
X143508521Y-129958646D01*
X138000500Y-129958646D01*
X138000500Y-129164003D01*
X143070815Y-129164003D01*
X143070815Y-129321598D01*
X143101556Y-129476144D01*
X143101558Y-129476152D01*
X143154968Y-129605094D01*
X143547098Y-129212964D01*
X143720815Y-129212964D01*
X143720815Y-129272638D01*
X143743651Y-129327769D01*
X143785847Y-129369965D01*
X143840978Y-129392801D01*
X143900652Y-129392801D01*
X143955783Y-129369965D01*
X143997979Y-129327769D01*
X144020815Y-129272638D01*
X144020815Y-129212964D01*
X143997979Y-129157833D01*
X143955783Y-129115637D01*
X143900652Y-129092801D01*
X143840978Y-129092801D01*
X143785847Y-129115637D01*
X143743651Y-129157833D01*
X143720815Y-129212964D01*
X143547098Y-129212964D01*
X143694038Y-129066024D01*
X143964036Y-128796025D01*
X143964036Y-128796024D01*
X143788755Y-128620743D01*
X143755270Y-128559420D01*
X143760254Y-128489728D01*
X143775475Y-128466042D01*
X143792883Y-128483450D01*
X143848014Y-128506286D01*
X143907688Y-128506286D01*
X143962819Y-128483450D01*
X144005015Y-128441254D01*
X144027851Y-128386123D01*
X144027851Y-128356286D01*
X144231404Y-128356286D01*
X144231404Y-128356287D01*
X144308156Y-128433039D01*
X144326653Y-128433039D01*
X144347237Y-128421800D01*
X144360827Y-128420339D01*
X144445988Y-128335178D01*
X144416152Y-128305342D01*
X144649543Y-128305342D01*
X144649543Y-128365016D01*
X144672379Y-128420147D01*
X144714575Y-128462343D01*
X144769706Y-128485179D01*
X144829380Y-128485179D01*
X144884511Y-128462343D01*
X144900625Y-128446228D01*
X144922123Y-128485597D01*
X144917139Y-128555289D01*
X144888638Y-128599636D01*
X144713357Y-128774917D01*
X144997428Y-129058987D01*
X144997428Y-129058988D01*
X145536496Y-129598058D01*
X145589908Y-129469112D01*
X145589909Y-129469108D01*
X145620650Y-129314562D01*
X145620651Y-129314559D01*
X145620651Y-129156971D01*
X145620650Y-129156967D01*
X145589909Y-129002421D01*
X145589907Y-129002413D01*
X145529603Y-128856825D01*
X145529601Y-128856822D01*
X145516790Y-128837649D01*
X145495912Y-128770972D01*
X145508077Y-128720541D01*
X145506163Y-128719749D01*
X145568799Y-128568530D01*
X145568801Y-128568522D01*
X145599542Y-128413976D01*
X145599543Y-128413973D01*
X145599543Y-128256385D01*
X145599542Y-128256381D01*
X145568801Y-128101835D01*
X145568799Y-128101827D01*
X145509938Y-127959723D01*
X145502469Y-127890253D01*
X145521398Y-127843377D01*
X145536639Y-127820567D01*
X145596943Y-127674980D01*
X145596945Y-127674972D01*
X145627686Y-127520426D01*
X145627687Y-127520423D01*
X145627687Y-127362835D01*
X145627686Y-127362831D01*
X145596945Y-127208285D01*
X145596944Y-127208281D01*
X145543532Y-127079335D01*
X145004464Y-127618405D01*
X145004464Y-127618406D01*
X144720393Y-127902475D01*
X144888639Y-128070721D01*
X144922124Y-128132044D01*
X144917140Y-128201736D01*
X144901917Y-128225421D01*
X144884511Y-128208015D01*
X144829380Y-128185179D01*
X144769706Y-128185179D01*
X144714575Y-128208015D01*
X144672379Y-128250211D01*
X144649543Y-128305342D01*
X144416152Y-128305342D01*
X144400897Y-128290087D01*
X144395974Y-128290087D01*
X144328935Y-128270402D01*
X144324195Y-128266582D01*
X144321107Y-128266582D01*
X144231404Y-128356286D01*
X144027851Y-128356286D01*
X144027851Y-128326449D01*
X144005015Y-128271318D01*
X143962819Y-128229122D01*
X143907688Y-128206286D01*
X143848014Y-128206286D01*
X143792883Y-128229122D01*
X143776767Y-128245237D01*
X143755269Y-128205866D01*
X143760253Y-128136174D01*
X143788754Y-128091827D01*
X143967553Y-127913028D01*
X143715145Y-127660621D01*
X143508532Y-127454007D01*
X143741922Y-127454007D01*
X143741922Y-127513681D01*
X143764758Y-127568812D01*
X143806954Y-127611008D01*
X143862085Y-127633844D01*
X143921759Y-127633844D01*
X143976890Y-127611008D01*
X144019086Y-127568812D01*
X144041922Y-127513681D01*
X144041922Y-127454007D01*
X144019086Y-127398876D01*
X143976890Y-127356680D01*
X143921759Y-127333844D01*
X143862085Y-127333844D01*
X143806954Y-127356680D01*
X143764758Y-127398876D01*
X143741922Y-127454007D01*
X143508532Y-127454007D01*
X143176075Y-127121549D01*
X143122665Y-127250492D01*
X143122663Y-127250500D01*
X143091922Y-127405046D01*
X143091922Y-127562641D01*
X143122663Y-127717187D01*
X143122666Y-127717199D01*
X143181514Y-127859271D01*
X143188983Y-127928740D01*
X143171570Y-127971867D01*
X143171770Y-127971974D01*
X143170779Y-127973827D01*
X143170062Y-127975604D01*
X143168900Y-127977343D01*
X143108594Y-128122934D01*
X143108592Y-128122942D01*
X143077851Y-128277488D01*
X143077851Y-128435083D01*
X143108592Y-128589629D01*
X143108594Y-128589637D01*
X143168900Y-128735229D01*
X143168937Y-128735298D01*
X143168945Y-128735337D01*
X143171231Y-128740856D01*
X143170184Y-128741289D01*
X143183177Y-128803701D01*
X143164219Y-128858213D01*
X143164734Y-128858489D01*
X143162986Y-128861757D01*
X143162681Y-128862637D01*
X143161862Y-128863861D01*
X143101558Y-129009449D01*
X143101556Y-129009457D01*
X143070815Y-129164003D01*
X138000500Y-129164003D01*
X138000500Y-126767997D01*
X143529627Y-126767997D01*
X144068699Y-127307067D01*
X144290566Y-127528935D01*
X144295489Y-127528935D01*
X144309378Y-127529715D01*
X144330643Y-127532112D01*
X144348197Y-127539489D01*
X144376273Y-127539489D01*
X144503970Y-127411792D01*
X144677687Y-127411792D01*
X144677687Y-127471466D01*
X144700523Y-127526597D01*
X144742719Y-127568793D01*
X144797850Y-127591629D01*
X144857524Y-127591629D01*
X144912655Y-127568793D01*
X144954851Y-127526597D01*
X144977687Y-127471466D01*
X144977687Y-127411792D01*
X144954851Y-127356661D01*
X144912655Y-127314465D01*
X144857524Y-127291629D01*
X144797850Y-127291629D01*
X144742719Y-127314465D01*
X144700523Y-127356661D01*
X144677687Y-127411792D01*
X144503970Y-127411792D01*
X145189980Y-126725782D01*
X145061038Y-126672372D01*
X145061030Y-126672370D01*
X144906484Y-126641629D01*
X144748889Y-126641629D01*
X144594343Y-126672370D01*
X144594335Y-126672372D01*
X144448743Y-126732678D01*
X144396384Y-126767663D01*
X144329707Y-126788540D01*
X144277059Y-126775854D01*
X144276492Y-126777224D01*
X144125273Y-126714587D01*
X144125265Y-126714585D01*
X143970719Y-126683844D01*
X143813124Y-126683844D01*
X143658578Y-126714585D01*
X143658570Y-126714587D01*
X143529627Y-126767997D01*
X138000500Y-126767997D01*
X138000500Y-124921340D01*
X140351158Y-124921340D01*
X140351158Y-125079033D01*
X140381919Y-125233676D01*
X140381922Y-125233688D01*
X140442260Y-125379359D01*
X140442267Y-125379372D01*
X140529868Y-125510475D01*
X140529871Y-125510479D01*
X140641365Y-125621973D01*
X140641369Y-125621976D01*
X140772472Y-125709577D01*
X140772485Y-125709584D01*
X140917712Y-125769738D01*
X140918161Y-125769924D01*
X141071871Y-125800499D01*
X141072811Y-125800686D01*
X141072814Y-125800687D01*
X141072816Y-125800687D01*
X141230502Y-125800687D01*
X141230503Y-125800686D01*
X141385155Y-125769924D01*
X141530837Y-125709581D01*
X141531123Y-125709390D01*
X141662813Y-125621398D01*
X141729491Y-125600520D01*
X141731704Y-125600500D01*
X142020234Y-125600500D01*
X142087273Y-125620185D01*
X142089125Y-125621398D01*
X142220814Y-125709390D01*
X142220827Y-125709397D01*
X142366498Y-125769735D01*
X142366503Y-125769737D01*
X142521153Y-125800499D01*
X142521156Y-125800500D01*
X142521158Y-125800500D01*
X142678844Y-125800500D01*
X142678845Y-125800499D01*
X142833497Y-125769737D01*
X142946166Y-125723067D01*
X142979172Y-125709397D01*
X142979172Y-125709396D01*
X142979179Y-125709394D01*
X143110289Y-125621789D01*
X143221789Y-125510289D01*
X143309394Y-125379179D01*
X143369737Y-125233497D01*
X143400500Y-125078842D01*
X143400500Y-124921158D01*
X143400500Y-124921155D01*
X143400499Y-124921153D01*
X143369737Y-124766503D01*
X143309474Y-124621014D01*
X143309397Y-124620827D01*
X143309390Y-124620814D01*
X143221789Y-124489711D01*
X143221786Y-124489707D01*
X143110292Y-124378213D01*
X143110288Y-124378210D01*
X142979185Y-124290609D01*
X142979172Y-124290602D01*
X142833501Y-124230264D01*
X142833489Y-124230261D01*
X142678845Y-124199500D01*
X142678842Y-124199500D01*
X142521158Y-124199500D01*
X142521155Y-124199500D01*
X142366510Y-124230261D01*
X142366498Y-124230264D01*
X142220827Y-124290602D01*
X142220814Y-124290609D01*
X142089125Y-124378602D01*
X142022447Y-124399480D01*
X142020234Y-124399500D01*
X141731144Y-124399500D01*
X141664105Y-124379815D01*
X141662253Y-124378602D01*
X141530843Y-124290796D01*
X141530830Y-124290789D01*
X141385159Y-124230451D01*
X141385147Y-124230448D01*
X141230503Y-124199687D01*
X141230500Y-124199687D01*
X141072816Y-124199687D01*
X141072813Y-124199687D01*
X140918168Y-124230448D01*
X140918156Y-124230451D01*
X140772485Y-124290789D01*
X140772472Y-124290796D01*
X140641369Y-124378397D01*
X140641365Y-124378400D01*
X140529871Y-124489894D01*
X140529868Y-124489898D01*
X140442267Y-124621001D01*
X140442260Y-124621014D01*
X140381922Y-124766685D01*
X140381919Y-124766697D01*
X140351158Y-124921340D01*
X138000500Y-124921340D01*
X138000500Y-121921153D01*
X142902081Y-121921153D01*
X142902081Y-122078846D01*
X142932842Y-122233489D01*
X142932845Y-122233501D01*
X142993183Y-122379172D01*
X142993190Y-122379185D01*
X143081183Y-122510874D01*
X143102061Y-122577551D01*
X143102081Y-122579765D01*
X143102081Y-123615911D01*
X143102080Y-123615929D01*
X143102080Y-123781635D01*
X143102079Y-123781635D01*
X143102080Y-123781638D01*
X143143004Y-123934366D01*
X143143005Y-123934367D01*
X143156690Y-123958070D01*
X143156691Y-123958073D01*
X143222056Y-124071290D01*
X143222062Y-124071298D01*
X143340930Y-124190166D01*
X143340936Y-124190171D01*
X147368657Y-128217892D01*
X147402142Y-128279215D01*
X147404976Y-128305573D01*
X147404976Y-128453241D01*
X147435737Y-128607884D01*
X147435740Y-128607896D01*
X147496078Y-128753567D01*
X147496085Y-128753580D01*
X147583686Y-128884683D01*
X147583689Y-128884687D01*
X147695183Y-128996181D01*
X147695187Y-128996184D01*
X147826290Y-129083785D01*
X147826303Y-129083792D01*
X147903185Y-129115637D01*
X147971979Y-129144132D01*
X148071877Y-129164003D01*
X148126629Y-129174894D01*
X148126632Y-129174895D01*
X148126634Y-129174895D01*
X148284320Y-129174895D01*
X148284321Y-129174894D01*
X148438973Y-129144132D01*
X148562898Y-129092801D01*
X148584648Y-129083792D01*
X148584648Y-129083791D01*
X148584655Y-129083789D01*
X148715765Y-128996184D01*
X148787284Y-128924664D01*
X148848605Y-128891181D01*
X148899155Y-128890730D01*
X148950000Y-128900843D01*
X148950000Y-128693426D01*
X148959439Y-128645973D01*
X148975213Y-128607892D01*
X149005976Y-128453237D01*
X149005976Y-128295553D01*
X149005976Y-128295550D01*
X149005975Y-128295548D01*
X148975215Y-128140906D01*
X148975214Y-128140903D01*
X148975213Y-128140898D01*
X148959437Y-128102813D01*
X148954869Y-128079844D01*
X148985095Y-128110070D01*
X149064905Y-128156148D01*
X149153922Y-128180000D01*
X149246078Y-128180000D01*
X149335095Y-128156148D01*
X149414905Y-128110070D01*
X149450000Y-128074975D01*
X149450000Y-128900842D01*
X149506274Y-128889649D01*
X149506276Y-128889648D01*
X149697358Y-128810499D01*
X149697368Y-128810494D01*
X149869335Y-128695589D01*
X149869339Y-128695586D01*
X150015586Y-128549339D01*
X150015589Y-128549335D01*
X150130494Y-128377368D01*
X150130499Y-128377358D01*
X150209649Y-128186274D01*
X150209651Y-128186266D01*
X150249999Y-127983420D01*
X150250000Y-127983417D01*
X150250000Y-127830000D01*
X149550000Y-127830000D01*
X149550000Y-127330000D01*
X150250000Y-127330000D01*
X150250000Y-127176583D01*
X150249999Y-127176579D01*
X150209651Y-126973733D01*
X150209649Y-126973725D01*
X150130499Y-126782641D01*
X150130494Y-126782631D01*
X150015589Y-126610664D01*
X150015586Y-126610660D01*
X149869339Y-126464413D01*
X149869335Y-126464410D01*
X149697368Y-126349505D01*
X149697358Y-126349500D01*
X149506272Y-126270349D01*
X149506267Y-126270347D01*
X149450000Y-126259155D01*
X149450000Y-127085025D01*
X149414905Y-127049930D01*
X149335095Y-127003852D01*
X149246078Y-126980000D01*
X149153922Y-126980000D01*
X149064905Y-127003852D01*
X148985095Y-127049930D01*
X148950000Y-127085025D01*
X148950000Y-126259156D01*
X148949999Y-126259155D01*
X148893732Y-126270347D01*
X148893727Y-126270349D01*
X148702641Y-126349500D01*
X148702631Y-126349505D01*
X148530664Y-126464410D01*
X148530660Y-126464413D01*
X148384413Y-126610660D01*
X148384410Y-126610664D01*
X148269505Y-126782631D01*
X148269500Y-126782641D01*
X148190350Y-126973725D01*
X148190348Y-126973731D01*
X148174654Y-127052632D01*
X148142269Y-127114543D01*
X148081553Y-127149117D01*
X148011784Y-127145377D01*
X147965356Y-127116121D01*
X145124218Y-124274983D01*
X150899500Y-124274983D01*
X150899500Y-125625001D01*
X150899501Y-125625018D01*
X150910000Y-125727796D01*
X150910001Y-125727799D01*
X150965185Y-125894331D01*
X150965187Y-125894336D01*
X150988870Y-125932732D01*
X151057288Y-126043656D01*
X151181344Y-126167712D01*
X151330666Y-126259814D01*
X151330667Y-126259814D01*
X151336813Y-126263605D01*
X151335706Y-126265399D01*
X151380337Y-126304687D01*
X151399500Y-126370908D01*
X151399500Y-128420234D01*
X151379815Y-128487273D01*
X151378602Y-128489125D01*
X151290609Y-128620814D01*
X151290602Y-128620827D01*
X151230264Y-128766498D01*
X151230261Y-128766510D01*
X151199500Y-128921153D01*
X151199500Y-129078846D01*
X151230261Y-129233489D01*
X151230264Y-129233501D01*
X151290602Y-129379172D01*
X151290609Y-129379185D01*
X151378210Y-129510288D01*
X151378213Y-129510292D01*
X151489707Y-129621786D01*
X151489711Y-129621789D01*
X151620814Y-129709390D01*
X151620827Y-129709397D01*
X151766498Y-129769735D01*
X151766503Y-129769737D01*
X151921153Y-129800499D01*
X151921156Y-129800500D01*
X151921158Y-129800500D01*
X152078844Y-129800500D01*
X152078845Y-129800499D01*
X152233497Y-129769737D01*
X152379179Y-129709394D01*
X152510289Y-129621789D01*
X152621789Y-129510289D01*
X152709394Y-129379179D01*
X152769737Y-129233497D01*
X152800500Y-129078842D01*
X152800500Y-128921158D01*
X152800500Y-128921155D01*
X152800499Y-128921153D01*
X152775609Y-128796024D01*
X152769737Y-128766503D01*
X152740364Y-128695589D01*
X152709397Y-128620827D01*
X152709390Y-128620814D01*
X152621398Y-128489125D01*
X152600520Y-128422447D01*
X152600500Y-128420234D01*
X152600500Y-127176579D01*
X156790000Y-127176579D01*
X156790000Y-127330000D01*
X157490000Y-127330000D01*
X157490000Y-127830000D01*
X156790000Y-127830000D01*
X156790000Y-127983420D01*
X156830348Y-128186266D01*
X156830350Y-128186274D01*
X156909500Y-128377358D01*
X156909505Y-128377368D01*
X157024410Y-128549335D01*
X157024413Y-128549339D01*
X157170660Y-128695586D01*
X157170664Y-128695589D01*
X157342631Y-128810494D01*
X157342641Y-128810499D01*
X157533723Y-128889648D01*
X157533725Y-128889649D01*
X157590000Y-128900842D01*
X157590000Y-128074975D01*
X157625095Y-128110070D01*
X157704905Y-128156148D01*
X157793922Y-128180000D01*
X157886078Y-128180000D01*
X157975095Y-128156148D01*
X158054905Y-128110070D01*
X158090000Y-128074975D01*
X158090000Y-128900842D01*
X158146274Y-128889649D01*
X158146276Y-128889648D01*
X158337358Y-128810499D01*
X158337368Y-128810494D01*
X158509335Y-128695589D01*
X158509339Y-128695586D01*
X158655586Y-128549339D01*
X158655589Y-128549335D01*
X158770494Y-128377368D01*
X158770499Y-128377358D01*
X158849649Y-128186274D01*
X158849651Y-128186266D01*
X158889999Y-127983420D01*
X158890000Y-127983417D01*
X158890000Y-127830000D01*
X158190000Y-127830000D01*
X158190000Y-127330000D01*
X158890000Y-127330000D01*
X158890000Y-127176583D01*
X158889999Y-127176579D01*
X158849651Y-126973733D01*
X158849649Y-126973725D01*
X158770499Y-126782641D01*
X158770494Y-126782631D01*
X158655589Y-126610664D01*
X158655586Y-126610660D01*
X158509339Y-126464413D01*
X158509335Y-126464410D01*
X158337368Y-126349505D01*
X158337358Y-126349500D01*
X158146272Y-126270349D01*
X158146267Y-126270347D01*
X158090000Y-126259155D01*
X158090000Y-127085025D01*
X158054905Y-127049930D01*
X157975095Y-127003852D01*
X157886078Y-126980000D01*
X157793922Y-126980000D01*
X157704905Y-127003852D01*
X157625095Y-127049930D01*
X157590000Y-127085025D01*
X157590000Y-126259156D01*
X157589999Y-126259155D01*
X157533732Y-126270347D01*
X157533727Y-126270349D01*
X157342641Y-126349500D01*
X157342631Y-126349505D01*
X157170664Y-126464410D01*
X157170660Y-126464413D01*
X157024413Y-126610660D01*
X157024410Y-126610664D01*
X156909505Y-126782631D01*
X156909500Y-126782641D01*
X156830350Y-126973725D01*
X156830348Y-126973733D01*
X156790000Y-127176579D01*
X152600500Y-127176579D01*
X152600500Y-126370908D01*
X152620185Y-126303869D01*
X152664271Y-126265363D01*
X152663187Y-126263605D01*
X152669332Y-126259814D01*
X152669334Y-126259814D01*
X152818656Y-126167712D01*
X152942712Y-126043656D01*
X152982310Y-125979456D01*
X153034258Y-125932732D01*
X153103220Y-125921509D01*
X153167303Y-125949352D01*
X153175530Y-125956872D01*
X153283072Y-126064414D01*
X153423212Y-126166232D01*
X153577555Y-126244873D01*
X153742299Y-126298402D01*
X153913389Y-126325500D01*
X153913390Y-126325500D01*
X154086610Y-126325500D01*
X154086611Y-126325500D01*
X154257701Y-126298402D01*
X154422445Y-126244873D01*
X154576788Y-126166232D01*
X154716928Y-126064414D01*
X154839414Y-125941928D01*
X154941232Y-125801788D01*
X155019873Y-125647445D01*
X155073402Y-125482701D01*
X155100500Y-125311611D01*
X155100500Y-124588389D01*
X155100498Y-124588379D01*
X155100298Y-124585839D01*
X155100499Y-124565429D01*
X155100499Y-124435930D01*
X155100498Y-124435926D01*
X155075501Y-124310256D01*
X155026465Y-124191873D01*
X154955277Y-124085331D01*
X154876586Y-124006640D01*
X154863955Y-123991850D01*
X154839416Y-123958075D01*
X154839414Y-123958072D01*
X154716928Y-123835586D01*
X154576788Y-123733768D01*
X154422445Y-123655127D01*
X154257701Y-123601598D01*
X154257699Y-123601597D01*
X154257698Y-123601597D01*
X154126271Y-123580781D01*
X154086611Y-123574500D01*
X153913389Y-123574500D01*
X153873728Y-123580781D01*
X153742302Y-123601597D01*
X153577552Y-123655128D01*
X153423211Y-123733768D01*
X153283073Y-123835585D01*
X153175530Y-123943128D01*
X153114207Y-123976612D01*
X153044515Y-123971628D01*
X152988582Y-123929756D01*
X152982310Y-123920543D01*
X152942712Y-123856344D01*
X152818656Y-123732288D01*
X152693559Y-123655128D01*
X152669336Y-123640187D01*
X152669331Y-123640185D01*
X152667862Y-123639698D01*
X152502797Y-123585001D01*
X152502795Y-123585000D01*
X152400010Y-123574500D01*
X151599998Y-123574500D01*
X151599980Y-123574501D01*
X151497203Y-123585000D01*
X151497200Y-123585001D01*
X151330668Y-123640185D01*
X151330663Y-123640187D01*
X151181342Y-123732289D01*
X151057289Y-123856342D01*
X150965187Y-124005663D01*
X150965186Y-124005666D01*
X150910001Y-124172203D01*
X150910001Y-124172204D01*
X150910000Y-124172204D01*
X150899500Y-124274983D01*
X145124218Y-124274983D01*
X144339400Y-123490165D01*
X144305915Y-123428842D01*
X144303081Y-123402484D01*
X144303081Y-122579765D01*
X144322766Y-122512726D01*
X144323979Y-122510874D01*
X144411971Y-122379185D01*
X144411971Y-122379184D01*
X144411975Y-122379179D01*
X144472318Y-122233497D01*
X144503081Y-122078842D01*
X144503081Y-121921158D01*
X144503081Y-121921155D01*
X144503080Y-121921153D01*
X144472319Y-121766510D01*
X144472318Y-121766503D01*
X144472316Y-121766498D01*
X144411978Y-121620827D01*
X144411971Y-121620814D01*
X144324370Y-121489711D01*
X144324367Y-121489707D01*
X144212873Y-121378213D01*
X144212869Y-121378210D01*
X144081766Y-121290609D01*
X144081753Y-121290602D01*
X143936082Y-121230264D01*
X143936070Y-121230261D01*
X143781426Y-121199500D01*
X143781423Y-121199500D01*
X143623739Y-121199500D01*
X143623736Y-121199500D01*
X143469091Y-121230261D01*
X143469079Y-121230264D01*
X143323408Y-121290602D01*
X143323395Y-121290609D01*
X143192292Y-121378210D01*
X143192288Y-121378213D01*
X143080794Y-121489707D01*
X143080791Y-121489711D01*
X142993190Y-121620814D01*
X142993183Y-121620827D01*
X142932845Y-121766498D01*
X142932842Y-121766510D01*
X142902081Y-121921153D01*
X138000500Y-121921153D01*
X138000500Y-120702135D01*
X161949500Y-120702135D01*
X161949500Y-123297870D01*
X161949501Y-123297876D01*
X161955908Y-123357483D01*
X162006202Y-123492328D01*
X162006206Y-123492335D01*
X162092452Y-123607544D01*
X162092455Y-123607547D01*
X162207664Y-123693793D01*
X162207671Y-123693797D01*
X162342517Y-123744091D01*
X162342516Y-123744091D01*
X162349444Y-123744835D01*
X162402127Y-123750500D01*
X164297872Y-123750499D01*
X164357483Y-123744091D01*
X164492331Y-123693796D01*
X164607546Y-123607546D01*
X164693796Y-123492331D01*
X164744091Y-123357483D01*
X164750500Y-123297873D01*
X164750499Y-120702128D01*
X164744091Y-120642517D01*
X164693796Y-120507669D01*
X164693795Y-120507668D01*
X164693793Y-120507664D01*
X164607547Y-120392455D01*
X164607544Y-120392452D01*
X164492335Y-120306206D01*
X164492328Y-120306202D01*
X164357482Y-120255908D01*
X164357483Y-120255908D01*
X164297883Y-120249501D01*
X164297881Y-120249500D01*
X164297873Y-120249500D01*
X164297864Y-120249500D01*
X162402129Y-120249500D01*
X162402123Y-120249501D01*
X162342516Y-120255908D01*
X162207671Y-120306202D01*
X162207664Y-120306206D01*
X162092455Y-120392452D01*
X162092452Y-120392455D01*
X162006206Y-120507664D01*
X162006202Y-120507671D01*
X161955908Y-120642517D01*
X161949501Y-120702116D01*
X161949501Y-120702123D01*
X161949500Y-120702135D01*
X138000500Y-120702135D01*
X138000500Y-118421153D01*
X145199500Y-118421153D01*
X145199500Y-118578846D01*
X145230261Y-118733489D01*
X145230264Y-118733501D01*
X145290602Y-118879172D01*
X145290609Y-118879185D01*
X145378210Y-119010288D01*
X145378213Y-119010292D01*
X145489707Y-119121786D01*
X145489711Y-119121789D01*
X145620814Y-119209390D01*
X145620827Y-119209397D01*
X145766498Y-119269735D01*
X145766503Y-119269737D01*
X145921153Y-119300499D01*
X145921156Y-119300500D01*
X145921158Y-119300500D01*
X146078844Y-119300500D01*
X146078845Y-119300499D01*
X146233497Y-119269737D01*
X146379179Y-119209394D01*
X146510289Y-119121789D01*
X146621789Y-119010289D01*
X146709394Y-118879179D01*
X146769737Y-118733497D01*
X146789113Y-118636085D01*
X146800638Y-118578150D01*
X146833023Y-118516239D01*
X146834518Y-118514716D01*
X147514662Y-117834572D01*
X147575983Y-117801089D01*
X147578150Y-117800638D01*
X147636085Y-117789113D01*
X147733497Y-117769737D01*
X147879179Y-117709394D01*
X148010289Y-117621789D01*
X148121789Y-117510289D01*
X148209394Y-117379179D01*
X148269737Y-117233497D01*
X148300500Y-117078842D01*
X148300500Y-116921158D01*
X148300500Y-116921155D01*
X148300499Y-116921153D01*
X148276499Y-116800499D01*
X148269737Y-116766503D01*
X148246080Y-116709390D01*
X148209397Y-116620827D01*
X148209390Y-116620814D01*
X148121789Y-116489711D01*
X148121786Y-116489707D01*
X148010292Y-116378213D01*
X148010288Y-116378210D01*
X147879185Y-116290609D01*
X147879172Y-116290602D01*
X147733501Y-116230264D01*
X147733489Y-116230261D01*
X147578845Y-116199500D01*
X147578842Y-116199500D01*
X147421158Y-116199500D01*
X147421155Y-116199500D01*
X147266510Y-116230261D01*
X147266498Y-116230264D01*
X147120827Y-116290602D01*
X147120814Y-116290609D01*
X146989711Y-116378210D01*
X146989707Y-116378213D01*
X146878213Y-116489707D01*
X146878210Y-116489711D01*
X146790609Y-116620814D01*
X146790602Y-116620827D01*
X146730264Y-116766498D01*
X146730261Y-116766508D01*
X146699361Y-116921850D01*
X146666976Y-116983761D01*
X146665425Y-116985339D01*
X145985339Y-117665425D01*
X145924016Y-117698910D01*
X145921850Y-117699361D01*
X145766508Y-117730261D01*
X145766498Y-117730264D01*
X145620827Y-117790602D01*
X145620814Y-117790609D01*
X145489711Y-117878210D01*
X145489707Y-117878213D01*
X145378213Y-117989707D01*
X145378210Y-117989711D01*
X145290609Y-118120814D01*
X145290602Y-118120827D01*
X145230264Y-118266498D01*
X145230261Y-118266510D01*
X145199500Y-118421153D01*
X138000500Y-118421153D01*
X138000500Y-115921153D01*
X140199500Y-115921153D01*
X140199500Y-116078846D01*
X140230261Y-116233489D01*
X140230264Y-116233501D01*
X140290602Y-116379172D01*
X140290609Y-116379185D01*
X140378210Y-116510288D01*
X140378213Y-116510292D01*
X140489707Y-116621786D01*
X140489711Y-116621789D01*
X140620814Y-116709390D01*
X140620827Y-116709397D01*
X140758683Y-116766498D01*
X140766503Y-116769737D01*
X140921153Y-116800499D01*
X140921156Y-116800500D01*
X140921158Y-116800500D01*
X141078844Y-116800500D01*
X141078845Y-116800499D01*
X141233497Y-116769737D01*
X141379179Y-116709394D01*
X141510289Y-116621789D01*
X141621789Y-116510289D01*
X141709394Y-116379179D01*
X141769737Y-116233497D01*
X141789780Y-116132734D01*
X141800638Y-116078150D01*
X141833023Y-116016239D01*
X141834521Y-116014713D01*
X142515581Y-115333653D01*
X156699500Y-115333653D01*
X156699500Y-115491346D01*
X156730261Y-115645989D01*
X156730264Y-115646001D01*
X156790602Y-115791672D01*
X156790609Y-115791685D01*
X156878602Y-115923374D01*
X156884252Y-115941420D01*
X156894477Y-115957330D01*
X156898928Y-115988289D01*
X156899480Y-115990051D01*
X156899500Y-115992265D01*
X156899500Y-116132734D01*
X156879815Y-116199773D01*
X156878602Y-116201625D01*
X156790609Y-116333314D01*
X156790602Y-116333327D01*
X156730264Y-116478998D01*
X156730261Y-116479010D01*
X156699500Y-116633653D01*
X156699500Y-116791346D01*
X156730261Y-116945989D01*
X156730264Y-116946001D01*
X156790602Y-117091672D01*
X156790609Y-117091685D01*
X156878210Y-117222788D01*
X156878213Y-117222792D01*
X156989707Y-117334286D01*
X156989711Y-117334289D01*
X157120814Y-117421890D01*
X157120827Y-117421897D01*
X157266498Y-117482235D01*
X157266503Y-117482237D01*
X157407524Y-117510288D01*
X157421153Y-117512999D01*
X157421156Y-117513000D01*
X157421158Y-117513000D01*
X157578844Y-117513000D01*
X157578845Y-117512999D01*
X157733497Y-117482237D01*
X157879179Y-117421894D01*
X158010289Y-117334289D01*
X158121789Y-117222789D01*
X158209394Y-117091679D01*
X158269737Y-116945997D01*
X158300500Y-116791342D01*
X158300500Y-116633658D01*
X158300500Y-116633655D01*
X158300499Y-116633653D01*
X158297945Y-116620814D01*
X158269737Y-116479003D01*
X158269735Y-116478998D01*
X158209397Y-116333327D01*
X158209390Y-116333314D01*
X158121398Y-116201625D01*
X158115747Y-116183578D01*
X158105523Y-116167669D01*
X158101071Y-116136707D01*
X158100520Y-116134947D01*
X158100500Y-116132734D01*
X158100500Y-115992265D01*
X158120185Y-115925226D01*
X158121398Y-115923374D01*
X158209390Y-115791685D01*
X158209390Y-115791684D01*
X158209394Y-115791679D01*
X158269737Y-115645997D01*
X158300500Y-115491342D01*
X158300500Y-115333658D01*
X158300500Y-115333655D01*
X158300499Y-115333653D01*
X158291936Y-115290606D01*
X158269737Y-115179003D01*
X158264113Y-115165425D01*
X158209397Y-115033327D01*
X158209390Y-115033314D01*
X158121789Y-114902211D01*
X158121786Y-114902207D01*
X158010292Y-114790713D01*
X158010288Y-114790710D01*
X157879185Y-114703109D01*
X157879172Y-114703102D01*
X157733501Y-114642764D01*
X157733489Y-114642761D01*
X157578845Y-114612000D01*
X157578842Y-114612000D01*
X157421158Y-114612000D01*
X157421155Y-114612000D01*
X157266510Y-114642761D01*
X157266498Y-114642764D01*
X157120827Y-114703102D01*
X157120814Y-114703109D01*
X156989711Y-114790710D01*
X156989707Y-114790713D01*
X156878213Y-114902207D01*
X156878210Y-114902211D01*
X156790609Y-115033314D01*
X156790602Y-115033327D01*
X156730264Y-115178998D01*
X156730261Y-115179010D01*
X156699500Y-115333653D01*
X142515581Y-115333653D01*
X142529713Y-115319521D01*
X142529716Y-115319520D01*
X142641520Y-115207716D01*
X142701185Y-115104373D01*
X142720577Y-115070785D01*
X142761501Y-114918057D01*
X142761501Y-114759943D01*
X142761501Y-114752348D01*
X142761500Y-114752330D01*
X142761500Y-113579765D01*
X142781185Y-113512726D01*
X142782398Y-113510874D01*
X142870390Y-113379185D01*
X142870390Y-113379184D01*
X142870394Y-113379179D01*
X142930737Y-113233497D01*
X142961500Y-113078842D01*
X142961500Y-112921158D01*
X142961500Y-112921155D01*
X142961499Y-112921153D01*
X142930738Y-112766510D01*
X142930737Y-112766503D01*
X142930735Y-112766498D01*
X142870397Y-112620827D01*
X142870390Y-112620814D01*
X142782789Y-112489711D01*
X142782786Y-112489707D01*
X142671292Y-112378213D01*
X142671288Y-112378210D01*
X142540185Y-112290609D01*
X142540172Y-112290602D01*
X142394501Y-112230264D01*
X142394489Y-112230261D01*
X142239845Y-112199500D01*
X142239842Y-112199500D01*
X142082158Y-112199500D01*
X142082155Y-112199500D01*
X141927510Y-112230261D01*
X141927498Y-112230264D01*
X141781827Y-112290602D01*
X141781814Y-112290609D01*
X141650711Y-112378210D01*
X141650707Y-112378213D01*
X141539213Y-112489707D01*
X141539210Y-112489711D01*
X141451609Y-112620814D01*
X141451602Y-112620827D01*
X141391264Y-112766498D01*
X141391261Y-112766510D01*
X141360500Y-112921153D01*
X141360500Y-113078846D01*
X141391261Y-113233489D01*
X141391264Y-113233501D01*
X141451602Y-113379172D01*
X141451609Y-113379185D01*
X141539602Y-113510874D01*
X141560480Y-113577551D01*
X141560500Y-113579765D01*
X141560500Y-114538903D01*
X141540815Y-114605942D01*
X141524181Y-114626584D01*
X140985339Y-115165425D01*
X140924016Y-115198910D01*
X140921850Y-115199361D01*
X140766508Y-115230261D01*
X140766498Y-115230264D01*
X140620827Y-115290602D01*
X140620814Y-115290609D01*
X140489711Y-115378210D01*
X140489707Y-115378213D01*
X140378213Y-115489707D01*
X140378210Y-115489711D01*
X140290609Y-115620814D01*
X140290602Y-115620827D01*
X140230264Y-115766498D01*
X140230261Y-115766510D01*
X140199500Y-115921153D01*
X138000500Y-115921153D01*
X138000500Y-109393753D01*
X139610000Y-109393753D01*
X139610000Y-109606246D01*
X139643242Y-109816127D01*
X139643242Y-109816130D01*
X139708904Y-110018217D01*
X139805375Y-110207550D01*
X139844728Y-110261716D01*
X140477037Y-109629408D01*
X140494075Y-109692993D01*
X140559901Y-109807007D01*
X140652993Y-109900099D01*
X140767007Y-109965925D01*
X140830590Y-109982962D01*
X140198282Y-110615269D01*
X140198282Y-110615270D01*
X140252449Y-110654624D01*
X140441782Y-110751095D01*
X140643870Y-110816757D01*
X140853754Y-110850000D01*
X141066246Y-110850000D01*
X141276127Y-110816757D01*
X141276130Y-110816757D01*
X141478217Y-110751095D01*
X141667554Y-110654622D01*
X141721716Y-110615270D01*
X141721717Y-110615270D01*
X141089408Y-109982962D01*
X141152993Y-109965925D01*
X141267007Y-109900099D01*
X141360099Y-109807007D01*
X141425925Y-109692993D01*
X141442962Y-109629408D01*
X142075270Y-110261717D01*
X142075270Y-110261716D01*
X142114622Y-110207555D01*
X142119232Y-110198507D01*
X142167205Y-110147709D01*
X142235025Y-110130912D01*
X142301161Y-110153447D01*
X142340204Y-110198504D01*
X142344949Y-110207817D01*
X142469890Y-110379786D01*
X142620213Y-110530109D01*
X142792179Y-110655048D01*
X142792181Y-110655049D01*
X142792184Y-110655051D01*
X142981588Y-110751557D01*
X143183757Y-110817246D01*
X143393713Y-110850500D01*
X143393714Y-110850500D01*
X143606286Y-110850500D01*
X143606287Y-110850500D01*
X143816243Y-110817246D01*
X144018412Y-110751557D01*
X144207816Y-110655051D01*
X144379792Y-110530104D01*
X144493329Y-110416566D01*
X144554648Y-110383084D01*
X144624340Y-110388068D01*
X144680274Y-110429939D01*
X144697189Y-110460917D01*
X144746202Y-110592328D01*
X144746206Y-110592335D01*
X144832452Y-110707544D01*
X144832455Y-110707547D01*
X144947664Y-110793793D01*
X144947671Y-110793797D01*
X145082517Y-110844091D01*
X145082516Y-110844091D01*
X145089444Y-110844835D01*
X145142127Y-110850500D01*
X146937872Y-110850499D01*
X146997483Y-110844091D01*
X147132331Y-110793796D01*
X147247546Y-110707546D01*
X147333796Y-110592331D01*
X147384091Y-110457483D01*
X147390500Y-110397873D01*
X147390499Y-108602128D01*
X147384091Y-108542517D01*
X147382810Y-108539083D01*
X147333797Y-108407671D01*
X147333793Y-108407664D01*
X147247547Y-108292455D01*
X147247544Y-108292452D01*
X147132335Y-108206206D01*
X147132328Y-108206202D01*
X146997482Y-108155908D01*
X146997483Y-108155908D01*
X146937883Y-108149501D01*
X146937881Y-108149500D01*
X146937873Y-108149500D01*
X146937864Y-108149500D01*
X145142129Y-108149500D01*
X145142123Y-108149501D01*
X145082516Y-108155908D01*
X144947671Y-108206202D01*
X144947664Y-108206206D01*
X144832455Y-108292452D01*
X144832452Y-108292455D01*
X144746206Y-108407664D01*
X144746203Y-108407669D01*
X144697189Y-108539083D01*
X144655317Y-108595016D01*
X144589853Y-108619433D01*
X144521580Y-108604581D01*
X144493326Y-108583430D01*
X144379786Y-108469890D01*
X144207820Y-108344951D01*
X144018414Y-108248444D01*
X144018413Y-108248443D01*
X144018412Y-108248443D01*
X143816243Y-108182754D01*
X143816241Y-108182753D01*
X143816240Y-108182753D01*
X143654957Y-108157208D01*
X143606287Y-108149500D01*
X143393713Y-108149500D01*
X143345042Y-108157208D01*
X143183760Y-108182753D01*
X142981585Y-108248444D01*
X142792179Y-108344951D01*
X142620213Y-108469890D01*
X142469890Y-108620213D01*
X142344949Y-108792182D01*
X142340202Y-108801499D01*
X142292227Y-108852293D01*
X142224405Y-108869087D01*
X142158271Y-108846548D01*
X142119234Y-108801495D01*
X142114626Y-108792452D01*
X142075270Y-108738282D01*
X142075269Y-108738282D01*
X141442962Y-109370590D01*
X141425925Y-109307007D01*
X141360099Y-109192993D01*
X141267007Y-109099901D01*
X141152993Y-109034075D01*
X141089409Y-109017037D01*
X141721716Y-108384728D01*
X141667550Y-108345375D01*
X141478217Y-108248904D01*
X141276129Y-108183242D01*
X141066246Y-108150000D01*
X140853754Y-108150000D01*
X140643872Y-108183242D01*
X140643869Y-108183242D01*
X140441782Y-108248904D01*
X140252439Y-108345380D01*
X140198282Y-108384727D01*
X140198282Y-108384728D01*
X140830591Y-109017037D01*
X140767007Y-109034075D01*
X140652993Y-109099901D01*
X140559901Y-109192993D01*
X140494075Y-109307007D01*
X140477037Y-109370591D01*
X139844728Y-108738282D01*
X139844727Y-108738282D01*
X139805380Y-108792439D01*
X139708904Y-108981782D01*
X139643242Y-109183869D01*
X139643242Y-109183872D01*
X139610000Y-109393753D01*
X138000500Y-109393753D01*
X138000500Y-102381902D01*
X150499500Y-102381902D01*
X150499500Y-102618097D01*
X150536446Y-102851368D01*
X150609433Y-103075996D01*
X150716519Y-103286163D01*
X150716657Y-103286433D01*
X150855483Y-103477510D01*
X151022490Y-103644517D01*
X151130042Y-103722658D01*
X151213568Y-103783344D01*
X151288177Y-103821358D01*
X151331794Y-103843582D01*
X151382590Y-103891556D01*
X151399500Y-103954067D01*
X151399500Y-107545931D01*
X151379815Y-107612970D01*
X151331796Y-107656415D01*
X151213568Y-107716655D01*
X151130044Y-107777340D01*
X151022490Y-107855483D01*
X151022488Y-107855485D01*
X151022487Y-107855485D01*
X150855485Y-108022487D01*
X150855485Y-108022488D01*
X150855483Y-108022490D01*
X150795862Y-108104550D01*
X150716657Y-108213566D01*
X150609433Y-108424003D01*
X150536446Y-108648631D01*
X150499500Y-108881902D01*
X150499500Y-109118097D01*
X150536446Y-109351368D01*
X150609433Y-109575996D01*
X150669047Y-109692993D01*
X150716657Y-109786433D01*
X150855483Y-109977510D01*
X151022490Y-110144517D01*
X151213567Y-110283343D01*
X151312991Y-110334002D01*
X151424003Y-110390566D01*
X151424005Y-110390566D01*
X151424008Y-110390568D01*
X151504031Y-110416569D01*
X151648631Y-110463553D01*
X151881903Y-110500500D01*
X151881908Y-110500500D01*
X152118097Y-110500500D01*
X152351368Y-110463553D01*
X152370049Y-110457483D01*
X152575992Y-110390568D01*
X152786433Y-110283343D01*
X152977510Y-110144517D01*
X153144517Y-109977510D01*
X153283343Y-109786433D01*
X153390568Y-109575992D01*
X153463553Y-109351368D01*
X153470579Y-109307007D01*
X153500500Y-109118097D01*
X153500500Y-108881947D01*
X155000000Y-108881947D01*
X155000000Y-109118052D01*
X155036934Y-109351247D01*
X155109897Y-109575802D01*
X155217087Y-109786174D01*
X155277338Y-109869104D01*
X155277340Y-109869105D01*
X155976212Y-109170233D01*
X155987482Y-109212292D01*
X156059890Y-109337708D01*
X156162292Y-109440110D01*
X156287708Y-109512518D01*
X156329765Y-109523787D01*
X155630893Y-110222658D01*
X155713828Y-110282914D01*
X155924197Y-110390102D01*
X156148752Y-110463065D01*
X156148751Y-110463065D01*
X156381948Y-110500000D01*
X156618052Y-110500000D01*
X156851247Y-110463065D01*
X157075802Y-110390102D01*
X157286163Y-110282918D01*
X157286169Y-110282914D01*
X157369104Y-110222658D01*
X157369105Y-110222658D01*
X156670233Y-109523787D01*
X156712292Y-109512518D01*
X156837708Y-109440110D01*
X156940110Y-109337708D01*
X157012518Y-109212292D01*
X157023787Y-109170234D01*
X157722658Y-109869105D01*
X157722658Y-109869104D01*
X157782914Y-109786169D01*
X157782918Y-109786163D01*
X157890102Y-109575802D01*
X157963065Y-109351247D01*
X158000000Y-109118052D01*
X158000000Y-108881947D01*
X157963065Y-108648752D01*
X157890102Y-108424197D01*
X157782914Y-108213828D01*
X157722658Y-108130894D01*
X157722658Y-108130893D01*
X157023787Y-108829765D01*
X157012518Y-108787708D01*
X156940110Y-108662292D01*
X156837708Y-108559890D01*
X156712292Y-108487482D01*
X156670234Y-108476212D01*
X157369105Y-107777340D01*
X157369104Y-107777338D01*
X157286174Y-107717087D01*
X157075802Y-107609897D01*
X156851247Y-107536934D01*
X156851248Y-107536934D01*
X156618052Y-107500000D01*
X156381948Y-107500000D01*
X156148752Y-107536934D01*
X155924197Y-107609897D01*
X155713830Y-107717084D01*
X155630894Y-107777340D01*
X156329766Y-108476212D01*
X156287708Y-108487482D01*
X156162292Y-108559890D01*
X156059890Y-108662292D01*
X155987482Y-108787708D01*
X155976212Y-108829766D01*
X155277340Y-108130894D01*
X155217084Y-108213830D01*
X155109897Y-108424197D01*
X155036934Y-108648752D01*
X155000000Y-108881947D01*
X153500500Y-108881947D01*
X153500500Y-108881902D01*
X153463553Y-108648631D01*
X153390566Y-108424003D01*
X153301348Y-108248904D01*
X153283343Y-108213567D01*
X153144517Y-108022490D01*
X152977510Y-107855483D01*
X152869953Y-107777338D01*
X152786431Y-107716655D01*
X152668204Y-107656415D01*
X152617409Y-107608441D01*
X152600500Y-107545931D01*
X152600500Y-103954067D01*
X152620185Y-103887028D01*
X152668205Y-103843582D01*
X152786433Y-103783343D01*
X152977510Y-103644517D01*
X153144517Y-103477510D01*
X153283343Y-103286433D01*
X153390568Y-103075992D01*
X153463553Y-102851368D01*
X153465717Y-102837708D01*
X153500500Y-102618097D01*
X153500500Y-102381947D01*
X155000000Y-102381947D01*
X155000000Y-102618052D01*
X155036934Y-102851247D01*
X155109897Y-103075802D01*
X155217087Y-103286174D01*
X155277338Y-103369104D01*
X155277340Y-103369105D01*
X155976212Y-102670233D01*
X155987482Y-102712292D01*
X156059890Y-102837708D01*
X156162292Y-102940110D01*
X156287708Y-103012518D01*
X156329765Y-103023787D01*
X155630893Y-103722658D01*
X155713828Y-103782914D01*
X155924197Y-103890102D01*
X156148752Y-103963065D01*
X156148751Y-103963065D01*
X156381948Y-104000000D01*
X156618052Y-104000000D01*
X156851247Y-103963065D01*
X157075802Y-103890102D01*
X157286163Y-103782918D01*
X157286169Y-103782914D01*
X157369104Y-103722658D01*
X157369105Y-103722658D01*
X157048024Y-103401577D01*
X158749500Y-103401577D01*
X158749500Y-103598422D01*
X158780290Y-103792826D01*
X158841117Y-103980029D01*
X158930476Y-104155405D01*
X159046172Y-104314646D01*
X159185354Y-104453828D01*
X159344595Y-104569524D01*
X159427455Y-104611743D01*
X159519970Y-104658882D01*
X159519972Y-104658882D01*
X159519975Y-104658884D01*
X159620317Y-104691487D01*
X159707173Y-104719709D01*
X159901578Y-104750500D01*
X159901583Y-104750500D01*
X160098422Y-104750500D01*
X160292826Y-104719709D01*
X160480025Y-104658884D01*
X160655405Y-104569524D01*
X160814646Y-104453828D01*
X160953828Y-104314646D01*
X161069524Y-104155405D01*
X161158884Y-103980025D01*
X161219709Y-103792826D01*
X161221279Y-103782914D01*
X161250500Y-103598422D01*
X161250500Y-103401577D01*
X162149500Y-103401577D01*
X162149500Y-103598422D01*
X162180290Y-103792826D01*
X162241117Y-103980029D01*
X162330476Y-104155405D01*
X162446172Y-104314646D01*
X162585354Y-104453828D01*
X162744595Y-104569524D01*
X162827455Y-104611743D01*
X162919970Y-104658882D01*
X162919972Y-104658882D01*
X162919975Y-104658884D01*
X163020317Y-104691487D01*
X163107173Y-104719709D01*
X163301578Y-104750500D01*
X163301583Y-104750500D01*
X163498422Y-104750500D01*
X163692826Y-104719709D01*
X163880025Y-104658884D01*
X164055405Y-104569524D01*
X164214646Y-104453828D01*
X164353828Y-104314646D01*
X164469524Y-104155405D01*
X164558884Y-103980025D01*
X164619709Y-103792826D01*
X164621279Y-103782914D01*
X164650500Y-103598422D01*
X164650500Y-103401577D01*
X164619709Y-103207173D01*
X164558882Y-103019970D01*
X164511743Y-102927455D01*
X164469524Y-102844595D01*
X164353828Y-102685354D01*
X164214646Y-102546172D01*
X164055405Y-102430476D01*
X164049743Y-102427591D01*
X163880029Y-102341117D01*
X163692826Y-102280290D01*
X163498422Y-102249500D01*
X163498417Y-102249500D01*
X163301583Y-102249500D01*
X163301578Y-102249500D01*
X163107173Y-102280290D01*
X162919970Y-102341117D01*
X162744594Y-102430476D01*
X162653741Y-102496485D01*
X162585354Y-102546172D01*
X162585352Y-102546174D01*
X162585351Y-102546174D01*
X162446174Y-102685351D01*
X162446174Y-102685352D01*
X162446172Y-102685354D01*
X162396485Y-102753741D01*
X162330476Y-102844594D01*
X162241117Y-103019970D01*
X162180290Y-103207173D01*
X162149500Y-103401577D01*
X161250500Y-103401577D01*
X161219709Y-103207173D01*
X161158882Y-103019970D01*
X161111743Y-102927455D01*
X161069524Y-102844595D01*
X160953828Y-102685354D01*
X160814646Y-102546172D01*
X160655405Y-102430476D01*
X160649743Y-102427591D01*
X160480029Y-102341117D01*
X160292826Y-102280290D01*
X160098422Y-102249500D01*
X160098417Y-102249500D01*
X159901583Y-102249500D01*
X159901578Y-102249500D01*
X159707173Y-102280290D01*
X159519970Y-102341117D01*
X159344594Y-102430476D01*
X159253741Y-102496485D01*
X159185354Y-102546172D01*
X159185352Y-102546174D01*
X159185351Y-102546174D01*
X159046174Y-102685351D01*
X159046174Y-102685352D01*
X159046172Y-102685354D01*
X158996485Y-102753741D01*
X158930476Y-102844594D01*
X158841117Y-103019970D01*
X158780290Y-103207173D01*
X158749500Y-103401577D01*
X157048024Y-103401577D01*
X156670233Y-103023787D01*
X156712292Y-103012518D01*
X156837708Y-102940110D01*
X156940110Y-102837708D01*
X157012518Y-102712292D01*
X157023787Y-102670234D01*
X157722658Y-103369105D01*
X157722658Y-103369104D01*
X157755557Y-103323825D01*
X157755558Y-103323823D01*
X157782910Y-103286176D01*
X157782918Y-103286163D01*
X157890102Y-103075802D01*
X157963065Y-102851247D01*
X158000000Y-102618052D01*
X158000000Y-102381947D01*
X157963065Y-102148752D01*
X157890102Y-101924197D01*
X157782914Y-101713828D01*
X157722658Y-101630894D01*
X157722658Y-101630893D01*
X157023787Y-102329765D01*
X157012518Y-102287708D01*
X156940110Y-102162292D01*
X156837708Y-102059890D01*
X156712292Y-101987482D01*
X156670234Y-101976212D01*
X157369105Y-101277340D01*
X157369104Y-101277338D01*
X157286174Y-101217087D01*
X157075802Y-101109897D01*
X156851247Y-101036934D01*
X156851248Y-101036934D01*
X156618052Y-101000000D01*
X156381948Y-101000000D01*
X156148752Y-101036934D01*
X155924197Y-101109897D01*
X155713830Y-101217084D01*
X155630894Y-101277340D01*
X156329766Y-101976212D01*
X156287708Y-101987482D01*
X156162292Y-102059890D01*
X156059890Y-102162292D01*
X155987482Y-102287708D01*
X155976212Y-102329766D01*
X155277340Y-101630894D01*
X155217084Y-101713830D01*
X155109897Y-101924197D01*
X155036934Y-102148752D01*
X155000000Y-102381947D01*
X153500500Y-102381947D01*
X153500500Y-102381902D01*
X153463553Y-102148631D01*
X153390566Y-101924003D01*
X153283477Y-101713830D01*
X153283343Y-101713567D01*
X153144517Y-101522490D01*
X152977510Y-101355483D01*
X152786433Y-101216657D01*
X152575996Y-101109433D01*
X152351368Y-101036446D01*
X152118097Y-100999500D01*
X152118092Y-100999500D01*
X151881908Y-100999500D01*
X151881903Y-100999500D01*
X151648631Y-101036446D01*
X151424003Y-101109433D01*
X151213566Y-101216657D01*
X151130047Y-101277338D01*
X151022490Y-101355483D01*
X151022488Y-101355485D01*
X151022487Y-101355485D01*
X150855485Y-101522487D01*
X150855485Y-101522488D01*
X150855483Y-101522490D01*
X150795862Y-101604550D01*
X150716657Y-101713566D01*
X150609433Y-101924003D01*
X150536446Y-102148631D01*
X150499500Y-102381902D01*
X138000500Y-102381902D01*
X138000500Y-94368872D01*
X139499500Y-94368872D01*
X139499500Y-94631127D01*
X139526123Y-94833339D01*
X139533730Y-94891116D01*
X139601602Y-95144418D01*
X139601605Y-95144428D01*
X139701953Y-95386690D01*
X139701958Y-95386700D01*
X139833075Y-95613803D01*
X139992718Y-95821851D01*
X139992726Y-95821860D01*
X140178140Y-96007274D01*
X140178148Y-96007281D01*
X140386196Y-96166924D01*
X140613299Y-96298041D01*
X140613309Y-96298046D01*
X140855571Y-96398394D01*
X140855581Y-96398398D01*
X141108884Y-96466270D01*
X141368880Y-96500500D01*
X141368887Y-96500500D01*
X141631113Y-96500500D01*
X141631120Y-96500500D01*
X141891116Y-96466270D01*
X142144419Y-96398398D01*
X142386697Y-96298043D01*
X142613803Y-96166924D01*
X142821851Y-96007282D01*
X142821855Y-96007277D01*
X142821860Y-96007274D01*
X143007274Y-95821860D01*
X143007277Y-95821855D01*
X143007282Y-95821851D01*
X143166924Y-95613803D01*
X143298043Y-95386697D01*
X143398398Y-95144419D01*
X143466270Y-94891116D01*
X143500500Y-94631120D01*
X143500500Y-94368880D01*
X143500499Y-94368872D01*
X161499500Y-94368872D01*
X161499500Y-94631127D01*
X161526123Y-94833339D01*
X161533730Y-94891116D01*
X161601602Y-95144418D01*
X161601605Y-95144428D01*
X161701953Y-95386690D01*
X161701958Y-95386700D01*
X161833075Y-95613803D01*
X161992718Y-95821851D01*
X161992726Y-95821860D01*
X162178140Y-96007274D01*
X162178148Y-96007281D01*
X162386196Y-96166924D01*
X162613299Y-96298041D01*
X162613309Y-96298046D01*
X162855571Y-96398394D01*
X162855581Y-96398398D01*
X163108884Y-96466270D01*
X163368880Y-96500500D01*
X163368887Y-96500500D01*
X163631113Y-96500500D01*
X163631120Y-96500500D01*
X163891116Y-96466270D01*
X164144419Y-96398398D01*
X164386697Y-96298043D01*
X164613803Y-96166924D01*
X164821851Y-96007282D01*
X164821855Y-96007277D01*
X164821860Y-96007274D01*
X165007274Y-95821860D01*
X165007277Y-95821855D01*
X165007282Y-95821851D01*
X165166924Y-95613803D01*
X165298043Y-95386697D01*
X165398398Y-95144419D01*
X165466270Y-94891116D01*
X165500500Y-94631120D01*
X165500500Y-94368880D01*
X165466270Y-94108884D01*
X165398398Y-93855581D01*
X165398394Y-93855571D01*
X165298046Y-93613309D01*
X165298041Y-93613299D01*
X165166924Y-93386196D01*
X165007281Y-93178148D01*
X165007274Y-93178140D01*
X164821860Y-92992726D01*
X164821851Y-92992718D01*
X164613803Y-92833075D01*
X164386700Y-92701958D01*
X164386690Y-92701953D01*
X164144428Y-92601605D01*
X164144421Y-92601603D01*
X164144419Y-92601602D01*
X163891116Y-92533730D01*
X163833339Y-92526123D01*
X163631127Y-92499500D01*
X163631120Y-92499500D01*
X163368880Y-92499500D01*
X163368872Y-92499500D01*
X163137772Y-92529926D01*
X163108884Y-92533730D01*
X162855581Y-92601602D01*
X162855571Y-92601605D01*
X162613309Y-92701953D01*
X162613299Y-92701958D01*
X162386196Y-92833075D01*
X162178148Y-92992718D01*
X161992718Y-93178148D01*
X161833075Y-93386196D01*
X161701958Y-93613299D01*
X161701953Y-93613309D01*
X161601605Y-93855571D01*
X161601602Y-93855581D01*
X161533730Y-94108885D01*
X161499500Y-94368872D01*
X143500499Y-94368872D01*
X143466270Y-94108884D01*
X143398398Y-93855581D01*
X143398394Y-93855571D01*
X143298046Y-93613309D01*
X143298041Y-93613299D01*
X143166924Y-93386196D01*
X143007281Y-93178148D01*
X143007274Y-93178140D01*
X142821860Y-92992726D01*
X142821851Y-92992718D01*
X142613803Y-92833075D01*
X142386700Y-92701958D01*
X142386690Y-92701953D01*
X142144428Y-92601605D01*
X142144421Y-92601603D01*
X142144419Y-92601602D01*
X141891116Y-92533730D01*
X141833339Y-92526123D01*
X141631127Y-92499500D01*
X141631120Y-92499500D01*
X141368880Y-92499500D01*
X141368872Y-92499500D01*
X141137772Y-92529926D01*
X141108884Y-92533730D01*
X140855581Y-92601602D01*
X140855571Y-92601605D01*
X140613309Y-92701953D01*
X140613299Y-92701958D01*
X140386196Y-92833075D01*
X140178148Y-92992718D01*
X139992718Y-93178148D01*
X139833075Y-93386196D01*
X139701958Y-93613299D01*
X139701953Y-93613309D01*
X139601605Y-93855571D01*
X139601602Y-93855581D01*
X139533730Y-94108885D01*
X139499500Y-94368872D01*
X138000500Y-94368872D01*
X138000500Y-86524986D01*
X149375001Y-86524986D01*
X149385494Y-86627697D01*
X149440641Y-86794119D01*
X149440643Y-86794124D01*
X149532684Y-86943345D01*
X149656654Y-87067315D01*
X149805875Y-87159356D01*
X149805880Y-87159358D01*
X149972302Y-87214505D01*
X149972309Y-87214506D01*
X150075019Y-87224999D01*
X150212499Y-87224999D01*
X150212500Y-87224998D01*
X150212500Y-86250000D01*
X149375001Y-86250000D01*
X149375001Y-86524986D01*
X138000500Y-86524986D01*
X138000500Y-85475013D01*
X149375000Y-85475013D01*
X149375000Y-85750000D01*
X150212500Y-85750000D01*
X150212500Y-84775000D01*
X150712500Y-84775000D01*
X150712500Y-87224999D01*
X150849972Y-87224999D01*
X150849986Y-87224998D01*
X150952697Y-87214505D01*
X151119119Y-87159358D01*
X151119124Y-87159356D01*
X151268345Y-87067315D01*
X151392318Y-86943342D01*
X151394165Y-86940348D01*
X151395969Y-86938724D01*
X151396798Y-86937677D01*
X151396976Y-86937818D01*
X151446110Y-86893621D01*
X151515073Y-86882396D01*
X151579156Y-86910236D01*
X151605243Y-86940341D01*
X151607288Y-86943656D01*
X151731344Y-87067712D01*
X151880666Y-87159814D01*
X152047203Y-87214999D01*
X152149991Y-87225500D01*
X152925008Y-87225499D01*
X152925016Y-87225498D01*
X152925019Y-87225498D01*
X152981302Y-87219748D01*
X153027797Y-87214999D01*
X153194334Y-87159814D01*
X153343656Y-87067712D01*
X153467712Y-86943656D01*
X153559814Y-86794334D01*
X153614999Y-86627797D01*
X153625500Y-86525009D01*
X153625499Y-85474992D01*
X153614999Y-85372203D01*
X153606794Y-85347441D01*
X153600500Y-85308437D01*
X153600500Y-83502450D01*
X153620185Y-83435411D01*
X153655610Y-83399348D01*
X153666468Y-83392093D01*
X153812093Y-83246468D01*
X153926510Y-83075230D01*
X154005322Y-82884961D01*
X154045500Y-82682973D01*
X154045500Y-82477027D01*
X154045500Y-82477024D01*
X154045499Y-82477022D01*
X154005323Y-82275046D01*
X154005322Y-82275039D01*
X153926510Y-82084770D01*
X153926509Y-82084767D01*
X153812096Y-81913536D01*
X153812090Y-81913528D01*
X153666471Y-81767909D01*
X153666463Y-81767903D01*
X153495232Y-81653490D01*
X153304961Y-81574678D01*
X153304953Y-81574676D01*
X153102976Y-81534500D01*
X153102973Y-81534500D01*
X152897027Y-81534500D01*
X152897024Y-81534500D01*
X152695046Y-81574676D01*
X152695038Y-81574678D01*
X152504767Y-81653490D01*
X152333536Y-81767903D01*
X152333528Y-81767909D01*
X152187909Y-81913528D01*
X152187903Y-81913536D01*
X152073490Y-82084767D01*
X151994678Y-82275038D01*
X151994676Y-82275046D01*
X151954500Y-82477022D01*
X151954500Y-82682977D01*
X151994676Y-82884953D01*
X151994678Y-82884961D01*
X152073490Y-83075232D01*
X152187903Y-83246463D01*
X152187909Y-83246471D01*
X152333526Y-83392088D01*
X152333531Y-83392092D01*
X152333532Y-83392093D01*
X152344389Y-83399347D01*
X152389195Y-83452958D01*
X152399500Y-83502450D01*
X152399500Y-84650500D01*
X152379815Y-84717539D01*
X152327011Y-84763294D01*
X152275501Y-84774500D01*
X152149999Y-84774500D01*
X152149980Y-84774501D01*
X152047203Y-84785000D01*
X152047200Y-84785001D01*
X151880668Y-84840185D01*
X151880663Y-84840187D01*
X151731342Y-84932289D01*
X151607288Y-85056343D01*
X151607283Y-85056349D01*
X151605241Y-85059661D01*
X151603247Y-85061453D01*
X151602807Y-85062011D01*
X151602711Y-85061935D01*
X151553291Y-85106383D01*
X151484328Y-85117602D01*
X151420247Y-85089755D01*
X151394168Y-85059656D01*
X151392319Y-85056659D01*
X151392316Y-85056655D01*
X151268345Y-84932684D01*
X151119124Y-84840643D01*
X151119119Y-84840641D01*
X150952697Y-84785494D01*
X150952690Y-84785493D01*
X150849986Y-84775000D01*
X150712500Y-84775000D01*
X150212500Y-84775000D01*
X150075027Y-84775000D01*
X150075012Y-84775001D01*
X149972302Y-84785494D01*
X149805880Y-84840641D01*
X149805875Y-84840643D01*
X149656654Y-84932684D01*
X149532684Y-85056654D01*
X149440643Y-85205875D01*
X149440641Y-85205880D01*
X149385494Y-85372302D01*
X149385493Y-85372309D01*
X149375000Y-85475013D01*
X138000500Y-85475013D01*
X138000500Y-80935016D01*
X149918535Y-80935016D01*
X149965000Y-80966063D01*
X149965013Y-80966070D01*
X150155180Y-81044839D01*
X150155192Y-81044842D01*
X150357072Y-81084999D01*
X150357075Y-81085000D01*
X150562925Y-81085000D01*
X150562927Y-81084999D01*
X150764807Y-81044842D01*
X150764819Y-81044839D01*
X150954986Y-80966070D01*
X151001462Y-80935015D01*
X150460001Y-80393553D01*
X150460000Y-80393553D01*
X149918535Y-80935016D01*
X138000500Y-80935016D01*
X138000500Y-79937072D01*
X149415000Y-79937072D01*
X149415000Y-80142927D01*
X149455157Y-80344807D01*
X149455160Y-80344819D01*
X149533930Y-80534989D01*
X149564983Y-80581462D01*
X150106446Y-80040000D01*
X150106446Y-80039999D01*
X150061027Y-79994580D01*
X150115000Y-79994580D01*
X150115000Y-80085420D01*
X150138511Y-80173165D01*
X150183931Y-80251835D01*
X150248165Y-80316069D01*
X150326835Y-80361489D01*
X150414580Y-80385000D01*
X150505420Y-80385000D01*
X150593165Y-80361489D01*
X150671835Y-80316069D01*
X150736069Y-80251835D01*
X150781489Y-80173165D01*
X150805000Y-80085420D01*
X150805000Y-80039999D01*
X150813553Y-80039999D01*
X150813553Y-80040000D01*
X151355015Y-80581462D01*
X151386070Y-80534986D01*
X151464839Y-80344819D01*
X151464842Y-80344807D01*
X151504999Y-80142927D01*
X151505000Y-80142925D01*
X151505000Y-79937073D01*
X151504990Y-79937022D01*
X154494500Y-79937022D01*
X154494500Y-80142977D01*
X154534676Y-80344953D01*
X154534678Y-80344961D01*
X154613490Y-80535232D01*
X154727903Y-80706463D01*
X154727909Y-80706471D01*
X154873528Y-80852090D01*
X154873536Y-80852096D01*
X155044767Y-80966509D01*
X155100496Y-80989592D01*
X155235039Y-81045322D01*
X155434508Y-81084999D01*
X155437022Y-81085499D01*
X155437025Y-81085500D01*
X155437027Y-81085500D01*
X155642975Y-81085500D01*
X155642976Y-81085499D01*
X155844961Y-81045322D01*
X156035230Y-80966510D01*
X156035230Y-80966509D01*
X156035232Y-80966509D01*
X156120275Y-80909684D01*
X156206468Y-80852093D01*
X156352093Y-80706468D01*
X156466510Y-80535230D01*
X156545322Y-80344961D01*
X156585500Y-80142973D01*
X156585500Y-79937027D01*
X156585500Y-79937024D01*
X156585499Y-79937022D01*
X156545352Y-79735192D01*
X156545322Y-79735039D01*
X156466611Y-79545013D01*
X156466509Y-79544767D01*
X156352096Y-79373536D01*
X156352090Y-79373528D01*
X156206471Y-79227909D01*
X156206463Y-79227903D01*
X156035232Y-79113490D01*
X155844961Y-79034678D01*
X155844953Y-79034676D01*
X155642976Y-78994500D01*
X155642973Y-78994500D01*
X155437027Y-78994500D01*
X155437024Y-78994500D01*
X155235046Y-79034676D01*
X155235038Y-79034678D01*
X155044767Y-79113490D01*
X154873536Y-79227903D01*
X154873528Y-79227909D01*
X154727909Y-79373528D01*
X154727903Y-79373536D01*
X154613490Y-79544767D01*
X154534678Y-79735038D01*
X154534676Y-79735046D01*
X154494500Y-79937022D01*
X151504990Y-79937022D01*
X151464842Y-79735192D01*
X151464839Y-79735180D01*
X151386070Y-79545013D01*
X151386063Y-79545000D01*
X151355016Y-79498535D01*
X150813553Y-80039999D01*
X150805000Y-80039999D01*
X150805000Y-79994580D01*
X150781489Y-79906835D01*
X150736069Y-79828165D01*
X150671835Y-79763931D01*
X150593165Y-79718511D01*
X150505420Y-79695000D01*
X150414580Y-79695000D01*
X150326835Y-79718511D01*
X150248165Y-79763931D01*
X150183931Y-79828165D01*
X150138511Y-79906835D01*
X150115000Y-79994580D01*
X150061027Y-79994580D01*
X149564983Y-79498535D01*
X149533931Y-79545010D01*
X149455159Y-79735184D01*
X149455157Y-79735192D01*
X149415000Y-79937072D01*
X138000500Y-79937072D01*
X138000500Y-79144983D01*
X149918535Y-79144983D01*
X150460000Y-79686446D01*
X150460001Y-79686446D01*
X151001462Y-79144983D01*
X151001462Y-79144982D01*
X150954989Y-79113930D01*
X150764819Y-79035160D01*
X150764807Y-79035157D01*
X150562926Y-78995000D01*
X150357074Y-78995000D01*
X150155192Y-79035157D01*
X150155184Y-79035159D01*
X149965010Y-79113931D01*
X149918535Y-79144983D01*
X138000500Y-79144983D01*
X138000500Y-76907135D01*
X151954500Y-76907135D01*
X151954500Y-78092870D01*
X151954501Y-78092876D01*
X151960908Y-78152483D01*
X152011202Y-78287328D01*
X152011206Y-78287335D01*
X152097452Y-78402544D01*
X152097455Y-78402547D01*
X152212664Y-78488793D01*
X152212671Y-78488797D01*
X152347517Y-78539091D01*
X152347516Y-78539091D01*
X152354444Y-78539835D01*
X152407127Y-78545500D01*
X153592872Y-78545499D01*
X153652483Y-78539091D01*
X153787331Y-78488796D01*
X153902546Y-78402546D01*
X153988796Y-78287331D01*
X154039091Y-78152483D01*
X154045500Y-78092873D01*
X154045499Y-76907128D01*
X154039091Y-76847517D01*
X153988796Y-76712669D01*
X153988795Y-76712668D01*
X153988793Y-76712664D01*
X153902547Y-76597455D01*
X153902544Y-76597452D01*
X153787335Y-76511206D01*
X153787328Y-76511202D01*
X153652482Y-76460908D01*
X153652483Y-76460908D01*
X153592883Y-76454501D01*
X153592881Y-76454500D01*
X153592873Y-76454500D01*
X153592864Y-76454500D01*
X152407129Y-76454500D01*
X152407123Y-76454501D01*
X152347516Y-76460908D01*
X152212671Y-76511202D01*
X152212664Y-76511206D01*
X152097455Y-76597452D01*
X152097452Y-76597455D01*
X152011206Y-76712664D01*
X152011202Y-76712671D01*
X151960908Y-76847517D01*
X151954501Y-76907116D01*
X151954501Y-76907123D01*
X151954500Y-76907135D01*
X138000500Y-76907135D01*
X138000500Y-75024986D01*
X147337501Y-75024986D01*
X147347994Y-75127697D01*
X147403141Y-75294119D01*
X147403143Y-75294124D01*
X147495184Y-75443345D01*
X147619154Y-75567315D01*
X147768375Y-75659356D01*
X147768380Y-75659358D01*
X147934802Y-75714505D01*
X147934809Y-75714506D01*
X148037519Y-75724999D01*
X148174999Y-75724999D01*
X148175000Y-75724998D01*
X148175000Y-74750000D01*
X147337501Y-74750000D01*
X147337501Y-75024986D01*
X138000500Y-75024986D01*
X138000500Y-72368872D01*
X139499500Y-72368872D01*
X139499500Y-72631127D01*
X139520626Y-72791584D01*
X139533730Y-72891116D01*
X139601602Y-73144418D01*
X139601605Y-73144428D01*
X139701953Y-73386690D01*
X139701958Y-73386700D01*
X139833075Y-73613803D01*
X139992718Y-73821851D01*
X139992726Y-73821860D01*
X140178140Y-74007274D01*
X140178148Y-74007281D01*
X140386196Y-74166924D01*
X140613299Y-74298041D01*
X140613309Y-74298046D01*
X140796679Y-74374000D01*
X140855581Y-74398398D01*
X141108884Y-74466270D01*
X141368880Y-74500500D01*
X141368887Y-74500500D01*
X141631113Y-74500500D01*
X141631120Y-74500500D01*
X141891116Y-74466270D01*
X142144419Y-74398398D01*
X142386697Y-74298043D01*
X142613803Y-74166924D01*
X142821851Y-74007282D01*
X142821855Y-74007277D01*
X142821860Y-74007274D01*
X142854121Y-73975013D01*
X147337500Y-73975013D01*
X147337500Y-74250000D01*
X148301000Y-74250000D01*
X148368039Y-74269685D01*
X148413794Y-74322489D01*
X148425000Y-74374000D01*
X148425000Y-74500000D01*
X148551000Y-74500000D01*
X148618039Y-74519685D01*
X148663794Y-74572489D01*
X148675000Y-74624000D01*
X148675000Y-75724999D01*
X148812472Y-75724999D01*
X148812486Y-75724998D01*
X148915197Y-75714505D01*
X149081619Y-75659358D01*
X149081624Y-75659356D01*
X149230845Y-75567315D01*
X149354818Y-75443342D01*
X149356665Y-75440348D01*
X149358469Y-75438724D01*
X149359298Y-75437677D01*
X149359476Y-75437818D01*
X149408610Y-75393621D01*
X149477573Y-75382396D01*
X149541656Y-75410236D01*
X149567743Y-75440341D01*
X149569788Y-75443656D01*
X149693844Y-75567712D01*
X149843166Y-75659814D01*
X150009703Y-75714999D01*
X150112491Y-75725500D01*
X150887508Y-75725499D01*
X150887516Y-75725498D01*
X150887519Y-75725498D01*
X150943802Y-75719748D01*
X150990297Y-75714999D01*
X151156834Y-75659814D01*
X151306156Y-75567712D01*
X151430212Y-75443656D01*
X151522314Y-75294334D01*
X151577499Y-75127797D01*
X151588000Y-75025009D01*
X151587999Y-73974992D01*
X151577499Y-73872203D01*
X151522314Y-73705666D01*
X151430212Y-73556344D01*
X151430208Y-73556340D01*
X151430133Y-73556245D01*
X151430100Y-73556163D01*
X151426420Y-73550197D01*
X151427439Y-73549568D01*
X151403991Y-73491450D01*
X151417029Y-73422808D01*
X151439716Y-73391650D01*
X151452493Y-73378873D01*
X151627134Y-73204232D01*
X151676496Y-73173983D01*
X151711561Y-73162591D01*
X151747208Y-73144428D01*
X151887499Y-73072945D01*
X151887498Y-73072945D01*
X151887501Y-73072944D01*
X151993288Y-72996086D01*
X152047246Y-72956884D01*
X152047248Y-72956881D01*
X152047252Y-72956879D01*
X152186879Y-72817252D01*
X152186881Y-72817248D01*
X152186884Y-72817246D01*
X152302941Y-72657505D01*
X152302942Y-72657504D01*
X152302944Y-72657501D01*
X152389517Y-72487593D01*
X152437490Y-72436800D01*
X152505311Y-72420005D01*
X152571446Y-72442542D01*
X152610482Y-72487593D01*
X152683614Y-72631120D01*
X152697058Y-72657505D01*
X152813115Y-72817246D01*
X152952753Y-72956884D01*
X153082415Y-73051087D01*
X153112499Y-73072944D01*
X153288439Y-73162591D01*
X153413637Y-73203270D01*
X153476236Y-73223610D01*
X153671264Y-73254500D01*
X153671269Y-73254500D01*
X153868736Y-73254500D01*
X154063763Y-73223610D01*
X154123396Y-73204234D01*
X154251561Y-73162591D01*
X154427501Y-73072944D01*
X154533288Y-72996086D01*
X154587246Y-72956884D01*
X154587248Y-72956881D01*
X154587252Y-72956879D01*
X154726879Y-72817252D01*
X154726881Y-72817248D01*
X154726884Y-72817246D01*
X154842941Y-72657505D01*
X154842942Y-72657504D01*
X154842944Y-72657501D01*
X154929517Y-72487593D01*
X154977490Y-72436800D01*
X155045311Y-72420005D01*
X155111446Y-72442542D01*
X155150482Y-72487593D01*
X155223614Y-72631120D01*
X155237058Y-72657505D01*
X155353115Y-72817246D01*
X155492753Y-72956884D01*
X155622415Y-73051087D01*
X155652499Y-73072944D01*
X155828439Y-73162591D01*
X155953637Y-73203270D01*
X156016236Y-73223610D01*
X156211264Y-73254500D01*
X156211269Y-73254500D01*
X156408736Y-73254500D01*
X156603763Y-73223610D01*
X156663396Y-73204234D01*
X156791561Y-73162591D01*
X156967501Y-73072944D01*
X157073288Y-72996086D01*
X157127246Y-72956884D01*
X157127248Y-72956881D01*
X157127252Y-72956879D01*
X157266879Y-72817252D01*
X157266881Y-72817248D01*
X157266884Y-72817246D01*
X157317779Y-72747192D01*
X157382944Y-72657501D01*
X157472591Y-72481561D01*
X157509206Y-72368872D01*
X161499500Y-72368872D01*
X161499500Y-72631127D01*
X161520626Y-72791584D01*
X161533730Y-72891116D01*
X161601602Y-73144418D01*
X161601605Y-73144428D01*
X161701953Y-73386690D01*
X161701958Y-73386700D01*
X161833075Y-73613803D01*
X161992718Y-73821851D01*
X161992726Y-73821860D01*
X162178140Y-74007274D01*
X162178148Y-74007281D01*
X162386196Y-74166924D01*
X162613299Y-74298041D01*
X162613309Y-74298046D01*
X162796679Y-74374000D01*
X162855581Y-74398398D01*
X163108884Y-74466270D01*
X163368880Y-74500500D01*
X163368887Y-74500500D01*
X163631113Y-74500500D01*
X163631120Y-74500500D01*
X163891116Y-74466270D01*
X164144419Y-74398398D01*
X164386697Y-74298043D01*
X164613803Y-74166924D01*
X164821851Y-74007282D01*
X164821855Y-74007277D01*
X164821860Y-74007274D01*
X165007274Y-73821860D01*
X165007277Y-73821855D01*
X165007282Y-73821851D01*
X165166924Y-73613803D01*
X165298043Y-73386697D01*
X165398398Y-73144419D01*
X165466270Y-72891116D01*
X165500500Y-72631120D01*
X165500500Y-72368880D01*
X165466270Y-72108884D01*
X165398398Y-71855581D01*
X165336538Y-71706237D01*
X165298046Y-71613309D01*
X165298041Y-71613299D01*
X165166924Y-71386196D01*
X165007281Y-71178148D01*
X165007274Y-71178140D01*
X164821860Y-70992726D01*
X164821851Y-70992718D01*
X164613803Y-70833075D01*
X164386700Y-70701958D01*
X164386690Y-70701953D01*
X164144428Y-70601605D01*
X164144421Y-70601603D01*
X164144419Y-70601602D01*
X163891116Y-70533730D01*
X163833339Y-70526123D01*
X163631127Y-70499500D01*
X163631120Y-70499500D01*
X163368880Y-70499500D01*
X163368872Y-70499500D01*
X163137772Y-70529926D01*
X163108884Y-70533730D01*
X162855581Y-70601602D01*
X162855571Y-70601605D01*
X162613309Y-70701953D01*
X162613299Y-70701958D01*
X162386196Y-70833075D01*
X162178148Y-70992718D01*
X161992718Y-71178148D01*
X161833075Y-71386196D01*
X161701958Y-71613299D01*
X161701953Y-71613309D01*
X161601605Y-71855571D01*
X161601602Y-71855581D01*
X161536451Y-72098731D01*
X161533730Y-72108885D01*
X161499500Y-72368872D01*
X157509206Y-72368872D01*
X157533610Y-72293763D01*
X157549563Y-72193039D01*
X157564500Y-72098736D01*
X157564500Y-71901263D01*
X157533610Y-71706236D01*
X157477671Y-71534075D01*
X157472591Y-71518439D01*
X157382944Y-71342499D01*
X157371681Y-71326997D01*
X157266884Y-71182753D01*
X157127246Y-71043115D01*
X156967504Y-70927058D01*
X156967503Y-70927057D01*
X156967501Y-70927056D01*
X156791561Y-70837409D01*
X156791558Y-70837408D01*
X156603763Y-70776389D01*
X156408736Y-70745500D01*
X156408731Y-70745500D01*
X156211269Y-70745500D01*
X156211264Y-70745500D01*
X156016236Y-70776389D01*
X155828441Y-70837408D01*
X155652495Y-70927058D01*
X155492753Y-71043115D01*
X155353115Y-71182753D01*
X155237058Y-71342495D01*
X155237056Y-71342499D01*
X155156805Y-71500000D01*
X155150485Y-71512403D01*
X155102510Y-71563199D01*
X155034689Y-71579994D01*
X154968554Y-71557456D01*
X154929515Y-71512403D01*
X154842944Y-71342499D01*
X154831681Y-71326997D01*
X154726884Y-71182753D01*
X154587246Y-71043115D01*
X154427504Y-70927058D01*
X154427503Y-70927057D01*
X154427501Y-70927056D01*
X154251561Y-70837409D01*
X154251558Y-70837408D01*
X154063763Y-70776389D01*
X153868736Y-70745500D01*
X153868731Y-70745500D01*
X153671269Y-70745500D01*
X153671264Y-70745500D01*
X153476236Y-70776389D01*
X153288441Y-70837408D01*
X153112495Y-70927058D01*
X152952753Y-71043115D01*
X152813115Y-71182753D01*
X152697058Y-71342495D01*
X152697056Y-71342499D01*
X152616805Y-71500000D01*
X152610485Y-71512403D01*
X152562510Y-71563199D01*
X152494689Y-71579994D01*
X152428554Y-71557456D01*
X152389515Y-71512403D01*
X152302944Y-71342499D01*
X152291681Y-71326997D01*
X152186884Y-71182753D01*
X152047246Y-71043115D01*
X151887504Y-70927058D01*
X151887503Y-70927057D01*
X151887501Y-70927056D01*
X151711561Y-70837409D01*
X151711558Y-70837408D01*
X151523763Y-70776389D01*
X151328736Y-70745500D01*
X151328731Y-70745500D01*
X151131269Y-70745500D01*
X151131264Y-70745500D01*
X150936236Y-70776389D01*
X150748441Y-70837408D01*
X150572495Y-70927058D01*
X150412753Y-71043115D01*
X150273115Y-71182753D01*
X150168318Y-71326997D01*
X150112989Y-71369663D01*
X150043375Y-71375642D01*
X149981580Y-71343037D01*
X149947223Y-71282198D01*
X149944000Y-71254112D01*
X149944000Y-71198172D01*
X149943999Y-71198155D01*
X149937598Y-71138627D01*
X149937596Y-71138620D01*
X149887354Y-71003913D01*
X149887350Y-71003906D01*
X149801190Y-70888812D01*
X149801187Y-70888809D01*
X149686093Y-70802649D01*
X149686086Y-70802645D01*
X149551379Y-70752403D01*
X149551372Y-70752401D01*
X149491844Y-70746000D01*
X148940000Y-70746000D01*
X148940000Y-71566988D01*
X148882993Y-71534075D01*
X148755826Y-71500000D01*
X148624174Y-71500000D01*
X148497007Y-71534075D01*
X148440000Y-71566988D01*
X148440000Y-70746000D01*
X147888155Y-70746000D01*
X147828627Y-70752401D01*
X147828620Y-70752403D01*
X147693913Y-70802645D01*
X147693906Y-70802649D01*
X147578812Y-70888809D01*
X147578809Y-70888812D01*
X147492649Y-71003906D01*
X147492645Y-71003913D01*
X147442403Y-71138620D01*
X147442401Y-71138627D01*
X147436000Y-71198155D01*
X147436000Y-71750000D01*
X148256988Y-71750000D01*
X148224075Y-71807007D01*
X148190000Y-71934174D01*
X148190000Y-72065826D01*
X148224075Y-72192993D01*
X148256988Y-72250000D01*
X147436000Y-72250000D01*
X147436000Y-72801844D01*
X147442401Y-72861372D01*
X147442403Y-72861379D01*
X147492645Y-72996086D01*
X147492649Y-72996093D01*
X147578809Y-73111187D01*
X147578812Y-73111190D01*
X147686659Y-73191925D01*
X147728530Y-73247859D01*
X147733514Y-73317550D01*
X147700028Y-73378873D01*
X147677445Y-73396729D01*
X147619159Y-73432680D01*
X147619155Y-73432683D01*
X147495184Y-73556654D01*
X147403143Y-73705875D01*
X147403141Y-73705880D01*
X147347994Y-73872302D01*
X147347993Y-73872309D01*
X147337500Y-73975013D01*
X142854121Y-73975013D01*
X143007274Y-73821860D01*
X143007277Y-73821855D01*
X143007282Y-73821851D01*
X143166924Y-73613803D01*
X143298043Y-73386697D01*
X143398398Y-73144419D01*
X143466270Y-72891116D01*
X143500500Y-72631120D01*
X143500500Y-72368880D01*
X143466270Y-72108884D01*
X143398398Y-71855581D01*
X143336538Y-71706237D01*
X143298046Y-71613309D01*
X143298041Y-71613299D01*
X143166927Y-71386201D01*
X143087122Y-71282198D01*
X143007282Y-71178149D01*
X143007281Y-71178148D01*
X143007274Y-71178140D01*
X142821860Y-70992726D01*
X142821851Y-70992718D01*
X142613803Y-70833075D01*
X142386700Y-70701958D01*
X142386690Y-70701953D01*
X142144428Y-70601605D01*
X142144421Y-70601603D01*
X142144419Y-70601602D01*
X141891116Y-70533730D01*
X141833339Y-70526123D01*
X141631127Y-70499500D01*
X141631120Y-70499500D01*
X141368880Y-70499500D01*
X141368872Y-70499500D01*
X141137772Y-70529926D01*
X141108884Y-70533730D01*
X140855581Y-70601602D01*
X140855571Y-70601605D01*
X140613309Y-70701953D01*
X140613299Y-70701958D01*
X140386196Y-70833075D01*
X140178148Y-70992718D01*
X139992718Y-71178148D01*
X139833075Y-71386196D01*
X139701958Y-71613299D01*
X139701953Y-71613309D01*
X139601605Y-71855571D01*
X139601602Y-71855581D01*
X139536451Y-72098731D01*
X139533730Y-72108885D01*
X139499500Y-72368872D01*
X138000500Y-72368872D01*
X138000500Y-70124500D01*
X138020185Y-70057461D01*
X138072989Y-70011706D01*
X138124500Y-70000500D01*
X167375500Y-70000500D01*
X167442539Y-70020185D01*
G37*
%TD.AperFunction*%
%TD*%
M02*
