%TF.GenerationSoftware,KiCad,Pcbnew,9.0.2*%
%TF.CreationDate,2026-07-04T14:36:06-03:00*%
%TF.ProjectId,IR_Termostat,49525f54-6572-46d6-9f73-7461742e6b69,rev?*%
%TF.SameCoordinates,Original*%
%TF.FileFunction,Legend,Top*%
%TF.FilePolarity,Positive*%
%FSLAX46Y46*%
G04 Gerber Fmt 4.6, Leading zero omitted, Abs format (unit mm)*
G04 Created by KiCad (PCBNEW 9.0.2) date 2026-07-04 14:36:06*
%MOMM*%
%LPD*%
G01*
G04 APERTURE LIST*
%ADD10C,0.100000*%
%ADD11C,0.150000*%
%ADD12C,0.125000*%
%ADD13C,0.120000*%
%ADD14C,0.127000*%
%ADD15C,0.200000*%
G04 APERTURE END LIST*
D10*
X159661027Y-130262475D02*
X160232455Y-130262475D01*
X159946741Y-131262475D02*
X159946741Y-130262475D01*
X160946741Y-131214856D02*
X160851503Y-131262475D01*
X160851503Y-131262475D02*
X160661027Y-131262475D01*
X160661027Y-131262475D02*
X160565789Y-131214856D01*
X160565789Y-131214856D02*
X160518170Y-131119617D01*
X160518170Y-131119617D02*
X160518170Y-130738665D01*
X160518170Y-130738665D02*
X160565789Y-130643427D01*
X160565789Y-130643427D02*
X160661027Y-130595808D01*
X160661027Y-130595808D02*
X160851503Y-130595808D01*
X160851503Y-130595808D02*
X160946741Y-130643427D01*
X160946741Y-130643427D02*
X160994360Y-130738665D01*
X160994360Y-130738665D02*
X160994360Y-130833903D01*
X160994360Y-130833903D02*
X160518170Y-130929141D01*
X161422932Y-131262475D02*
X161422932Y-130595808D01*
X161422932Y-130786284D02*
X161470551Y-130691046D01*
X161470551Y-130691046D02*
X161518170Y-130643427D01*
X161518170Y-130643427D02*
X161613408Y-130595808D01*
X161613408Y-130595808D02*
X161708646Y-130595808D01*
X162041980Y-131262475D02*
X162041980Y-130595808D01*
X162041980Y-130691046D02*
X162089599Y-130643427D01*
X162089599Y-130643427D02*
X162184837Y-130595808D01*
X162184837Y-130595808D02*
X162327694Y-130595808D01*
X162327694Y-130595808D02*
X162422932Y-130643427D01*
X162422932Y-130643427D02*
X162470551Y-130738665D01*
X162470551Y-130738665D02*
X162470551Y-131262475D01*
X162470551Y-130738665D02*
X162518170Y-130643427D01*
X162518170Y-130643427D02*
X162613408Y-130595808D01*
X162613408Y-130595808D02*
X162756265Y-130595808D01*
X162756265Y-130595808D02*
X162851504Y-130643427D01*
X162851504Y-130643427D02*
X162899123Y-130738665D01*
X162899123Y-130738665D02*
X162899123Y-131262475D01*
X163518170Y-131262475D02*
X163422932Y-131214856D01*
X163422932Y-131214856D02*
X163375313Y-131167236D01*
X163375313Y-131167236D02*
X163327694Y-131071998D01*
X163327694Y-131071998D02*
X163327694Y-130786284D01*
X163327694Y-130786284D02*
X163375313Y-130691046D01*
X163375313Y-130691046D02*
X163422932Y-130643427D01*
X163422932Y-130643427D02*
X163518170Y-130595808D01*
X163518170Y-130595808D02*
X163661027Y-130595808D01*
X163661027Y-130595808D02*
X163756265Y-130643427D01*
X163756265Y-130643427D02*
X163803884Y-130691046D01*
X163803884Y-130691046D02*
X163851503Y-130786284D01*
X163851503Y-130786284D02*
X163851503Y-131071998D01*
X163851503Y-131071998D02*
X163803884Y-131167236D01*
X163803884Y-131167236D02*
X163756265Y-131214856D01*
X163756265Y-131214856D02*
X163661027Y-131262475D01*
X163661027Y-131262475D02*
X163518170Y-131262475D01*
X164232456Y-131214856D02*
X164327694Y-131262475D01*
X164327694Y-131262475D02*
X164518170Y-131262475D01*
X164518170Y-131262475D02*
X164613408Y-131214856D01*
X164613408Y-131214856D02*
X164661027Y-131119617D01*
X164661027Y-131119617D02*
X164661027Y-131071998D01*
X164661027Y-131071998D02*
X164613408Y-130976760D01*
X164613408Y-130976760D02*
X164518170Y-130929141D01*
X164518170Y-130929141D02*
X164375313Y-130929141D01*
X164375313Y-130929141D02*
X164280075Y-130881522D01*
X164280075Y-130881522D02*
X164232456Y-130786284D01*
X164232456Y-130786284D02*
X164232456Y-130738665D01*
X164232456Y-130738665D02*
X164280075Y-130643427D01*
X164280075Y-130643427D02*
X164375313Y-130595808D01*
X164375313Y-130595808D02*
X164518170Y-130595808D01*
X164518170Y-130595808D02*
X164613408Y-130643427D01*
X164946742Y-130595808D02*
X165327694Y-130595808D01*
X165089599Y-130262475D02*
X165089599Y-131119617D01*
X165089599Y-131119617D02*
X165137218Y-131214856D01*
X165137218Y-131214856D02*
X165232456Y-131262475D01*
X165232456Y-131262475D02*
X165327694Y-131262475D01*
X166089599Y-131262475D02*
X166089599Y-130738665D01*
X166089599Y-130738665D02*
X166041980Y-130643427D01*
X166041980Y-130643427D02*
X165946742Y-130595808D01*
X165946742Y-130595808D02*
X165756266Y-130595808D01*
X165756266Y-130595808D02*
X165661028Y-130643427D01*
X166089599Y-131214856D02*
X165994361Y-131262475D01*
X165994361Y-131262475D02*
X165756266Y-131262475D01*
X165756266Y-131262475D02*
X165661028Y-131214856D01*
X165661028Y-131214856D02*
X165613409Y-131119617D01*
X165613409Y-131119617D02*
X165613409Y-131024379D01*
X165613409Y-131024379D02*
X165661028Y-130929141D01*
X165661028Y-130929141D02*
X165756266Y-130881522D01*
X165756266Y-130881522D02*
X165994361Y-130881522D01*
X165994361Y-130881522D02*
X166089599Y-130833903D01*
X166422933Y-130595808D02*
X166803885Y-130595808D01*
X166565790Y-130262475D02*
X166565790Y-131119617D01*
X166565790Y-131119617D02*
X166613409Y-131214856D01*
X166613409Y-131214856D02*
X166708647Y-131262475D01*
X166708647Y-131262475D02*
X166803885Y-131262475D01*
X161232456Y-132205752D02*
X161470551Y-132872419D01*
X161470551Y-132872419D02*
X161708646Y-132205752D01*
X162280075Y-131872419D02*
X162375313Y-131872419D01*
X162375313Y-131872419D02*
X162470551Y-131920038D01*
X162470551Y-131920038D02*
X162518170Y-131967657D01*
X162518170Y-131967657D02*
X162565789Y-132062895D01*
X162565789Y-132062895D02*
X162613408Y-132253371D01*
X162613408Y-132253371D02*
X162613408Y-132491466D01*
X162613408Y-132491466D02*
X162565789Y-132681942D01*
X162565789Y-132681942D02*
X162518170Y-132777180D01*
X162518170Y-132777180D02*
X162470551Y-132824800D01*
X162470551Y-132824800D02*
X162375313Y-132872419D01*
X162375313Y-132872419D02*
X162280075Y-132872419D01*
X162280075Y-132872419D02*
X162184837Y-132824800D01*
X162184837Y-132824800D02*
X162137218Y-132777180D01*
X162137218Y-132777180D02*
X162089599Y-132681942D01*
X162089599Y-132681942D02*
X162041980Y-132491466D01*
X162041980Y-132491466D02*
X162041980Y-132253371D01*
X162041980Y-132253371D02*
X162089599Y-132062895D01*
X162089599Y-132062895D02*
X162137218Y-131967657D01*
X162137218Y-131967657D02*
X162184837Y-131920038D01*
X162184837Y-131920038D02*
X162280075Y-131872419D01*
X163041980Y-132777180D02*
X163089599Y-132824800D01*
X163089599Y-132824800D02*
X163041980Y-132872419D01*
X163041980Y-132872419D02*
X162994361Y-132824800D01*
X162994361Y-132824800D02*
X163041980Y-132777180D01*
X163041980Y-132777180D02*
X163041980Y-132872419D01*
X164041979Y-132872419D02*
X163470551Y-132872419D01*
X163756265Y-132872419D02*
X163756265Y-131872419D01*
X163756265Y-131872419D02*
X163661027Y-132015276D01*
X163661027Y-132015276D02*
X163565789Y-132110514D01*
X163565789Y-132110514D02*
X163470551Y-132158133D01*
D11*
X156404761Y-116050057D02*
X156309523Y-116002438D01*
X156309523Y-116002438D02*
X156214285Y-115907200D01*
X156214285Y-115907200D02*
X156071428Y-115764342D01*
X156071428Y-115764342D02*
X155976190Y-115716723D01*
X155976190Y-115716723D02*
X155880952Y-115716723D01*
X155928571Y-115954819D02*
X155833333Y-115907200D01*
X155833333Y-115907200D02*
X155738095Y-115811961D01*
X155738095Y-115811961D02*
X155690476Y-115621485D01*
X155690476Y-115621485D02*
X155690476Y-115288152D01*
X155690476Y-115288152D02*
X155738095Y-115097676D01*
X155738095Y-115097676D02*
X155833333Y-115002438D01*
X155833333Y-115002438D02*
X155928571Y-114954819D01*
X155928571Y-114954819D02*
X156119047Y-114954819D01*
X156119047Y-114954819D02*
X156214285Y-115002438D01*
X156214285Y-115002438D02*
X156309523Y-115097676D01*
X156309523Y-115097676D02*
X156357142Y-115288152D01*
X156357142Y-115288152D02*
X156357142Y-115621485D01*
X156357142Y-115621485D02*
X156309523Y-115811961D01*
X156309523Y-115811961D02*
X156214285Y-115907200D01*
X156214285Y-115907200D02*
X156119047Y-115954819D01*
X156119047Y-115954819D02*
X155928571Y-115954819D01*
X157309523Y-115954819D02*
X156738095Y-115954819D01*
X157023809Y-115954819D02*
X157023809Y-114954819D01*
X157023809Y-114954819D02*
X156928571Y-115097676D01*
X156928571Y-115097676D02*
X156833333Y-115192914D01*
X156833333Y-115192914D02*
X156738095Y-115240533D01*
X148833333Y-117954819D02*
X148500000Y-117478628D01*
X148261905Y-117954819D02*
X148261905Y-116954819D01*
X148261905Y-116954819D02*
X148642857Y-116954819D01*
X148642857Y-116954819D02*
X148738095Y-117002438D01*
X148738095Y-117002438D02*
X148785714Y-117050057D01*
X148785714Y-117050057D02*
X148833333Y-117145295D01*
X148833333Y-117145295D02*
X148833333Y-117288152D01*
X148833333Y-117288152D02*
X148785714Y-117383390D01*
X148785714Y-117383390D02*
X148738095Y-117431009D01*
X148738095Y-117431009D02*
X148642857Y-117478628D01*
X148642857Y-117478628D02*
X148261905Y-117478628D01*
X149738095Y-116954819D02*
X149261905Y-116954819D01*
X149261905Y-116954819D02*
X149214286Y-117431009D01*
X149214286Y-117431009D02*
X149261905Y-117383390D01*
X149261905Y-117383390D02*
X149357143Y-117335771D01*
X149357143Y-117335771D02*
X149595238Y-117335771D01*
X149595238Y-117335771D02*
X149690476Y-117383390D01*
X149690476Y-117383390D02*
X149738095Y-117431009D01*
X149738095Y-117431009D02*
X149785714Y-117526247D01*
X149785714Y-117526247D02*
X149785714Y-117764342D01*
X149785714Y-117764342D02*
X149738095Y-117859580D01*
X149738095Y-117859580D02*
X149690476Y-117907200D01*
X149690476Y-117907200D02*
X149595238Y-117954819D01*
X149595238Y-117954819D02*
X149357143Y-117954819D01*
X149357143Y-117954819D02*
X149261905Y-117907200D01*
X149261905Y-117907200D02*
X149214286Y-117859580D01*
X150954819Y-123166666D02*
X150478628Y-123499999D01*
X150954819Y-123738094D02*
X149954819Y-123738094D01*
X149954819Y-123738094D02*
X149954819Y-123357142D01*
X149954819Y-123357142D02*
X150002438Y-123261904D01*
X150002438Y-123261904D02*
X150050057Y-123214285D01*
X150050057Y-123214285D02*
X150145295Y-123166666D01*
X150145295Y-123166666D02*
X150288152Y-123166666D01*
X150288152Y-123166666D02*
X150383390Y-123214285D01*
X150383390Y-123214285D02*
X150431009Y-123261904D01*
X150431009Y-123261904D02*
X150478628Y-123357142D01*
X150478628Y-123357142D02*
X150478628Y-123738094D01*
X149954819Y-122309523D02*
X149954819Y-122499999D01*
X149954819Y-122499999D02*
X150002438Y-122595237D01*
X150002438Y-122595237D02*
X150050057Y-122642856D01*
X150050057Y-122642856D02*
X150192914Y-122738094D01*
X150192914Y-122738094D02*
X150383390Y-122785713D01*
X150383390Y-122785713D02*
X150764342Y-122785713D01*
X150764342Y-122785713D02*
X150859580Y-122738094D01*
X150859580Y-122738094D02*
X150907200Y-122690475D01*
X150907200Y-122690475D02*
X150954819Y-122595237D01*
X150954819Y-122595237D02*
X150954819Y-122404761D01*
X150954819Y-122404761D02*
X150907200Y-122309523D01*
X150907200Y-122309523D02*
X150859580Y-122261904D01*
X150859580Y-122261904D02*
X150764342Y-122214285D01*
X150764342Y-122214285D02*
X150526247Y-122214285D01*
X150526247Y-122214285D02*
X150431009Y-122261904D01*
X150431009Y-122261904D02*
X150383390Y-122309523D01*
X150383390Y-122309523D02*
X150335771Y-122404761D01*
X150335771Y-122404761D02*
X150335771Y-122595237D01*
X150335771Y-122595237D02*
X150383390Y-122690475D01*
X150383390Y-122690475D02*
X150431009Y-122738094D01*
X150431009Y-122738094D02*
X150526247Y-122785713D01*
X165761905Y-115454819D02*
X165761905Y-114454819D01*
X165761905Y-114454819D02*
X166000000Y-114454819D01*
X166000000Y-114454819D02*
X166142857Y-114502438D01*
X166142857Y-114502438D02*
X166238095Y-114597676D01*
X166238095Y-114597676D02*
X166285714Y-114692914D01*
X166285714Y-114692914D02*
X166333333Y-114883390D01*
X166333333Y-114883390D02*
X166333333Y-115026247D01*
X166333333Y-115026247D02*
X166285714Y-115216723D01*
X166285714Y-115216723D02*
X166238095Y-115311961D01*
X166238095Y-115311961D02*
X166142857Y-115407200D01*
X166142857Y-115407200D02*
X166000000Y-115454819D01*
X166000000Y-115454819D02*
X165761905Y-115454819D01*
X166714286Y-114550057D02*
X166761905Y-114502438D01*
X166761905Y-114502438D02*
X166857143Y-114454819D01*
X166857143Y-114454819D02*
X167095238Y-114454819D01*
X167095238Y-114454819D02*
X167190476Y-114502438D01*
X167190476Y-114502438D02*
X167238095Y-114550057D01*
X167238095Y-114550057D02*
X167285714Y-114645295D01*
X167285714Y-114645295D02*
X167285714Y-114740533D01*
X167285714Y-114740533D02*
X167238095Y-114883390D01*
X167238095Y-114883390D02*
X166666667Y-115454819D01*
X166666667Y-115454819D02*
X167285714Y-115454819D01*
X145305820Y-119954819D02*
X145877248Y-119954819D01*
X145591534Y-120954819D02*
X145591534Y-119954819D01*
X146067725Y-119954819D02*
X146401058Y-120954819D01*
X146401058Y-120954819D02*
X146734391Y-119954819D01*
X147591534Y-120954819D02*
X147020106Y-120954819D01*
X147305820Y-120954819D02*
X147305820Y-119954819D01*
X147305820Y-119954819D02*
X147210582Y-120097676D01*
X147210582Y-120097676D02*
X147115344Y-120192914D01*
X147115344Y-120192914D02*
X147020106Y-120240533D01*
X139519496Y-120514835D02*
X139186163Y-120038644D01*
X138948068Y-120514835D02*
X138948068Y-119514835D01*
X138948068Y-119514835D02*
X139329020Y-119514835D01*
X139329020Y-119514835D02*
X139424258Y-119562454D01*
X139424258Y-119562454D02*
X139471877Y-119610073D01*
X139471877Y-119610073D02*
X139519496Y-119705311D01*
X139519496Y-119705311D02*
X139519496Y-119848168D01*
X139519496Y-119848168D02*
X139471877Y-119943406D01*
X139471877Y-119943406D02*
X139424258Y-119991025D01*
X139424258Y-119991025D02*
X139329020Y-120038644D01*
X139329020Y-120038644D02*
X138948068Y-120038644D01*
X139900449Y-119610073D02*
X139948068Y-119562454D01*
X139948068Y-119562454D02*
X140043306Y-119514835D01*
X140043306Y-119514835D02*
X140281401Y-119514835D01*
X140281401Y-119514835D02*
X140376639Y-119562454D01*
X140376639Y-119562454D02*
X140424258Y-119610073D01*
X140424258Y-119610073D02*
X140471877Y-119705311D01*
X140471877Y-119705311D02*
X140471877Y-119800549D01*
X140471877Y-119800549D02*
X140424258Y-119943406D01*
X140424258Y-119943406D02*
X139852830Y-120514835D01*
X139852830Y-120514835D02*
X140471877Y-120514835D01*
X157761905Y-113454819D02*
X157761905Y-112454819D01*
X157761905Y-112454819D02*
X158000000Y-112454819D01*
X158000000Y-112454819D02*
X158142857Y-112502438D01*
X158142857Y-112502438D02*
X158238095Y-112597676D01*
X158238095Y-112597676D02*
X158285714Y-112692914D01*
X158285714Y-112692914D02*
X158333333Y-112883390D01*
X158333333Y-112883390D02*
X158333333Y-113026247D01*
X158333333Y-113026247D02*
X158285714Y-113216723D01*
X158285714Y-113216723D02*
X158238095Y-113311961D01*
X158238095Y-113311961D02*
X158142857Y-113407200D01*
X158142857Y-113407200D02*
X158000000Y-113454819D01*
X158000000Y-113454819D02*
X157761905Y-113454819D01*
X159285714Y-113454819D02*
X158714286Y-113454819D01*
X159000000Y-113454819D02*
X159000000Y-112454819D01*
X159000000Y-112454819D02*
X158904762Y-112597676D01*
X158904762Y-112597676D02*
X158809524Y-112692914D01*
X158809524Y-112692914D02*
X158714286Y-112740533D01*
X148325111Y-120187660D02*
X147991778Y-120187660D01*
X147991778Y-120711470D02*
X147991778Y-119711470D01*
X147991778Y-119711470D02*
X148467968Y-119711470D01*
X149372730Y-120711470D02*
X148801302Y-120711470D01*
X149087016Y-120711470D02*
X149087016Y-119711470D01*
X149087016Y-119711470D02*
X148991778Y-119854327D01*
X148991778Y-119854327D02*
X148896540Y-119949565D01*
X148896540Y-119949565D02*
X148801302Y-119997184D01*
X165833333Y-106859580D02*
X165785714Y-106907200D01*
X165785714Y-106907200D02*
X165642857Y-106954819D01*
X165642857Y-106954819D02*
X165547619Y-106954819D01*
X165547619Y-106954819D02*
X165404762Y-106907200D01*
X165404762Y-106907200D02*
X165309524Y-106811961D01*
X165309524Y-106811961D02*
X165261905Y-106716723D01*
X165261905Y-106716723D02*
X165214286Y-106526247D01*
X165214286Y-106526247D02*
X165214286Y-106383390D01*
X165214286Y-106383390D02*
X165261905Y-106192914D01*
X165261905Y-106192914D02*
X165309524Y-106097676D01*
X165309524Y-106097676D02*
X165404762Y-106002438D01*
X165404762Y-106002438D02*
X165547619Y-105954819D01*
X165547619Y-105954819D02*
X165642857Y-105954819D01*
X165642857Y-105954819D02*
X165785714Y-106002438D01*
X165785714Y-106002438D02*
X165833333Y-106050057D01*
X166309524Y-106954819D02*
X166500000Y-106954819D01*
X166500000Y-106954819D02*
X166595238Y-106907200D01*
X166595238Y-106907200D02*
X166642857Y-106859580D01*
X166642857Y-106859580D02*
X166738095Y-106716723D01*
X166738095Y-106716723D02*
X166785714Y-106526247D01*
X166785714Y-106526247D02*
X166785714Y-106145295D01*
X166785714Y-106145295D02*
X166738095Y-106050057D01*
X166738095Y-106050057D02*
X166690476Y-106002438D01*
X166690476Y-106002438D02*
X166595238Y-105954819D01*
X166595238Y-105954819D02*
X166404762Y-105954819D01*
X166404762Y-105954819D02*
X166309524Y-106002438D01*
X166309524Y-106002438D02*
X166261905Y-106050057D01*
X166261905Y-106050057D02*
X166214286Y-106145295D01*
X166214286Y-106145295D02*
X166214286Y-106383390D01*
X166214286Y-106383390D02*
X166261905Y-106478628D01*
X166261905Y-106478628D02*
X166309524Y-106526247D01*
X166309524Y-106526247D02*
X166404762Y-106573866D01*
X166404762Y-106573866D02*
X166595238Y-106573866D01*
X166595238Y-106573866D02*
X166690476Y-106526247D01*
X166690476Y-106526247D02*
X166738095Y-106478628D01*
X166738095Y-106478628D02*
X166785714Y-106383390D01*
X156859580Y-125166666D02*
X156907200Y-125214285D01*
X156907200Y-125214285D02*
X156954819Y-125357142D01*
X156954819Y-125357142D02*
X156954819Y-125452380D01*
X156954819Y-125452380D02*
X156907200Y-125595237D01*
X156907200Y-125595237D02*
X156811961Y-125690475D01*
X156811961Y-125690475D02*
X156716723Y-125738094D01*
X156716723Y-125738094D02*
X156526247Y-125785713D01*
X156526247Y-125785713D02*
X156383390Y-125785713D01*
X156383390Y-125785713D02*
X156192914Y-125738094D01*
X156192914Y-125738094D02*
X156097676Y-125690475D01*
X156097676Y-125690475D02*
X156002438Y-125595237D01*
X156002438Y-125595237D02*
X155954819Y-125452380D01*
X155954819Y-125452380D02*
X155954819Y-125357142D01*
X155954819Y-125357142D02*
X156002438Y-125214285D01*
X156002438Y-125214285D02*
X156050057Y-125166666D01*
X155954819Y-124261904D02*
X155954819Y-124738094D01*
X155954819Y-124738094D02*
X156431009Y-124785713D01*
X156431009Y-124785713D02*
X156383390Y-124738094D01*
X156383390Y-124738094D02*
X156335771Y-124642856D01*
X156335771Y-124642856D02*
X156335771Y-124404761D01*
X156335771Y-124404761D02*
X156383390Y-124309523D01*
X156383390Y-124309523D02*
X156431009Y-124261904D01*
X156431009Y-124261904D02*
X156526247Y-124214285D01*
X156526247Y-124214285D02*
X156764342Y-124214285D01*
X156764342Y-124214285D02*
X156859580Y-124261904D01*
X156859580Y-124261904D02*
X156907200Y-124309523D01*
X156907200Y-124309523D02*
X156954819Y-124404761D01*
X156954819Y-124404761D02*
X156954819Y-124642856D01*
X156954819Y-124642856D02*
X156907200Y-124738094D01*
X156907200Y-124738094D02*
X156859580Y-124785713D01*
X162833333Y-125954819D02*
X162500000Y-125478628D01*
X162261905Y-125954819D02*
X162261905Y-124954819D01*
X162261905Y-124954819D02*
X162642857Y-124954819D01*
X162642857Y-124954819D02*
X162738095Y-125002438D01*
X162738095Y-125002438D02*
X162785714Y-125050057D01*
X162785714Y-125050057D02*
X162833333Y-125145295D01*
X162833333Y-125145295D02*
X162833333Y-125288152D01*
X162833333Y-125288152D02*
X162785714Y-125383390D01*
X162785714Y-125383390D02*
X162738095Y-125431009D01*
X162738095Y-125431009D02*
X162642857Y-125478628D01*
X162642857Y-125478628D02*
X162261905Y-125478628D01*
X163690476Y-125288152D02*
X163690476Y-125954819D01*
X163452381Y-124907200D02*
X163214286Y-125621485D01*
X163214286Y-125621485D02*
X163833333Y-125621485D01*
X163133831Y-112678659D02*
X162657640Y-113011992D01*
X163133831Y-113250087D02*
X162133831Y-113250087D01*
X162133831Y-113250087D02*
X162133831Y-112869135D01*
X162133831Y-112869135D02*
X162181450Y-112773897D01*
X162181450Y-112773897D02*
X162229069Y-112726278D01*
X162229069Y-112726278D02*
X162324307Y-112678659D01*
X162324307Y-112678659D02*
X162467164Y-112678659D01*
X162467164Y-112678659D02*
X162562402Y-112726278D01*
X162562402Y-112726278D02*
X162610021Y-112773897D01*
X162610021Y-112773897D02*
X162657640Y-112869135D01*
X162657640Y-112869135D02*
X162657640Y-113250087D01*
X163133831Y-111726278D02*
X163133831Y-112297706D01*
X163133831Y-112011992D02*
X162133831Y-112011992D01*
X162133831Y-112011992D02*
X162276688Y-112107230D01*
X162276688Y-112107230D02*
X162371926Y-112202468D01*
X162371926Y-112202468D02*
X162419545Y-112297706D01*
X162133831Y-111392944D02*
X162133831Y-110773897D01*
X162133831Y-110773897D02*
X162514783Y-111107230D01*
X162514783Y-111107230D02*
X162514783Y-110964373D01*
X162514783Y-110964373D02*
X162562402Y-110869135D01*
X162562402Y-110869135D02*
X162610021Y-110821516D01*
X162610021Y-110821516D02*
X162705259Y-110773897D01*
X162705259Y-110773897D02*
X162943354Y-110773897D01*
X162943354Y-110773897D02*
X163038592Y-110821516D01*
X163038592Y-110821516D02*
X163086212Y-110869135D01*
X163086212Y-110869135D02*
X163133831Y-110964373D01*
X163133831Y-110964373D02*
X163133831Y-111250087D01*
X163133831Y-111250087D02*
X163086212Y-111345325D01*
X163086212Y-111345325D02*
X163038592Y-111392944D01*
D12*
X158080442Y-111593655D02*
X157747109Y-111117464D01*
X157509014Y-111593655D02*
X157509014Y-110593655D01*
X157509014Y-110593655D02*
X157889966Y-110593655D01*
X157889966Y-110593655D02*
X157985204Y-110641274D01*
X157985204Y-110641274D02*
X158032823Y-110688893D01*
X158032823Y-110688893D02*
X158080442Y-110784131D01*
X158080442Y-110784131D02*
X158080442Y-110926988D01*
X158080442Y-110926988D02*
X158032823Y-111022226D01*
X158032823Y-111022226D02*
X157985204Y-111069845D01*
X157985204Y-111069845D02*
X157889966Y-111117464D01*
X157889966Y-111117464D02*
X157509014Y-111117464D01*
X159032823Y-111593655D02*
X158461395Y-111593655D01*
X158747109Y-111593655D02*
X158747109Y-110593655D01*
X158747109Y-110593655D02*
X158651871Y-110736512D01*
X158651871Y-110736512D02*
X158556633Y-110831750D01*
X158556633Y-110831750D02*
X158461395Y-110879369D01*
X159985204Y-111593655D02*
X159413776Y-111593655D01*
X159699490Y-111593655D02*
X159699490Y-110593655D01*
X159699490Y-110593655D02*
X159604252Y-110736512D01*
X159604252Y-110736512D02*
X159509014Y-110831750D01*
X159509014Y-110831750D02*
X159413776Y-110879369D01*
D11*
X162333333Y-115179580D02*
X162285714Y-115227200D01*
X162285714Y-115227200D02*
X162142857Y-115274819D01*
X162142857Y-115274819D02*
X162047619Y-115274819D01*
X162047619Y-115274819D02*
X161904762Y-115227200D01*
X161904762Y-115227200D02*
X161809524Y-115131961D01*
X161809524Y-115131961D02*
X161761905Y-115036723D01*
X161761905Y-115036723D02*
X161714286Y-114846247D01*
X161714286Y-114846247D02*
X161714286Y-114703390D01*
X161714286Y-114703390D02*
X161761905Y-114512914D01*
X161761905Y-114512914D02*
X161809524Y-114417676D01*
X161809524Y-114417676D02*
X161904762Y-114322438D01*
X161904762Y-114322438D02*
X162047619Y-114274819D01*
X162047619Y-114274819D02*
X162142857Y-114274819D01*
X162142857Y-114274819D02*
X162285714Y-114322438D01*
X162285714Y-114322438D02*
X162333333Y-114370057D01*
X162714286Y-114370057D02*
X162761905Y-114322438D01*
X162761905Y-114322438D02*
X162857143Y-114274819D01*
X162857143Y-114274819D02*
X163095238Y-114274819D01*
X163095238Y-114274819D02*
X163190476Y-114322438D01*
X163190476Y-114322438D02*
X163238095Y-114370057D01*
X163238095Y-114370057D02*
X163285714Y-114465295D01*
X163285714Y-114465295D02*
X163285714Y-114560533D01*
X163285714Y-114560533D02*
X163238095Y-114703390D01*
X163238095Y-114703390D02*
X162666667Y-115274819D01*
X162666667Y-115274819D02*
X163285714Y-115274819D01*
X143238095Y-131454819D02*
X143238095Y-132264342D01*
X143238095Y-132264342D02*
X143285714Y-132359580D01*
X143285714Y-132359580D02*
X143333333Y-132407200D01*
X143333333Y-132407200D02*
X143428571Y-132454819D01*
X143428571Y-132454819D02*
X143619047Y-132454819D01*
X143619047Y-132454819D02*
X143714285Y-132407200D01*
X143714285Y-132407200D02*
X143761904Y-132359580D01*
X143761904Y-132359580D02*
X143809523Y-132264342D01*
X143809523Y-132264342D02*
X143809523Y-131454819D01*
X144809523Y-132454819D02*
X144238095Y-132454819D01*
X144523809Y-132454819D02*
X144523809Y-131454819D01*
X144523809Y-131454819D02*
X144428571Y-131597676D01*
X144428571Y-131597676D02*
X144333333Y-131692914D01*
X144333333Y-131692914D02*
X144238095Y-131740533D01*
X153166667Y-100907200D02*
X153309524Y-100954819D01*
X153309524Y-100954819D02*
X153547619Y-100954819D01*
X153547619Y-100954819D02*
X153642857Y-100907200D01*
X153642857Y-100907200D02*
X153690476Y-100859580D01*
X153690476Y-100859580D02*
X153738095Y-100764342D01*
X153738095Y-100764342D02*
X153738095Y-100669104D01*
X153738095Y-100669104D02*
X153690476Y-100573866D01*
X153690476Y-100573866D02*
X153642857Y-100526247D01*
X153642857Y-100526247D02*
X153547619Y-100478628D01*
X153547619Y-100478628D02*
X153357143Y-100431009D01*
X153357143Y-100431009D02*
X153261905Y-100383390D01*
X153261905Y-100383390D02*
X153214286Y-100335771D01*
X153214286Y-100335771D02*
X153166667Y-100240533D01*
X153166667Y-100240533D02*
X153166667Y-100145295D01*
X153166667Y-100145295D02*
X153214286Y-100050057D01*
X153214286Y-100050057D02*
X153261905Y-100002438D01*
X153261905Y-100002438D02*
X153357143Y-99954819D01*
X153357143Y-99954819D02*
X153595238Y-99954819D01*
X153595238Y-99954819D02*
X153738095Y-100002438D01*
X154071429Y-99954819D02*
X154309524Y-100954819D01*
X154309524Y-100954819D02*
X154500000Y-100240533D01*
X154500000Y-100240533D02*
X154690476Y-100954819D01*
X154690476Y-100954819D02*
X154928572Y-99954819D01*
X155833333Y-100954819D02*
X155261905Y-100954819D01*
X155547619Y-100954819D02*
X155547619Y-99954819D01*
X155547619Y-99954819D02*
X155452381Y-100097676D01*
X155452381Y-100097676D02*
X155357143Y-100192914D01*
X155357143Y-100192914D02*
X155261905Y-100240533D01*
X158859580Y-125166666D02*
X158907200Y-125214285D01*
X158907200Y-125214285D02*
X158954819Y-125357142D01*
X158954819Y-125357142D02*
X158954819Y-125452380D01*
X158954819Y-125452380D02*
X158907200Y-125595237D01*
X158907200Y-125595237D02*
X158811961Y-125690475D01*
X158811961Y-125690475D02*
X158716723Y-125738094D01*
X158716723Y-125738094D02*
X158526247Y-125785713D01*
X158526247Y-125785713D02*
X158383390Y-125785713D01*
X158383390Y-125785713D02*
X158192914Y-125738094D01*
X158192914Y-125738094D02*
X158097676Y-125690475D01*
X158097676Y-125690475D02*
X158002438Y-125595237D01*
X158002438Y-125595237D02*
X157954819Y-125452380D01*
X157954819Y-125452380D02*
X157954819Y-125357142D01*
X157954819Y-125357142D02*
X158002438Y-125214285D01*
X158002438Y-125214285D02*
X158050057Y-125166666D01*
X158288152Y-124309523D02*
X158954819Y-124309523D01*
X157907200Y-124547618D02*
X158621485Y-124785713D01*
X158621485Y-124785713D02*
X158621485Y-124166666D01*
X162674560Y-118169074D02*
X162674560Y-118978597D01*
X162674560Y-118978597D02*
X162722179Y-119073835D01*
X162722179Y-119073835D02*
X162769798Y-119121455D01*
X162769798Y-119121455D02*
X162865036Y-119169074D01*
X162865036Y-119169074D02*
X163055512Y-119169074D01*
X163055512Y-119169074D02*
X163150750Y-119121455D01*
X163150750Y-119121455D02*
X163198369Y-119073835D01*
X163198369Y-119073835D02*
X163245988Y-118978597D01*
X163245988Y-118978597D02*
X163245988Y-118169074D01*
X163626941Y-118169074D02*
X164245988Y-118169074D01*
X164245988Y-118169074D02*
X163912655Y-118550026D01*
X163912655Y-118550026D02*
X164055512Y-118550026D01*
X164055512Y-118550026D02*
X164150750Y-118597645D01*
X164150750Y-118597645D02*
X164198369Y-118645264D01*
X164198369Y-118645264D02*
X164245988Y-118740502D01*
X164245988Y-118740502D02*
X164245988Y-118978597D01*
X164245988Y-118978597D02*
X164198369Y-119073835D01*
X164198369Y-119073835D02*
X164150750Y-119121455D01*
X164150750Y-119121455D02*
X164055512Y-119169074D01*
X164055512Y-119169074D02*
X163769798Y-119169074D01*
X163769798Y-119169074D02*
X163674560Y-119121455D01*
X163674560Y-119121455D02*
X163626941Y-119073835D01*
X150738095Y-113454819D02*
X150738095Y-114264342D01*
X150738095Y-114264342D02*
X150785714Y-114359580D01*
X150785714Y-114359580D02*
X150833333Y-114407200D01*
X150833333Y-114407200D02*
X150928571Y-114454819D01*
X150928571Y-114454819D02*
X151119047Y-114454819D01*
X151119047Y-114454819D02*
X151214285Y-114407200D01*
X151214285Y-114407200D02*
X151261904Y-114359580D01*
X151261904Y-114359580D02*
X151309523Y-114264342D01*
X151309523Y-114264342D02*
X151309523Y-113454819D01*
X151738095Y-113550057D02*
X151785714Y-113502438D01*
X151785714Y-113502438D02*
X151880952Y-113454819D01*
X151880952Y-113454819D02*
X152119047Y-113454819D01*
X152119047Y-113454819D02*
X152214285Y-113502438D01*
X152214285Y-113502438D02*
X152261904Y-113550057D01*
X152261904Y-113550057D02*
X152309523Y-113645295D01*
X152309523Y-113645295D02*
X152309523Y-113740533D01*
X152309523Y-113740533D02*
X152261904Y-113883390D01*
X152261904Y-113883390D02*
X151690476Y-114454819D01*
X151690476Y-114454819D02*
X152309523Y-114454819D01*
X137914819Y-109833333D02*
X138629104Y-109833333D01*
X138629104Y-109833333D02*
X138771961Y-109880952D01*
X138771961Y-109880952D02*
X138867200Y-109976190D01*
X138867200Y-109976190D02*
X138914819Y-110119047D01*
X138914819Y-110119047D02*
X138914819Y-110214285D01*
X137914819Y-109452380D02*
X137914819Y-108833333D01*
X137914819Y-108833333D02*
X138295771Y-109166666D01*
X138295771Y-109166666D02*
X138295771Y-109023809D01*
X138295771Y-109023809D02*
X138343390Y-108928571D01*
X138343390Y-108928571D02*
X138391009Y-108880952D01*
X138391009Y-108880952D02*
X138486247Y-108833333D01*
X138486247Y-108833333D02*
X138724342Y-108833333D01*
X138724342Y-108833333D02*
X138819580Y-108880952D01*
X138819580Y-108880952D02*
X138867200Y-108928571D01*
X138867200Y-108928571D02*
X138914819Y-109023809D01*
X138914819Y-109023809D02*
X138914819Y-109309523D01*
X138914819Y-109309523D02*
X138867200Y-109404761D01*
X138867200Y-109404761D02*
X138819580Y-109452380D01*
X160533333Y-100954819D02*
X160057143Y-100954819D01*
X160057143Y-100954819D02*
X160057143Y-99954819D01*
X160866667Y-100954819D02*
X160866667Y-99954819D01*
X160866667Y-99954819D02*
X161104762Y-99954819D01*
X161104762Y-99954819D02*
X161247619Y-100002438D01*
X161247619Y-100002438D02*
X161342857Y-100097676D01*
X161342857Y-100097676D02*
X161390476Y-100192914D01*
X161390476Y-100192914D02*
X161438095Y-100383390D01*
X161438095Y-100383390D02*
X161438095Y-100526247D01*
X161438095Y-100526247D02*
X161390476Y-100716723D01*
X161390476Y-100716723D02*
X161342857Y-100811961D01*
X161342857Y-100811961D02*
X161247619Y-100907200D01*
X161247619Y-100907200D02*
X161104762Y-100954819D01*
X161104762Y-100954819D02*
X160866667Y-100954819D01*
X162438095Y-100954819D02*
X162104762Y-100478628D01*
X161866667Y-100954819D02*
X161866667Y-99954819D01*
X161866667Y-99954819D02*
X162247619Y-99954819D01*
X162247619Y-99954819D02*
X162342857Y-100002438D01*
X162342857Y-100002438D02*
X162390476Y-100050057D01*
X162390476Y-100050057D02*
X162438095Y-100145295D01*
X162438095Y-100145295D02*
X162438095Y-100288152D01*
X162438095Y-100288152D02*
X162390476Y-100383390D01*
X162390476Y-100383390D02*
X162342857Y-100431009D01*
X162342857Y-100431009D02*
X162247619Y-100478628D01*
X162247619Y-100478628D02*
X161866667Y-100478628D01*
X163390476Y-100954819D02*
X162819048Y-100954819D01*
X163104762Y-100954819D02*
X163104762Y-99954819D01*
X163104762Y-99954819D02*
X163009524Y-100097676D01*
X163009524Y-100097676D02*
X162914286Y-100192914D01*
X162914286Y-100192914D02*
X162819048Y-100240533D01*
X160333333Y-125954819D02*
X160000000Y-125478628D01*
X159761905Y-125954819D02*
X159761905Y-124954819D01*
X159761905Y-124954819D02*
X160142857Y-124954819D01*
X160142857Y-124954819D02*
X160238095Y-125002438D01*
X160238095Y-125002438D02*
X160285714Y-125050057D01*
X160285714Y-125050057D02*
X160333333Y-125145295D01*
X160333333Y-125145295D02*
X160333333Y-125288152D01*
X160333333Y-125288152D02*
X160285714Y-125383390D01*
X160285714Y-125383390D02*
X160238095Y-125431009D01*
X160238095Y-125431009D02*
X160142857Y-125478628D01*
X160142857Y-125478628D02*
X159761905Y-125478628D01*
X160666667Y-124954819D02*
X161285714Y-124954819D01*
X161285714Y-124954819D02*
X160952381Y-125335771D01*
X160952381Y-125335771D02*
X161095238Y-125335771D01*
X161095238Y-125335771D02*
X161190476Y-125383390D01*
X161190476Y-125383390D02*
X161238095Y-125431009D01*
X161238095Y-125431009D02*
X161285714Y-125526247D01*
X161285714Y-125526247D02*
X161285714Y-125764342D01*
X161285714Y-125764342D02*
X161238095Y-125859580D01*
X161238095Y-125859580D02*
X161190476Y-125907200D01*
X161190476Y-125907200D02*
X161095238Y-125954819D01*
X161095238Y-125954819D02*
X160809524Y-125954819D01*
X160809524Y-125954819D02*
X160714286Y-125907200D01*
X160714286Y-125907200D02*
X160666667Y-125859580D01*
X144284441Y-112707896D02*
X143951108Y-112231705D01*
X143713013Y-112707896D02*
X143713013Y-111707896D01*
X143713013Y-111707896D02*
X144093965Y-111707896D01*
X144093965Y-111707896D02*
X144189203Y-111755515D01*
X144189203Y-111755515D02*
X144236822Y-111803134D01*
X144236822Y-111803134D02*
X144284441Y-111898372D01*
X144284441Y-111898372D02*
X144284441Y-112041229D01*
X144284441Y-112041229D02*
X144236822Y-112136467D01*
X144236822Y-112136467D02*
X144189203Y-112184086D01*
X144189203Y-112184086D02*
X144093965Y-112231705D01*
X144093965Y-112231705D02*
X143713013Y-112231705D01*
X145236822Y-112707896D02*
X144665394Y-112707896D01*
X144951108Y-112707896D02*
X144951108Y-111707896D01*
X144951108Y-111707896D02*
X144855870Y-111850753D01*
X144855870Y-111850753D02*
X144760632Y-111945991D01*
X144760632Y-111945991D02*
X144665394Y-111993610D01*
X146093965Y-111707896D02*
X145903489Y-111707896D01*
X145903489Y-111707896D02*
X145808251Y-111755515D01*
X145808251Y-111755515D02*
X145760632Y-111803134D01*
X145760632Y-111803134D02*
X145665394Y-111945991D01*
X145665394Y-111945991D02*
X145617775Y-112136467D01*
X145617775Y-112136467D02*
X145617775Y-112517419D01*
X145617775Y-112517419D02*
X145665394Y-112612657D01*
X145665394Y-112612657D02*
X145713013Y-112660277D01*
X145713013Y-112660277D02*
X145808251Y-112707896D01*
X145808251Y-112707896D02*
X145998727Y-112707896D01*
X145998727Y-112707896D02*
X146093965Y-112660277D01*
X146093965Y-112660277D02*
X146141584Y-112612657D01*
X146141584Y-112612657D02*
X146189203Y-112517419D01*
X146189203Y-112517419D02*
X146189203Y-112279324D01*
X146189203Y-112279324D02*
X146141584Y-112184086D01*
X146141584Y-112184086D02*
X146093965Y-112136467D01*
X146093965Y-112136467D02*
X145998727Y-112088848D01*
X145998727Y-112088848D02*
X145808251Y-112088848D01*
X145808251Y-112088848D02*
X145713013Y-112136467D01*
X145713013Y-112136467D02*
X145665394Y-112184086D01*
X145665394Y-112184086D02*
X145617775Y-112279324D01*
X138954819Y-77095237D02*
X137954819Y-77095237D01*
X137954819Y-77095237D02*
X137954819Y-76857142D01*
X137954819Y-76857142D02*
X138002438Y-76714285D01*
X138002438Y-76714285D02*
X138097676Y-76619047D01*
X138097676Y-76619047D02*
X138192914Y-76571428D01*
X138192914Y-76571428D02*
X138383390Y-76523809D01*
X138383390Y-76523809D02*
X138526247Y-76523809D01*
X138526247Y-76523809D02*
X138716723Y-76571428D01*
X138716723Y-76571428D02*
X138811961Y-76619047D01*
X138811961Y-76619047D02*
X138907200Y-76714285D01*
X138907200Y-76714285D02*
X138954819Y-76857142D01*
X138954819Y-76857142D02*
X138954819Y-77095237D01*
X138954819Y-76095237D02*
X137954819Y-76095237D01*
X138907200Y-75666666D02*
X138954819Y-75523809D01*
X138954819Y-75523809D02*
X138954819Y-75285714D01*
X138954819Y-75285714D02*
X138907200Y-75190476D01*
X138907200Y-75190476D02*
X138859580Y-75142857D01*
X138859580Y-75142857D02*
X138764342Y-75095238D01*
X138764342Y-75095238D02*
X138669104Y-75095238D01*
X138669104Y-75095238D02*
X138573866Y-75142857D01*
X138573866Y-75142857D02*
X138526247Y-75190476D01*
X138526247Y-75190476D02*
X138478628Y-75285714D01*
X138478628Y-75285714D02*
X138431009Y-75476190D01*
X138431009Y-75476190D02*
X138383390Y-75571428D01*
X138383390Y-75571428D02*
X138335771Y-75619047D01*
X138335771Y-75619047D02*
X138240533Y-75666666D01*
X138240533Y-75666666D02*
X138145295Y-75666666D01*
X138145295Y-75666666D02*
X138050057Y-75619047D01*
X138050057Y-75619047D02*
X138002438Y-75571428D01*
X138002438Y-75571428D02*
X137954819Y-75476190D01*
X137954819Y-75476190D02*
X137954819Y-75238095D01*
X137954819Y-75238095D02*
X138002438Y-75095238D01*
X138954819Y-74666666D02*
X137954819Y-74666666D01*
X137954819Y-74666666D02*
X137954819Y-74285714D01*
X137954819Y-74285714D02*
X138002438Y-74190476D01*
X138002438Y-74190476D02*
X138050057Y-74142857D01*
X138050057Y-74142857D02*
X138145295Y-74095238D01*
X138145295Y-74095238D02*
X138288152Y-74095238D01*
X138288152Y-74095238D02*
X138383390Y-74142857D01*
X138383390Y-74142857D02*
X138431009Y-74190476D01*
X138431009Y-74190476D02*
X138478628Y-74285714D01*
X138478628Y-74285714D02*
X138478628Y-74666666D01*
X138954819Y-73190476D02*
X138954819Y-73666666D01*
X138954819Y-73666666D02*
X137954819Y-73666666D01*
X138669104Y-72904761D02*
X138669104Y-72428571D01*
X138954819Y-72999999D02*
X137954819Y-72666666D01*
X137954819Y-72666666D02*
X138954819Y-72333333D01*
X138478628Y-71809523D02*
X138954819Y-71809523D01*
X137954819Y-72142856D02*
X138478628Y-71809523D01*
X138478628Y-71809523D02*
X137954819Y-71476190D01*
X139050057Y-71380952D02*
X139050057Y-70619047D01*
X138954819Y-69857142D02*
X138954819Y-70428570D01*
X138954819Y-70142856D02*
X137954819Y-70142856D01*
X137954819Y-70142856D02*
X138097676Y-70238094D01*
X138097676Y-70238094D02*
X138192914Y-70333332D01*
X138192914Y-70333332D02*
X138240533Y-70428570D01*
X148833333Y-108954819D02*
X148500000Y-108478628D01*
X148261905Y-108954819D02*
X148261905Y-107954819D01*
X148261905Y-107954819D02*
X148642857Y-107954819D01*
X148642857Y-107954819D02*
X148738095Y-108002438D01*
X148738095Y-108002438D02*
X148785714Y-108050057D01*
X148785714Y-108050057D02*
X148833333Y-108145295D01*
X148833333Y-108145295D02*
X148833333Y-108288152D01*
X148833333Y-108288152D02*
X148785714Y-108383390D01*
X148785714Y-108383390D02*
X148738095Y-108431009D01*
X148738095Y-108431009D02*
X148642857Y-108478628D01*
X148642857Y-108478628D02*
X148261905Y-108478628D01*
X149309524Y-108954819D02*
X149500000Y-108954819D01*
X149500000Y-108954819D02*
X149595238Y-108907200D01*
X149595238Y-108907200D02*
X149642857Y-108859580D01*
X149642857Y-108859580D02*
X149738095Y-108716723D01*
X149738095Y-108716723D02*
X149785714Y-108526247D01*
X149785714Y-108526247D02*
X149785714Y-108145295D01*
X149785714Y-108145295D02*
X149738095Y-108050057D01*
X149738095Y-108050057D02*
X149690476Y-108002438D01*
X149690476Y-108002438D02*
X149595238Y-107954819D01*
X149595238Y-107954819D02*
X149404762Y-107954819D01*
X149404762Y-107954819D02*
X149309524Y-108002438D01*
X149309524Y-108002438D02*
X149261905Y-108050057D01*
X149261905Y-108050057D02*
X149214286Y-108145295D01*
X149214286Y-108145295D02*
X149214286Y-108383390D01*
X149214286Y-108383390D02*
X149261905Y-108478628D01*
X149261905Y-108478628D02*
X149309524Y-108526247D01*
X149309524Y-108526247D02*
X149404762Y-108573866D01*
X149404762Y-108573866D02*
X149595238Y-108573866D01*
X149595238Y-108573866D02*
X149690476Y-108526247D01*
X149690476Y-108526247D02*
X149738095Y-108478628D01*
X149738095Y-108478628D02*
X149785714Y-108383390D01*
X144954819Y-100142857D02*
X144478628Y-100476190D01*
X144954819Y-100714285D02*
X143954819Y-100714285D01*
X143954819Y-100714285D02*
X143954819Y-100333333D01*
X143954819Y-100333333D02*
X144002438Y-100238095D01*
X144002438Y-100238095D02*
X144050057Y-100190476D01*
X144050057Y-100190476D02*
X144145295Y-100142857D01*
X144145295Y-100142857D02*
X144288152Y-100142857D01*
X144288152Y-100142857D02*
X144383390Y-100190476D01*
X144383390Y-100190476D02*
X144431009Y-100238095D01*
X144431009Y-100238095D02*
X144478628Y-100333333D01*
X144478628Y-100333333D02*
X144478628Y-100714285D01*
X144954819Y-99190476D02*
X144954819Y-99761904D01*
X144954819Y-99476190D02*
X143954819Y-99476190D01*
X143954819Y-99476190D02*
X144097676Y-99571428D01*
X144097676Y-99571428D02*
X144192914Y-99666666D01*
X144192914Y-99666666D02*
X144240533Y-99761904D01*
X144288152Y-98333333D02*
X144954819Y-98333333D01*
X143907200Y-98571428D02*
X144621485Y-98809523D01*
X144621485Y-98809523D02*
X144621485Y-98190476D01*
X165857142Y-101454819D02*
X165523809Y-100978628D01*
X165285714Y-101454819D02*
X165285714Y-100454819D01*
X165285714Y-100454819D02*
X165666666Y-100454819D01*
X165666666Y-100454819D02*
X165761904Y-100502438D01*
X165761904Y-100502438D02*
X165809523Y-100550057D01*
X165809523Y-100550057D02*
X165857142Y-100645295D01*
X165857142Y-100645295D02*
X165857142Y-100788152D01*
X165857142Y-100788152D02*
X165809523Y-100883390D01*
X165809523Y-100883390D02*
X165761904Y-100931009D01*
X165761904Y-100931009D02*
X165666666Y-100978628D01*
X165666666Y-100978628D02*
X165285714Y-100978628D01*
X166809523Y-101454819D02*
X166238095Y-101454819D01*
X166523809Y-101454819D02*
X166523809Y-100454819D01*
X166523809Y-100454819D02*
X166428571Y-100597676D01*
X166428571Y-100597676D02*
X166333333Y-100692914D01*
X166333333Y-100692914D02*
X166238095Y-100740533D01*
X167428571Y-100454819D02*
X167523809Y-100454819D01*
X167523809Y-100454819D02*
X167619047Y-100502438D01*
X167619047Y-100502438D02*
X167666666Y-100550057D01*
X167666666Y-100550057D02*
X167714285Y-100645295D01*
X167714285Y-100645295D02*
X167761904Y-100835771D01*
X167761904Y-100835771D02*
X167761904Y-101073866D01*
X167761904Y-101073866D02*
X167714285Y-101264342D01*
X167714285Y-101264342D02*
X167666666Y-101359580D01*
X167666666Y-101359580D02*
X167619047Y-101407200D01*
X167619047Y-101407200D02*
X167523809Y-101454819D01*
X167523809Y-101454819D02*
X167428571Y-101454819D01*
X167428571Y-101454819D02*
X167333333Y-101407200D01*
X167333333Y-101407200D02*
X167285714Y-101359580D01*
X167285714Y-101359580D02*
X167238095Y-101264342D01*
X167238095Y-101264342D02*
X167190476Y-101073866D01*
X167190476Y-101073866D02*
X167190476Y-100835771D01*
X167190476Y-100835771D02*
X167238095Y-100645295D01*
X167238095Y-100645295D02*
X167285714Y-100550057D01*
X167285714Y-100550057D02*
X167333333Y-100502438D01*
X167333333Y-100502438D02*
X167428571Y-100454819D01*
X143687327Y-122259573D02*
X143639708Y-122307193D01*
X143639708Y-122307193D02*
X143496851Y-122354812D01*
X143496851Y-122354812D02*
X143401613Y-122354812D01*
X143401613Y-122354812D02*
X143258756Y-122307193D01*
X143258756Y-122307193D02*
X143163518Y-122211954D01*
X143163518Y-122211954D02*
X143115899Y-122116716D01*
X143115899Y-122116716D02*
X143068280Y-121926240D01*
X143068280Y-121926240D02*
X143068280Y-121783383D01*
X143068280Y-121783383D02*
X143115899Y-121592907D01*
X143115899Y-121592907D02*
X143163518Y-121497669D01*
X143163518Y-121497669D02*
X143258756Y-121402431D01*
X143258756Y-121402431D02*
X143401613Y-121354812D01*
X143401613Y-121354812D02*
X143496851Y-121354812D01*
X143496851Y-121354812D02*
X143639708Y-121402431D01*
X143639708Y-121402431D02*
X143687327Y-121450050D01*
X144639708Y-122354812D02*
X144068280Y-122354812D01*
X144353994Y-122354812D02*
X144353994Y-121354812D01*
X144353994Y-121354812D02*
X144258756Y-121497669D01*
X144258756Y-121497669D02*
X144163518Y-121592907D01*
X144163518Y-121592907D02*
X144068280Y-121640526D01*
X139333333Y-130675473D02*
X139000000Y-130199282D01*
X138761905Y-130675473D02*
X138761905Y-129675473D01*
X138761905Y-129675473D02*
X139142857Y-129675473D01*
X139142857Y-129675473D02*
X139238095Y-129723092D01*
X139238095Y-129723092D02*
X139285714Y-129770711D01*
X139285714Y-129770711D02*
X139333333Y-129865949D01*
X139333333Y-129865949D02*
X139333333Y-130008806D01*
X139333333Y-130008806D02*
X139285714Y-130104044D01*
X139285714Y-130104044D02*
X139238095Y-130151663D01*
X139238095Y-130151663D02*
X139142857Y-130199282D01*
X139142857Y-130199282D02*
X138761905Y-130199282D01*
X140285714Y-130675473D02*
X139714286Y-130675473D01*
X140000000Y-130675473D02*
X140000000Y-129675473D01*
X140000000Y-129675473D02*
X139904762Y-129818330D01*
X139904762Y-129818330D02*
X139809524Y-129913568D01*
X139809524Y-129913568D02*
X139714286Y-129961187D01*
X150859580Y-120666666D02*
X150907200Y-120714285D01*
X150907200Y-120714285D02*
X150954819Y-120857142D01*
X150954819Y-120857142D02*
X150954819Y-120952380D01*
X150954819Y-120952380D02*
X150907200Y-121095237D01*
X150907200Y-121095237D02*
X150811961Y-121190475D01*
X150811961Y-121190475D02*
X150716723Y-121238094D01*
X150716723Y-121238094D02*
X150526247Y-121285713D01*
X150526247Y-121285713D02*
X150383390Y-121285713D01*
X150383390Y-121285713D02*
X150192914Y-121238094D01*
X150192914Y-121238094D02*
X150097676Y-121190475D01*
X150097676Y-121190475D02*
X150002438Y-121095237D01*
X150002438Y-121095237D02*
X149954819Y-120952380D01*
X149954819Y-120952380D02*
X149954819Y-120857142D01*
X149954819Y-120857142D02*
X150002438Y-120714285D01*
X150002438Y-120714285D02*
X150050057Y-120666666D01*
X149954819Y-120333332D02*
X149954819Y-119714285D01*
X149954819Y-119714285D02*
X150335771Y-120047618D01*
X150335771Y-120047618D02*
X150335771Y-119904761D01*
X150335771Y-119904761D02*
X150383390Y-119809523D01*
X150383390Y-119809523D02*
X150431009Y-119761904D01*
X150431009Y-119761904D02*
X150526247Y-119714285D01*
X150526247Y-119714285D02*
X150764342Y-119714285D01*
X150764342Y-119714285D02*
X150859580Y-119761904D01*
X150859580Y-119761904D02*
X150907200Y-119809523D01*
X150907200Y-119809523D02*
X150954819Y-119904761D01*
X150954819Y-119904761D02*
X150954819Y-120190475D01*
X150954819Y-120190475D02*
X150907200Y-120285713D01*
X150907200Y-120285713D02*
X150859580Y-120333332D01*
X139333333Y-112954819D02*
X139000000Y-112478628D01*
X138761905Y-112954819D02*
X138761905Y-111954819D01*
X138761905Y-111954819D02*
X139142857Y-111954819D01*
X139142857Y-111954819D02*
X139238095Y-112002438D01*
X139238095Y-112002438D02*
X139285714Y-112050057D01*
X139285714Y-112050057D02*
X139333333Y-112145295D01*
X139333333Y-112145295D02*
X139333333Y-112288152D01*
X139333333Y-112288152D02*
X139285714Y-112383390D01*
X139285714Y-112383390D02*
X139238095Y-112431009D01*
X139238095Y-112431009D02*
X139142857Y-112478628D01*
X139142857Y-112478628D02*
X138761905Y-112478628D01*
X139666667Y-111954819D02*
X140333333Y-111954819D01*
X140333333Y-111954819D02*
X139904762Y-112954819D01*
X140454819Y-105261904D02*
X141264342Y-105261904D01*
X141264342Y-105261904D02*
X141359580Y-105214285D01*
X141359580Y-105214285D02*
X141407200Y-105166666D01*
X141407200Y-105166666D02*
X141454819Y-105071428D01*
X141454819Y-105071428D02*
X141454819Y-104880952D01*
X141454819Y-104880952D02*
X141407200Y-104785714D01*
X141407200Y-104785714D02*
X141359580Y-104738095D01*
X141359580Y-104738095D02*
X141264342Y-104690476D01*
X141264342Y-104690476D02*
X140454819Y-104690476D01*
X140454819Y-103738095D02*
X140454819Y-104214285D01*
X140454819Y-104214285D02*
X140931009Y-104261904D01*
X140931009Y-104261904D02*
X140883390Y-104214285D01*
X140883390Y-104214285D02*
X140835771Y-104119047D01*
X140835771Y-104119047D02*
X140835771Y-103880952D01*
X140835771Y-103880952D02*
X140883390Y-103785714D01*
X140883390Y-103785714D02*
X140931009Y-103738095D01*
X140931009Y-103738095D02*
X141026247Y-103690476D01*
X141026247Y-103690476D02*
X141264342Y-103690476D01*
X141264342Y-103690476D02*
X141359580Y-103738095D01*
X141359580Y-103738095D02*
X141407200Y-103785714D01*
X141407200Y-103785714D02*
X141454819Y-103880952D01*
X141454819Y-103880952D02*
X141454819Y-104119047D01*
X141454819Y-104119047D02*
X141407200Y-104214285D01*
X141407200Y-104214285D02*
X141359580Y-104261904D01*
X139049819Y-100142857D02*
X138573628Y-100476190D01*
X139049819Y-100714285D02*
X138049819Y-100714285D01*
X138049819Y-100714285D02*
X138049819Y-100333333D01*
X138049819Y-100333333D02*
X138097438Y-100238095D01*
X138097438Y-100238095D02*
X138145057Y-100190476D01*
X138145057Y-100190476D02*
X138240295Y-100142857D01*
X138240295Y-100142857D02*
X138383152Y-100142857D01*
X138383152Y-100142857D02*
X138478390Y-100190476D01*
X138478390Y-100190476D02*
X138526009Y-100238095D01*
X138526009Y-100238095D02*
X138573628Y-100333333D01*
X138573628Y-100333333D02*
X138573628Y-100714285D01*
X139049819Y-99190476D02*
X139049819Y-99761904D01*
X139049819Y-99476190D02*
X138049819Y-99476190D01*
X138049819Y-99476190D02*
X138192676Y-99571428D01*
X138192676Y-99571428D02*
X138287914Y-99666666D01*
X138287914Y-99666666D02*
X138335533Y-99761904D01*
X138049819Y-98285714D02*
X138049819Y-98761904D01*
X138049819Y-98761904D02*
X138526009Y-98809523D01*
X138526009Y-98809523D02*
X138478390Y-98761904D01*
X138478390Y-98761904D02*
X138430771Y-98666666D01*
X138430771Y-98666666D02*
X138430771Y-98428571D01*
X138430771Y-98428571D02*
X138478390Y-98333333D01*
X138478390Y-98333333D02*
X138526009Y-98285714D01*
X138526009Y-98285714D02*
X138621247Y-98238095D01*
X138621247Y-98238095D02*
X138859342Y-98238095D01*
X138859342Y-98238095D02*
X138954580Y-98285714D01*
X138954580Y-98285714D02*
X139002200Y-98333333D01*
X139002200Y-98333333D02*
X139049819Y-98428571D01*
X139049819Y-98428571D02*
X139049819Y-98666666D01*
X139049819Y-98666666D02*
X139002200Y-98761904D01*
X139002200Y-98761904D02*
X138954580Y-98809523D01*
X138629719Y-124621510D02*
X139201147Y-124621510D01*
X138915433Y-125621510D02*
X138915433Y-124621510D01*
X139534481Y-125621510D02*
X139534481Y-124621510D01*
X139534481Y-125097700D02*
X140105909Y-125097700D01*
X140105909Y-125621510D02*
X140105909Y-124621510D01*
X141105909Y-125621510D02*
X140534481Y-125621510D01*
X140820195Y-125621510D02*
X140820195Y-124621510D01*
X140820195Y-124621510D02*
X140724957Y-124764367D01*
X140724957Y-124764367D02*
X140629719Y-124859605D01*
X140629719Y-124859605D02*
X140534481Y-124907224D01*
X167142503Y-112028505D02*
X166666312Y-112361838D01*
X167142503Y-112599933D02*
X166142503Y-112599933D01*
X166142503Y-112599933D02*
X166142503Y-112218981D01*
X166142503Y-112218981D02*
X166190122Y-112123743D01*
X166190122Y-112123743D02*
X166237741Y-112076124D01*
X166237741Y-112076124D02*
X166332979Y-112028505D01*
X166332979Y-112028505D02*
X166475836Y-112028505D01*
X166475836Y-112028505D02*
X166571074Y-112076124D01*
X166571074Y-112076124D02*
X166618693Y-112123743D01*
X166618693Y-112123743D02*
X166666312Y-112218981D01*
X166666312Y-112218981D02*
X166666312Y-112599933D01*
X167142503Y-111076124D02*
X167142503Y-111647552D01*
X167142503Y-111361838D02*
X166142503Y-111361838D01*
X166142503Y-111361838D02*
X166285360Y-111457076D01*
X166285360Y-111457076D02*
X166380598Y-111552314D01*
X166380598Y-111552314D02*
X166428217Y-111647552D01*
X166237741Y-110695171D02*
X166190122Y-110647552D01*
X166190122Y-110647552D02*
X166142503Y-110552314D01*
X166142503Y-110552314D02*
X166142503Y-110314219D01*
X166142503Y-110314219D02*
X166190122Y-110218981D01*
X166190122Y-110218981D02*
X166237741Y-110171362D01*
X166237741Y-110171362D02*
X166332979Y-110123743D01*
X166332979Y-110123743D02*
X166428217Y-110123743D01*
X166428217Y-110123743D02*
X166571074Y-110171362D01*
X166571074Y-110171362D02*
X167142503Y-110742790D01*
X167142503Y-110742790D02*
X167142503Y-110123743D01*
X148333333Y-99359580D02*
X148285714Y-99407200D01*
X148285714Y-99407200D02*
X148142857Y-99454819D01*
X148142857Y-99454819D02*
X148047619Y-99454819D01*
X148047619Y-99454819D02*
X147904762Y-99407200D01*
X147904762Y-99407200D02*
X147809524Y-99311961D01*
X147809524Y-99311961D02*
X147761905Y-99216723D01*
X147761905Y-99216723D02*
X147714286Y-99026247D01*
X147714286Y-99026247D02*
X147714286Y-98883390D01*
X147714286Y-98883390D02*
X147761905Y-98692914D01*
X147761905Y-98692914D02*
X147809524Y-98597676D01*
X147809524Y-98597676D02*
X147904762Y-98502438D01*
X147904762Y-98502438D02*
X148047619Y-98454819D01*
X148047619Y-98454819D02*
X148142857Y-98454819D01*
X148142857Y-98454819D02*
X148285714Y-98502438D01*
X148285714Y-98502438D02*
X148333333Y-98550057D01*
X149190476Y-98454819D02*
X149000000Y-98454819D01*
X149000000Y-98454819D02*
X148904762Y-98502438D01*
X148904762Y-98502438D02*
X148857143Y-98550057D01*
X148857143Y-98550057D02*
X148761905Y-98692914D01*
X148761905Y-98692914D02*
X148714286Y-98883390D01*
X148714286Y-98883390D02*
X148714286Y-99264342D01*
X148714286Y-99264342D02*
X148761905Y-99359580D01*
X148761905Y-99359580D02*
X148809524Y-99407200D01*
X148809524Y-99407200D02*
X148904762Y-99454819D01*
X148904762Y-99454819D02*
X149095238Y-99454819D01*
X149095238Y-99454819D02*
X149190476Y-99407200D01*
X149190476Y-99407200D02*
X149238095Y-99359580D01*
X149238095Y-99359580D02*
X149285714Y-99264342D01*
X149285714Y-99264342D02*
X149285714Y-99026247D01*
X149285714Y-99026247D02*
X149238095Y-98931009D01*
X149238095Y-98931009D02*
X149190476Y-98883390D01*
X149190476Y-98883390D02*
X149095238Y-98835771D01*
X149095238Y-98835771D02*
X148904762Y-98835771D01*
X148904762Y-98835771D02*
X148809524Y-98883390D01*
X148809524Y-98883390D02*
X148761905Y-98931009D01*
X148761905Y-98931009D02*
X148714286Y-99026247D01*
X147186666Y-132334819D02*
X147186666Y-133049104D01*
X147186666Y-133049104D02*
X147139047Y-133191961D01*
X147139047Y-133191961D02*
X147043809Y-133287200D01*
X147043809Y-133287200D02*
X146900952Y-133334819D01*
X146900952Y-133334819D02*
X146805714Y-133334819D01*
X148186666Y-133334819D02*
X147615238Y-133334819D01*
X147900952Y-133334819D02*
X147900952Y-132334819D01*
X147900952Y-132334819D02*
X147805714Y-132477676D01*
X147805714Y-132477676D02*
X147710476Y-132572914D01*
X147710476Y-132572914D02*
X147615238Y-132620533D01*
D13*
%TO.C,Q1*%
X156890000Y-117000000D02*
X156890000Y-116350000D01*
X156890000Y-117000000D02*
X156890000Y-117650000D01*
X160010000Y-117000000D02*
X160010000Y-116350000D01*
X160010000Y-117000000D02*
X160010000Y-117650000D01*
X156940000Y-118162500D02*
X156610000Y-118402500D01*
X156610000Y-117922500D01*
X156940000Y-118162500D01*
G36*
X156940000Y-118162500D02*
G01*
X156610000Y-118402500D01*
X156610000Y-117922500D01*
X156940000Y-118162500D01*
G37*
%TO.C,R5*%
X148265000Y-115227064D02*
X148265000Y-114772936D01*
X149735000Y-115227064D02*
X149735000Y-114772936D01*
%TO.C,R6*%
X152772936Y-122265000D02*
X153227064Y-122265000D01*
X152772936Y-123735000D02*
X153227064Y-123735000D01*
%TO.C,D2*%
X163500000Y-110290000D02*
X163500000Y-114150000D01*
X165500000Y-110290000D02*
X163500000Y-110290000D01*
X165500000Y-110290000D02*
X165500000Y-114150000D01*
%TO.C,TV1*%
X145646296Y-125010000D02*
X145646296Y-121750000D01*
X145646296Y-125010000D02*
X147346296Y-125010000D01*
X147346296Y-125010000D02*
X147346296Y-121750000D01*
%TO.C,R2*%
X140113227Y-120825016D02*
X139659099Y-120825016D01*
X140113227Y-122295016D02*
X139659099Y-122295016D01*
%TO.C,D1*%
X157210000Y-112000000D02*
X153350000Y-112000000D01*
X157210000Y-114000000D02*
X153350000Y-114000000D01*
X157210000Y-114000000D02*
X157210000Y-112000000D01*
%TO.C,F1*%
X147748445Y-123983715D02*
X147748445Y-122529587D01*
X149568445Y-123983715D02*
X149568445Y-122529587D01*
%TO.C,C9*%
X162738748Y-106265000D02*
X163261252Y-106265000D01*
X162738748Y-107735000D02*
X163261252Y-107735000D01*
%TO.C,C5*%
X155765000Y-121738748D02*
X155765000Y-122261252D01*
X157235000Y-121738748D02*
X157235000Y-122261252D01*
%TO.C,R4*%
X162265000Y-128227064D02*
X162265000Y-127772936D01*
X163735000Y-128227064D02*
X163735000Y-127772936D01*
%TO.C,R13*%
X160265000Y-111772936D02*
X160265000Y-112227064D01*
X161735000Y-111772936D02*
X161735000Y-112227064D01*
%TO.C,R11*%
X161227064Y-108265000D02*
X160772936Y-108265000D01*
X161227064Y-109735000D02*
X160772936Y-109735000D01*
%TO.C,C2*%
X162238748Y-115765000D02*
X162761252Y-115765000D01*
X162238748Y-117235000D02*
X162761252Y-117235000D01*
%TO.C,U1*%
X144300000Y-125740000D02*
X142350000Y-125740000D01*
X144300000Y-125740000D02*
X146250000Y-125740000D01*
X144300000Y-130860000D02*
X142350000Y-130860000D01*
X144300000Y-130860000D02*
X146250000Y-130860000D01*
X141600000Y-125835000D02*
X141360000Y-125505000D01*
X141840000Y-125505000D01*
X141600000Y-125835000D01*
G36*
X141600000Y-125835000D02*
G01*
X141360000Y-125505000D01*
X141840000Y-125505000D01*
X141600000Y-125835000D01*
G37*
%TO.C,SW1*%
X151000000Y-103500000D02*
X151000000Y-108000000D01*
X153500000Y-109250000D02*
X155000000Y-109250000D01*
X155000000Y-102250000D02*
X153500000Y-102250000D01*
X157500000Y-108000000D02*
X157500000Y-103500000D01*
%TO.C,C4*%
X157765000Y-121701248D02*
X157765000Y-122223752D01*
X159235000Y-121701248D02*
X159235000Y-122223752D01*
%TO.C,U3*%
X163350000Y-119440000D02*
X161400000Y-119440000D01*
X163350000Y-119440000D02*
X165300000Y-119440000D01*
X163350000Y-124560000D02*
X161400000Y-124560000D01*
X163350000Y-124560000D02*
X165300000Y-124560000D01*
X166290000Y-124795000D02*
X165810000Y-124795000D01*
X166050000Y-124465000D01*
X166290000Y-124795000D01*
G36*
X166290000Y-124795000D02*
G01*
X165810000Y-124795000D01*
X166050000Y-124465000D01*
X166290000Y-124795000D01*
G37*
%TO.C,U2*%
X151440000Y-116891030D02*
X151440000Y-116091030D01*
X151440000Y-116891030D02*
X151440000Y-117691030D01*
X154560000Y-116891030D02*
X154560000Y-116091030D01*
X154560000Y-116891030D02*
X154560000Y-117691030D01*
X151490000Y-118191030D02*
X151160000Y-118431030D01*
X151160000Y-117951030D01*
X151490000Y-118191030D01*
G36*
X151490000Y-118191030D02*
G01*
X151160000Y-118431030D01*
X151160000Y-117951030D01*
X151490000Y-118191030D01*
G37*
%TO.C,J3*%
X139580000Y-108120000D02*
X139580000Y-110880000D01*
X144770000Y-108120000D02*
X139580000Y-108120000D01*
X144770000Y-108120000D02*
X144770000Y-110880000D01*
X144770000Y-110880000D02*
X139580000Y-110880000D01*
X146040000Y-108120000D02*
X147420000Y-108120000D01*
X147420000Y-108120000D02*
X147420000Y-109500000D01*
%TO.C,LDR1*%
X163250000Y-101350000D02*
X160200000Y-101350000D01*
X163250000Y-105650000D02*
X160200000Y-105650000D01*
X160200000Y-105650000D02*
G75*
G02*
X160155487Y-101381751I1500000J2150000D01*
G01*
X163250000Y-101350000D02*
G75*
G02*
X163228234Y-105665525I-1550000J-2150000D01*
G01*
%TO.C,R3*%
X159765000Y-128227064D02*
X159765000Y-127772936D01*
X161235000Y-128227064D02*
X161235000Y-127772936D01*
%TO.C,R16*%
X144192299Y-114526013D02*
X144192299Y-114980141D01*
X145662299Y-114526013D02*
X145662299Y-114980141D01*
D14*
%TO.C,DISPLAY_1*%
X139500000Y-70500000D02*
X165500000Y-70500000D01*
X139500000Y-96500000D02*
X139500000Y-70500000D01*
X145500000Y-94500000D02*
X145500000Y-96500000D01*
X145500000Y-96500000D02*
X139500000Y-96500000D01*
X159500000Y-94500000D02*
X145500000Y-94500000D01*
X159500000Y-96500000D02*
X159500000Y-94500000D01*
X165500000Y-70500000D02*
X165500000Y-96500000D01*
X165500000Y-96500000D02*
X159500000Y-96500000D01*
D15*
X148600000Y-70000000D02*
G75*
G02*
X148400000Y-70000000I-100000J0D01*
G01*
X148400000Y-70000000D02*
G75*
G02*
X148600000Y-70000000I100000J0D01*
G01*
D13*
%TO.C,R9*%
X148265000Y-111227064D02*
X148265000Y-110772936D01*
X149735000Y-111227064D02*
X149735000Y-110772936D01*
%TO.C,R14*%
X141765000Y-99727064D02*
X141765000Y-99272936D01*
X143235000Y-99727064D02*
X143235000Y-99272936D01*
%TO.C,R10*%
X165265000Y-103727064D02*
X165265000Y-103272936D01*
X166735000Y-103727064D02*
X166735000Y-103272936D01*
%TO.C,C1*%
X143927746Y-122759993D02*
X143405242Y-122759993D01*
X143927746Y-124229993D02*
X143405242Y-124229993D01*
%TO.C,R1*%
X138765000Y-127493590D02*
X138765000Y-127947718D01*
X140235000Y-127493590D02*
X140235000Y-127947718D01*
%TO.C,C3*%
X153261252Y-119765000D02*
X152738748Y-119765000D01*
X153261252Y-121235000D02*
X152738748Y-121235000D01*
%TO.C,R7*%
X138765000Y-115227064D02*
X138765000Y-114772936D01*
X140235000Y-115227064D02*
X140235000Y-114772936D01*
%TO.C,U5*%
X145500000Y-101940000D02*
X143550000Y-101940000D01*
X145500000Y-101940000D02*
X147450000Y-101940000D01*
X145500000Y-107060000D02*
X143550000Y-107060000D01*
X145500000Y-107060000D02*
X147450000Y-107060000D01*
X148440000Y-107295000D02*
X147960000Y-107295000D01*
X148200000Y-106965000D01*
X148440000Y-107295000D01*
G36*
X148440000Y-107295000D02*
G01*
X147960000Y-107295000D01*
X148200000Y-106965000D01*
X148440000Y-107295000D01*
G37*
%TO.C,R15*%
X139765000Y-99727064D02*
X139765000Y-99272936D01*
X141235000Y-99727064D02*
X141235000Y-99272936D01*
%TO.C,TH1*%
X139673216Y-122764999D02*
X140127344Y-122764999D01*
X139673216Y-124234999D02*
X140127344Y-124234999D01*
%TO.C,R12*%
X165227064Y-108265000D02*
X164772936Y-108265000D01*
X165227064Y-109735000D02*
X164772936Y-109735000D01*
%TO.C,C6*%
X148761252Y-99765000D02*
X148238748Y-99765000D01*
X148761252Y-101235000D02*
X148238748Y-101235000D01*
%TO.C,J1*%
X148850000Y-130330000D02*
X148850000Y-128630000D01*
X158190000Y-130330000D02*
X158190000Y-128630000D01*
%TD*%
M02*
