%TF.GenerationSoftware,KiCad,Pcbnew,9.0.2*%
%TF.CreationDate,2026-07-05T22:09:37-03:00*%
%TF.ProjectId,IR_Termostat,49525f54-6572-46d6-9f73-7461742e6b69,rev?*%
%TF.SameCoordinates,Original*%
%TF.FileFunction,Legend,Bot*%
%TF.FilePolarity,Positive*%
%FSLAX46Y46*%
G04 Gerber Fmt 4.6, Leading zero omitted, Abs format (unit mm)*
G04 Created by KiCad (PCBNEW 9.0.2) date 2026-07-05 22:09:37*
%MOMM*%
%LPD*%
G01*
G04 APERTURE LIST*
%ADD10C,0.150000*%
%ADD11C,0.120000*%
%ADD12C,0.127000*%
%ADD13C,0.200000*%
G04 APERTURE END LIST*
D10*
X148666666Y-86359580D02*
X148714285Y-86407200D01*
X148714285Y-86407200D02*
X148857142Y-86454819D01*
X148857142Y-86454819D02*
X148952380Y-86454819D01*
X148952380Y-86454819D02*
X149095237Y-86407200D01*
X149095237Y-86407200D02*
X149190475Y-86311961D01*
X149190475Y-86311961D02*
X149238094Y-86216723D01*
X149238094Y-86216723D02*
X149285713Y-86026247D01*
X149285713Y-86026247D02*
X149285713Y-85883390D01*
X149285713Y-85883390D02*
X149238094Y-85692914D01*
X149238094Y-85692914D02*
X149190475Y-85597676D01*
X149190475Y-85597676D02*
X149095237Y-85502438D01*
X149095237Y-85502438D02*
X148952380Y-85454819D01*
X148952380Y-85454819D02*
X148857142Y-85454819D01*
X148857142Y-85454819D02*
X148714285Y-85502438D01*
X148714285Y-85502438D02*
X148666666Y-85550057D01*
X148333332Y-85454819D02*
X147666666Y-85454819D01*
X147666666Y-85454819D02*
X148095237Y-86454819D01*
X153333333Y-126404819D02*
X153333333Y-127119104D01*
X153333333Y-127119104D02*
X153380952Y-127261961D01*
X153380952Y-127261961D02*
X153476190Y-127357200D01*
X153476190Y-127357200D02*
X153619047Y-127404819D01*
X153619047Y-127404819D02*
X153714285Y-127404819D01*
X152904761Y-126500057D02*
X152857142Y-126452438D01*
X152857142Y-126452438D02*
X152761904Y-126404819D01*
X152761904Y-126404819D02*
X152523809Y-126404819D01*
X152523809Y-126404819D02*
X152428571Y-126452438D01*
X152428571Y-126452438D02*
X152380952Y-126500057D01*
X152380952Y-126500057D02*
X152333333Y-126595295D01*
X152333333Y-126595295D02*
X152333333Y-126690533D01*
X152333333Y-126690533D02*
X152380952Y-126833390D01*
X152380952Y-126833390D02*
X152952380Y-127404819D01*
X152952380Y-127404819D02*
X152333333Y-127404819D01*
X146859145Y-74859580D02*
X146906764Y-74907200D01*
X146906764Y-74907200D02*
X147049621Y-74954819D01*
X147049621Y-74954819D02*
X147144859Y-74954819D01*
X147144859Y-74954819D02*
X147287716Y-74907200D01*
X147287716Y-74907200D02*
X147382954Y-74811961D01*
X147382954Y-74811961D02*
X147430573Y-74716723D01*
X147430573Y-74716723D02*
X147478192Y-74526247D01*
X147478192Y-74526247D02*
X147478192Y-74383390D01*
X147478192Y-74383390D02*
X147430573Y-74192914D01*
X147430573Y-74192914D02*
X147382954Y-74097676D01*
X147382954Y-74097676D02*
X147287716Y-74002438D01*
X147287716Y-74002438D02*
X147144859Y-73954819D01*
X147144859Y-73954819D02*
X147049621Y-73954819D01*
X147049621Y-73954819D02*
X146906764Y-74002438D01*
X146906764Y-74002438D02*
X146859145Y-74050057D01*
X146287716Y-74383390D02*
X146382954Y-74335771D01*
X146382954Y-74335771D02*
X146430573Y-74288152D01*
X146430573Y-74288152D02*
X146478192Y-74192914D01*
X146478192Y-74192914D02*
X146478192Y-74145295D01*
X146478192Y-74145295D02*
X146430573Y-74050057D01*
X146430573Y-74050057D02*
X146382954Y-74002438D01*
X146382954Y-74002438D02*
X146287716Y-73954819D01*
X146287716Y-73954819D02*
X146097240Y-73954819D01*
X146097240Y-73954819D02*
X146002002Y-74002438D01*
X146002002Y-74002438D02*
X145954383Y-74050057D01*
X145954383Y-74050057D02*
X145906764Y-74145295D01*
X145906764Y-74145295D02*
X145906764Y-74192914D01*
X145906764Y-74192914D02*
X145954383Y-74288152D01*
X145954383Y-74288152D02*
X146002002Y-74335771D01*
X146002002Y-74335771D02*
X146097240Y-74383390D01*
X146097240Y-74383390D02*
X146287716Y-74383390D01*
X146287716Y-74383390D02*
X146382954Y-74431009D01*
X146382954Y-74431009D02*
X146430573Y-74478628D01*
X146430573Y-74478628D02*
X146478192Y-74573866D01*
X146478192Y-74573866D02*
X146478192Y-74764342D01*
X146478192Y-74764342D02*
X146430573Y-74859580D01*
X146430573Y-74859580D02*
X146382954Y-74907200D01*
X146382954Y-74907200D02*
X146287716Y-74954819D01*
X146287716Y-74954819D02*
X146097240Y-74954819D01*
X146097240Y-74954819D02*
X146002002Y-74907200D01*
X146002002Y-74907200D02*
X145954383Y-74859580D01*
X145954383Y-74859580D02*
X145906764Y-74764342D01*
X145906764Y-74764342D02*
X145906764Y-74573866D01*
X145906764Y-74573866D02*
X145954383Y-74478628D01*
X145954383Y-74478628D02*
X146002002Y-74431009D01*
X146002002Y-74431009D02*
X146097240Y-74383390D01*
X157761904Y-75454819D02*
X157761904Y-76264342D01*
X157761904Y-76264342D02*
X157714285Y-76359580D01*
X157714285Y-76359580D02*
X157666666Y-76407200D01*
X157666666Y-76407200D02*
X157571428Y-76454819D01*
X157571428Y-76454819D02*
X157380952Y-76454819D01*
X157380952Y-76454819D02*
X157285714Y-76407200D01*
X157285714Y-76407200D02*
X157238095Y-76359580D01*
X157238095Y-76359580D02*
X157190476Y-76264342D01*
X157190476Y-76264342D02*
X157190476Y-75454819D01*
X156285714Y-75788152D02*
X156285714Y-76454819D01*
X156523809Y-75407200D02*
X156761904Y-76121485D01*
X156761904Y-76121485D02*
X156142857Y-76121485D01*
D11*
%TO.C,C7*%
X151761252Y-85265000D02*
X151238748Y-85265000D01*
X151761252Y-86735000D02*
X151238748Y-86735000D01*
%TO.C,J2*%
X149940000Y-118590000D02*
X156060000Y-118590000D01*
X149940000Y-124810000D02*
X150860000Y-124810000D01*
X149940000Y-126410000D02*
X149940000Y-118590000D01*
X150700000Y-120850000D02*
X151700000Y-120850000D01*
X150700000Y-122450000D02*
X150700000Y-120850000D01*
X150860000Y-124810000D02*
X150860000Y-126410000D01*
X150860000Y-126410000D02*
X149940000Y-126410000D01*
X151140000Y-124810000D02*
X150860000Y-124810000D01*
X151140000Y-124810000D02*
X151140000Y-126025000D01*
X151200000Y-120850000D02*
X151200000Y-118590000D01*
X151700000Y-120850000D02*
X151700000Y-118590000D01*
X151700000Y-120850000D02*
X151700000Y-122450000D01*
X151700000Y-122450000D02*
X150700000Y-122450000D01*
X152500000Y-118590000D02*
X152500000Y-122950000D01*
X152500000Y-122950000D02*
X153500000Y-122950000D01*
X153500000Y-122950000D02*
X153500000Y-118590000D01*
X154300000Y-120850000D02*
X154300000Y-122450000D01*
X154300000Y-122450000D02*
X155300000Y-122450000D01*
X155140000Y-124810000D02*
X154860000Y-124810000D01*
X155140000Y-126410000D02*
X155140000Y-124810000D01*
X155300000Y-120850000D02*
X154300000Y-120850000D01*
X155300000Y-122450000D02*
X155300000Y-120850000D01*
X156060000Y-118590000D02*
X156060000Y-126410000D01*
X156060000Y-124810000D02*
X155140000Y-124810000D01*
X156060000Y-126410000D02*
X155140000Y-126410000D01*
%TO.C,C8*%
X149723752Y-73765000D02*
X149201248Y-73765000D01*
X149723752Y-75235000D02*
X149201248Y-75235000D01*
D12*
%TO.C,U4*%
X148798000Y-76404000D02*
X149505000Y-77111000D01*
X149364000Y-75838000D02*
X148798000Y-76404000D01*
X150071000Y-76545000D02*
X149364000Y-75838000D01*
X150071000Y-76545000D02*
G75*
G02*
X149505000Y-77111000I2903656J-3469656D01*
G01*
D13*
X153100000Y-74840000D02*
G75*
G02*
X152900000Y-74840000I-100000J0D01*
G01*
X152900000Y-74840000D02*
G75*
G02*
X153100000Y-74840000I100000J0D01*
G01*
%TD*%
M02*
