M48
; DRILL file {KiCad 9.0.2} date 2026-07-05T22:10:02-0300
; FORMAT={-:-/ absolute / metric / decimal}
; #@! TF.CreationDate,2026-07-05T22:10:02-03:00
; #@! TF.GenerationSoftware,Kicad,Pcbnew,9.0.2
; #@! TF.FileFunction,Plated,1,2,PTH
FMAT,2
METRIC
; #@! TA.AperFunction,Plated,PTH,ViaDrill
T1C0.300
; #@! TA.AperFunction,Plated,PTH,ComponentDrill
T2C0.300
; #@! TA.AperFunction,Plated,PTH,ComponentDrill
T3C0.690
; #@! TA.AperFunction,Plated,PTH,ComponentDrill
T4C0.700
; #@! TA.AperFunction,Plated,PTH,ComponentDrill
T5C0.750
; #@! TA.AperFunction,Plated,PTH,ComponentDrill
T6C0.800
; #@! TA.AperFunction,Plated,PTH,ComponentDrill
T7C1.000
; #@! TA.AperFunction,Plated,PTH,ComponentDrill
T8C1.100
; #@! TA.AperFunction,Plated,PTH,ComponentDrill
T9C2.000
%
G90
G05
T1
X138.3Y-120.0
X139.504Y-130.214
X141.0Y-116.0
X141.152Y-125.0
X142.161Y-113.0
X142.5Y-122.0
X142.6Y-125.0
X143.703Y-122.0
X146.0Y-100.5
X146.0Y-118.5
X146.5Y-105.0
X146.915Y-125.435
X147.5Y-117.0
X148.205Y-128.374
X149.0Y-114.9
X150.5Y-120.5
X152.0Y-129.0
X155.786Y-117.383
X157.5Y-115.412
X157.5Y-116.712
X158.439Y-109.141
X160.5Y-125.5
X163.0Y-125.5
X164.5Y-115.212
X164.89Y-125.11
X165.0Y-116.5
X165.5Y-107.0
X165.825Y-118.5
X166.0Y-101.0
T2
X143.871Y-129.243
X143.878Y-128.356
X143.892Y-127.484
X144.8Y-128.335
X144.821Y-129.236
X144.828Y-127.442
X163.306Y-122.682
X163.35Y-121.404
T3
X150.46Y-80.04
X153.0Y-77.5
X153.0Y-82.58
X155.54Y-80.04
T5
X152.0Y-124.95
X154.0Y-124.95
T6
X160.0Y-103.5
X163.4Y-103.5
T7
X140.96Y-109.5
X143.5Y-109.5
X146.04Y-109.5
X148.69Y-72.0
X151.23Y-72.0
X153.77Y-72.0
X156.31Y-72.0
T8
X152.0Y-102.5
X152.0Y-109.0
X156.5Y-102.5
X156.5Y-109.0
T9
X141.5Y-72.5
X141.5Y-94.5
X163.5Y-72.5
X163.5Y-94.5
T4
G00X149.2Y-127.33
M15
G01X149.2Y-127.83
M16
G05
G00X149.2Y-131.13
M15
G01X149.2Y-131.63
M16
G05
G00X157.84Y-127.33
M15
G01X157.84Y-127.83
M16
G05
G00X157.84Y-131.13
M15
G01X157.84Y-131.63
M16
G05
M30
